<?xml version="1.0" encoding="UTF-8" standalone="no"?>
<!DOCTYPE svg PUBLIC "-//W3C//DTD SVG 1.1//EN"
 "http://www.w3.org/Graphics/SVG/1.1/DTD/svg11.dtd">
<!-- Generated by graphviz version 2.40.1 (0)
 -->
<!-- Title: G Pages: 1 -->
<svg width="1005pt" height="1018pt"
 viewBox="0.00 0.00 1005.00 1017.79" xmlns="http://www.w3.org/2000/svg" xmlns:xlink="http://www.w3.org/1999/xlink">
<g id="graph0" class="graph" transform="scale(1 1) rotate(0) translate(4 1013.7946)">
<title>G</title>
<polygon fill="#ffffff" stroke="transparent" points="-4,4 -4,-1013.7946 1001,-1013.7946 1001,4 -4,4"/>
<text text-anchor="middle" x="498.5" y="-6.6" font-family="Times,serif" font-size="8.00" fill="#000000">PhpDependencyAnalysis by Marco Muths v2.0.2</text>
<g id="clust1" class="cluster">
<title>cluster_0</title>
<path fill="#ccccff" stroke="#000033" d="M20,-657.7946C20,-657.7946 954.5,-657.7946 954.5,-657.7946 960.5,-657.7946 966.5,-663.7946 966.5,-669.7946 966.5,-669.7946 966.5,-989.7946 966.5,-989.7946 966.5,-995.7946 960.5,-1001.7946 954.5,-1001.7946 954.5,-1001.7946 20,-1001.7946 20,-1001.7946 14,-1001.7946 8,-995.7946 8,-989.7946 8,-989.7946 8,-669.7946 8,-669.7946 8,-663.7946 14,-657.7946 20,-657.7946"/>
<text text-anchor="middle" x="31.5" y="-986.5946" font-family="Times,serif" font-size="14.00" fill="#000033">Apie</text>
</g>
<g id="clust2" class="cluster">
<title>cluster_1</title>
<path fill="#ccccff" stroke="#000033" d="M871,-574.7946C871,-574.7946 962,-574.7946 962,-574.7946 968,-574.7946 974,-580.7946 974,-586.7946 974,-586.7946 974,-637.7946 974,-637.7946 974,-643.7946 968,-649.7946 962,-649.7946 962,-649.7946 871,-649.7946 871,-649.7946 865,-649.7946 859,-643.7946 859,-637.7946 859,-637.7946 859,-586.7946 859,-586.7946 859,-580.7946 865,-574.7946 871,-574.7946"/>
<text text-anchor="middle" x="890" y="-634.5946" font-family="Times,serif" font-size="14.00" fill="#000033">Ramsey</text>
</g>
<g id="clust3" class="cluster">
<title>cluster_2</title>
<path fill="#ccccff" stroke="#000033" d="M856,-361.7946C856,-361.7946 977,-361.7946 977,-361.7946 983,-361.7946 989,-367.7946 989,-373.7946 989,-373.7946 989,-467.7946 989,-467.7946 989,-473.7946 983,-479.7946 977,-479.7946 977,-479.7946 856,-479.7946 856,-479.7946 850,-479.7946 844,-473.7946 844,-467.7946 844,-467.7946 844,-373.7946 844,-373.7946 844,-367.7946 850,-361.7946 856,-361.7946"/>
<text text-anchor="middle" x="871" y="-464.5946" font-family="Times,serif" font-size="14.00" fill="#000033">Faker</text>
</g>
<g id="clust4" class="cluster">
<title>cluster_3</title>
<path fill="#ccccff" stroke="#000033" d="M561,-567.7946C561,-567.7946 720,-567.7946 720,-567.7946 726,-567.7946 732,-573.7946 732,-579.7946 732,-579.7946 732,-630.7946 732,-630.7946 732,-636.7946 726,-642.7946 720,-642.7946 720,-642.7946 561,-642.7946 561,-642.7946 555,-642.7946 549,-636.7946 549,-630.7946 549,-630.7946 549,-579.7946 549,-579.7946 549,-573.7946 555,-567.7946 561,-567.7946"/>
<text text-anchor="middle" x="595" y="-627.5946" font-family="Times,serif" font-size="14.00" fill="#000033">PrinsFrank</text>
</g>
<g id="clust5" class="cluster">
<title>cluster_4</title>
<path fill="#ccccff" stroke="#000033" d="M505,-355.7946C505,-355.7946 776,-355.7946 776,-355.7946 782,-355.7946 788,-361.7946 788,-367.7946 788,-367.7946 788,-547.7946 788,-547.7946 788,-553.7946 782,-559.7946 776,-559.7946 776,-559.7946 505,-559.7946 505,-559.7946 499,-559.7946 493,-553.7946 493,-547.7946 493,-547.7946 493,-367.7946 493,-367.7946 493,-361.7946 499,-355.7946 505,-355.7946"/>
<text text-anchor="middle" x="554" y="-544.5946" font-family="Times,serif" font-size="14.00" fill="#000033">libphonenumber</text>
</g>
<g id="clust6" class="cluster">
<title>cluster_5</title>
<path fill="#ccccff" stroke="#000033" d="M568.5,-256.7946C568.5,-256.7946 712.5,-256.7946 712.5,-256.7946 718.5,-256.7946 724.5,-262.7946 724.5,-268.7946 724.5,-268.7946 724.5,-319.7946 724.5,-319.7946 724.5,-325.7946 718.5,-331.7946 712.5,-331.7946 712.5,-331.7946 568.5,-331.7946 568.5,-331.7946 562.5,-331.7946 556.5,-325.7946 556.5,-319.7946 556.5,-319.7946 556.5,-268.7946 556.5,-268.7946 556.5,-262.7946 562.5,-256.7946 568.5,-256.7946"/>
<text text-anchor="middle" x="583.5" y="-316.5946" font-family="Times,serif" font-size="14.00" fill="#000033">Nette</text>
</g>
<g id="clust7" class="cluster">
<title>cluster_6</title>
<path fill="#ccccff" stroke="#000033" d="M591,-173.7946C591,-173.7946 690,-173.7946 690,-173.7946 696,-173.7946 702,-179.7946 702,-185.7946 702,-185.7946 702,-236.7946 702,-236.7946 702,-242.7946 696,-248.7946 690,-248.7946 690,-248.7946 591,-248.7946 591,-248.7946 585,-248.7946 579,-242.7946 579,-236.7946 579,-236.7946 579,-185.7946 579,-185.7946 579,-179.7946 585,-173.7946 591,-173.7946"/>
<text text-anchor="middle" x="617.5" y="-233.5946" font-family="Times,serif" font-size="14.00" fill="#000033">Doctrine</text>
</g>
<g id="clust8" class="cluster">
<title>cluster_7</title>
<path fill="#ccccff" stroke="#000033" d="M591,-74.7946C591,-74.7946 690,-74.7946 690,-74.7946 696,-74.7946 702,-80.7946 702,-86.7946 702,-86.7946 702,-137.7946 702,-137.7946 702,-143.7946 696,-149.7946 690,-149.7946 690,-149.7946 591,-149.7946 591,-149.7946 585,-149.7946 579,-143.7946 579,-137.7946 579,-137.7946 579,-86.7946 579,-86.7946 579,-80.7946 585,-74.7946 591,-74.7946"/>
<text text-anchor="middle" x="602.5" y="-134.5946" font-family="Times,serif" font-size="14.00" fill="#000033">cebe</text>
</g>
<!-- Apie\\CommonValueObjects -->
<g id="node1" class="node">
<title>Apie\\CommonValueObjects</title>
<path fill="#9999cc" stroke="#000000" d="M723,-805.7946C723,-805.7946 558,-805.7946 558,-805.7946 552,-805.7946 546,-799.7946 546,-793.7946 546,-793.7946 546,-781.7946 546,-781.7946 546,-775.7946 552,-769.7946 558,-769.7946 558,-769.7946 723,-769.7946 723,-769.7946 729,-769.7946 735,-775.7946 735,-781.7946 735,-781.7946 735,-793.7946 735,-793.7946 735,-799.7946 729,-805.7946 723,-805.7946"/>
<text text-anchor="middle" x="640.5" y="-785.2946" font-family="Times,serif" font-size="10.00" fill="#000033">Apie\CommonValueObjects</text>
</g>
<!-- Apie\\Core -->
<g id="node2" class="node">
<title>Apie\\Core</title>
<path fill="#9999cc" stroke="#000000" d="M946.5,-831.7946C946.5,-831.7946 886.5,-831.7946 886.5,-831.7946 880.5,-831.7946 874.5,-825.7946 874.5,-819.7946 874.5,-819.7946 874.5,-807.7946 874.5,-807.7946 874.5,-801.7946 880.5,-795.7946 886.5,-795.7946 886.5,-795.7946 946.5,-795.7946 946.5,-795.7946 952.5,-795.7946 958.5,-801.7946 958.5,-807.7946 958.5,-807.7946 958.5,-819.7946 958.5,-819.7946 958.5,-825.7946 952.5,-831.7946 946.5,-831.7946"/>
<text text-anchor="middle" x="916.5" y="-811.2946" font-family="Times,serif" font-size="10.00" fill="#000033">Apie\Core</text>
</g>
<!-- Apie\\CommonValueObjects&#45;&gt;Apie\\Core -->
<g id="edge1" class="edge">
<title>Apie\\CommonValueObjects&#45;&gt;Apie\\Core</title>
<path fill="none" stroke="#999999" d="M735.0974,-796.7059C779.9416,-800.9304 831.5936,-805.7961 868.2838,-809.2525"/>
<polygon fill="#999999" stroke="#999999" points="868.3266,-811.3657 874.4971,-809.8378 868.7206,-807.1842 868.3266,-811.3657"/>
</g>
<!-- Ramsey\\Uuid -->
<g id="node14" class="node">
<title>Ramsey\\Uuid</title>
<path fill="#9999cc" stroke="#000000" d="M954,-618.7946C954,-618.7946 879,-618.7946 879,-618.7946 873,-618.7946 867,-612.7946 867,-606.7946 867,-606.7946 867,-594.7946 867,-594.7946 867,-588.7946 873,-582.7946 879,-582.7946 879,-582.7946 954,-582.7946 954,-582.7946 960,-582.7946 966,-588.7946 966,-594.7946 966,-594.7946 966,-606.7946 966,-606.7946 966,-612.7946 960,-618.7946 954,-618.7946"/>
<text text-anchor="middle" x="916.5" y="-598.2946" font-family="Times,serif" font-size="10.00" fill="#000033">Ramsey\Uuid</text>
</g>
<!-- Apie\\CommonValueObjects&#45;&gt;Ramsey\\Uuid -->
<g id="edge2" class="edge">
<title>Apie\\CommonValueObjects&#45;&gt;Ramsey\\Uuid</title>
<path fill="none" stroke="#999999" d="M735.105,-774.2316C753.8534,-768.5026 772.5051,-760.3613 788,-748.7946 826.3591,-720.16 812.0801,-692.4664 844,-656.7946 855.4225,-644.0295 870.0663,-632.0933 883.1992,-622.5479"/>
<polygon fill="#999999" stroke="#999999" points="884.6767,-624.0732 888.3382,-618.8767 882.2352,-620.6557 884.6767,-624.0732"/>
</g>
<!-- Faker\\Generator -->
<g id="node15" class="node">
<title>Faker\\Generator</title>
<path fill="#9999cc" stroke="#000000" d="M969,-448.7946C969,-448.7946 864,-448.7946 864,-448.7946 858,-448.7946 852,-442.7946 852,-436.7946 852,-436.7946 852,-424.7946 852,-424.7946 852,-418.7946 858,-412.7946 864,-412.7946 864,-412.7946 969,-412.7946 969,-412.7946 975,-412.7946 981,-418.7946 981,-424.7946 981,-424.7946 981,-436.7946 981,-436.7946 981,-442.7946 975,-448.7946 969,-448.7946"/>
<text text-anchor="middle" x="916.5" y="-428.2946" font-family="Times,serif" font-size="10.00" fill="#000033">Faker\Generator</text>
</g>
<!-- Apie\\CommonValueObjects&#45;&gt;Faker\\Generator -->
<g id="edge3" class="edge">
<title>Apie\\CommonValueObjects&#45;&gt;Faker\\Generator</title>
<path fill="none" stroke="#999999" d="M735.0735,-777.63C754.4769,-771.73 773.4057,-762.6599 788,-748.7946 847.2039,-692.5475 812.9931,-649.342 844,-573.7946 861.8347,-530.3409 887.6594,-482.0387 903.1909,-454.1615"/>
<polygon fill="#999999" stroke="#999999" points="905.0569,-455.1273 906.1545,-448.8659 901.3918,-453.0762 905.0569,-455.1273"/>
</g>
<!-- Apie\\CompositeValueObjects -->
<g id="node3" class="node">
<title>Apie\\CompositeValueObjects</title>
<path fill="#9999cc" stroke="#000000" d="M734.5,-875.7946C734.5,-875.7946 546.5,-875.7946 546.5,-875.7946 540.5,-875.7946 534.5,-869.7946 534.5,-863.7946 534.5,-863.7946 534.5,-851.7946 534.5,-851.7946 534.5,-845.7946 540.5,-839.7946 546.5,-839.7946 546.5,-839.7946 734.5,-839.7946 734.5,-839.7946 740.5,-839.7946 746.5,-845.7946 746.5,-851.7946 746.5,-851.7946 746.5,-863.7946 746.5,-863.7946 746.5,-869.7946 740.5,-875.7946 734.5,-875.7946"/>
<text text-anchor="middle" x="640.5" y="-855.2946" font-family="Times,serif" font-size="10.00" fill="#000033">Apie\CompositeValueObjects</text>
</g>
<!-- Apie\\CompositeValueObjects&#45;&gt;Apie\\Core -->
<g id="edge4" class="edge">
<title>Apie\\CompositeValueObjects&#45;&gt;Apie\\Core</title>
<path fill="none" stroke="#999999" d="M746.814,-840.846C788.7008,-834.1684 834.7046,-826.8344 868.2325,-821.4894"/>
<polygon fill="#999999" stroke="#999999" points="868.7494,-823.5336 874.344,-820.5151 868.0881,-819.386 868.7494,-823.5336"/>
</g>
<!-- Apie\\CountryAndPhoneNumber -->
<g id="node4" class="node">
<title>Apie\\CountryAndPhoneNumber</title>
<path fill="#9999cc" stroke="#000000" d="M409.5,-874.7946C409.5,-874.7946 221.5,-874.7946 221.5,-874.7946 215.5,-874.7946 209.5,-868.7946 209.5,-862.7946 209.5,-862.7946 209.5,-850.7946 209.5,-850.7946 209.5,-844.7946 215.5,-838.7946 221.5,-838.7946 221.5,-838.7946 409.5,-838.7946 409.5,-838.7946 415.5,-838.7946 421.5,-844.7946 421.5,-850.7946 421.5,-850.7946 421.5,-862.7946 421.5,-862.7946 421.5,-868.7946 415.5,-874.7946 409.5,-874.7946"/>
<text text-anchor="middle" x="315.5" y="-854.2946" font-family="Times,serif" font-size="10.00" fill="#000033">Apie\CountryAndPhoneNumber</text>
</g>
<!-- Apie\\CountryAndPhoneNumber&#45;&gt;Apie\\Core -->
<g id="edge6" class="edge">
<title>Apie\\CountryAndPhoneNumber&#45;&gt;Apie\\Core</title>
<path fill="none" stroke="#999999" d="M420.848,-838.7616C444.5227,-835.2698 469.571,-832.0119 493,-829.7946 564.4965,-823.0281 773.2136,-817.2774 868.3006,-814.928"/>
<polygon fill="#999999" stroke="#999999" points="868.4503,-817.025 874.3969,-814.7781 868.3471,-812.8263 868.4503,-817.025"/>
</g>
<!-- Apie\\CountryAndPhoneNumber&#45;&gt;Apie\\CompositeValueObjects -->
<g id="edge7" class="edge">
<title>Apie\\CountryAndPhoneNumber&#45;&gt;Apie\\CompositeValueObjects</title>
<path fill="none" stroke="#999999" d="M421.9172,-857.122C455.9012,-857.2266 493.6153,-857.3426 528.0159,-857.4485"/>
<polygon fill="#999999" stroke="#999999" points="528.3926,-859.5495 534.3991,-857.4681 528.4056,-855.3496 528.3926,-859.5495"/>
</g>
<!-- Apie\\CountryAndPhoneNumber&#45;&gt;Faker\\Generator -->
<g id="edge10" class="edge">
<title>Apie\\CountryAndPhoneNumber&#45;&gt;Faker\\Generator</title>
<path fill="none" stroke="#999999" d="M421.5179,-840.3524C424.1244,-838.6544 426.6266,-836.806 429,-834.7946 491.2255,-782.061 427.5502,-711.4686 493,-662.7946 545.7125,-623.5931 731.8644,-677.9142 788,-643.7946 824.6905,-621.4938 881.9061,-505.3381 905.6284,-454.5765"/>
<polygon fill="#999999" stroke="#999999" points="907.5921,-455.3339 908.2189,-449.008 903.784,-453.5624 907.5921,-455.3339"/>
</g>
<!-- PrinsFrank\\Standards -->
<g id="node17" class="node">
<title>PrinsFrank\\Standards</title>
<path fill="#9999cc" stroke="#000000" d="M712,-611.7946C712,-611.7946 569,-611.7946 569,-611.7946 563,-611.7946 557,-605.7946 557,-599.7946 557,-599.7946 557,-587.7946 557,-587.7946 557,-581.7946 563,-575.7946 569,-575.7946 569,-575.7946 712,-575.7946 712,-575.7946 718,-575.7946 724,-581.7946 724,-587.7946 724,-587.7946 724,-599.7946 724,-599.7946 724,-605.7946 718,-611.7946 712,-611.7946"/>
<text text-anchor="middle" x="640.5" y="-591.2946" font-family="Times,serif" font-size="10.00" fill="#000033">PrinsFrank\Standards</text>
</g>
<!-- Apie\\CountryAndPhoneNumber&#45;&gt;PrinsFrank\\Standards -->
<g id="edge5" class="edge">
<title>Apie\\CountryAndPhoneNumber&#45;&gt;PrinsFrank\\Standards</title>
<path fill="none" stroke="#999999" d="M421.8302,-840.258C424.3285,-838.5849 426.7258,-836.7676 429,-834.7946 494.7186,-777.7801 432.4026,-712.2248 493,-649.7946 508.8491,-633.4661 529.945,-621.838 551.2132,-613.579"/>
<polygon fill="#999999" stroke="#999999" points="552.0323,-615.5148 556.9154,-611.4447 550.5599,-611.5813 552.0323,-615.5148"/>
</g>
<!-- libphonenumber\\PhoneNumberUtil -->
<g id="node18" class="node">
<title>libphonenumber\\PhoneNumberUtil</title>
<path fill="#9999cc" stroke="#000000" d="M749.5,-485.7946C749.5,-485.7946 531.5,-485.7946 531.5,-485.7946 525.5,-485.7946 519.5,-479.7946 519.5,-473.7946 519.5,-473.7946 519.5,-461.7946 519.5,-461.7946 519.5,-455.7946 525.5,-449.7946 531.5,-449.7946 531.5,-449.7946 749.5,-449.7946 749.5,-449.7946 755.5,-449.7946 761.5,-455.7946 761.5,-461.7946 761.5,-461.7946 761.5,-473.7946 761.5,-473.7946 761.5,-479.7946 755.5,-485.7946 749.5,-485.7946"/>
<text text-anchor="middle" x="640.5" y="-465.2946" font-family="Times,serif" font-size="10.00" fill="#000033">libphonenumber\PhoneNumberUtil</text>
</g>
<!-- Apie\\CountryAndPhoneNumber&#45;&gt;libphonenumber\\PhoneNumberUtil -->
<g id="edge8" class="edge">
<title>Apie\\CountryAndPhoneNumber&#45;&gt;libphonenumber\\PhoneNumberUtil</title>
<path fill="none" stroke="#999999" d="M421.7619,-841.0532C424.316,-839.1554 426.7383,-837.0745 429,-834.7946 538.8289,-724.0795 380.7948,-598.1006 493,-489.7946 499.0863,-483.9198 506.0215,-479.1862 513.4899,-475.3983"/>
<polygon fill="#999999" stroke="#999999" points="514.7534,-477.1258 519.2997,-472.6826 512.9749,-473.3209 514.7534,-477.1258"/>
</g>
<!-- libphonenumber\\PhoneNumberFormat -->
<g id="node19" class="node">
<title>libphonenumber\\PhoneNumberFormat</title>
<path fill="#9999cc" stroke="#000000" d="M757,-442.7946C757,-442.7946 524,-442.7946 524,-442.7946 518,-442.7946 512,-436.7946 512,-430.7946 512,-430.7946 512,-418.7946 512,-418.7946 512,-412.7946 518,-406.7946 524,-406.7946 524,-406.7946 757,-406.7946 757,-406.7946 763,-406.7946 769,-412.7946 769,-418.7946 769,-418.7946 769,-430.7946 769,-430.7946 769,-436.7946 763,-442.7946 757,-442.7946"/>
<text text-anchor="middle" x="640.5" y="-422.2946" font-family="Times,serif" font-size="10.00" fill="#000033">libphonenumber\PhoneNumberFormat</text>
</g>
<!-- Apie\\CountryAndPhoneNumber&#45;&gt;libphonenumber\\PhoneNumberFormat -->
<g id="edge9" class="edge">
<title>Apie\\CountryAndPhoneNumber&#45;&gt;libphonenumber\\PhoneNumberFormat</title>
<path fill="none" stroke="#999999" d="M421.8221,-841.1124C424.3588,-839.1975 426.7611,-837.097 429,-834.7946 550.8432,-709.4933 368.4668,-569.4227 493,-446.7946 497.1321,-442.7257 501.6703,-439.2004 506.5119,-436.1547"/>
<polygon fill="#999999" stroke="#999999" points="507.7474,-437.8656 511.8797,-433.035 505.6369,-434.2343 507.7474,-437.8656"/>
</g>
<!-- libphonenumber\\PhoneNumber -->
<g id="node20" class="node">
<title>libphonenumber\\PhoneNumber</title>
<path fill="#9999cc" stroke="#000000" d="M734.5,-399.7946C734.5,-399.7946 546.5,-399.7946 546.5,-399.7946 540.5,-399.7946 534.5,-393.7946 534.5,-387.7946 534.5,-387.7946 534.5,-375.7946 534.5,-375.7946 534.5,-369.7946 540.5,-363.7946 546.5,-363.7946 546.5,-363.7946 734.5,-363.7946 734.5,-363.7946 740.5,-363.7946 746.5,-369.7946 746.5,-375.7946 746.5,-375.7946 746.5,-387.7946 746.5,-387.7946 746.5,-393.7946 740.5,-399.7946 734.5,-399.7946"/>
<text text-anchor="middle" x="640.5" y="-379.2946" font-family="Times,serif" font-size="10.00" fill="#000033">libphonenumber\PhoneNumber</text>
</g>
<!-- Apie\\CountryAndPhoneNumber&#45;&gt;libphonenumber\\PhoneNumber -->
<g id="edge11" class="edge">
<title>Apie\\CountryAndPhoneNumber&#45;&gt;libphonenumber\\PhoneNumber</title>
<path fill="none" stroke="#999999" d="M421.8711,-841.1596C424.3936,-839.2311 426.7797,-837.1149 429,-834.7946 562.8869,-694.877 356.1088,-540.7742 493,-403.7946 502.9287,-393.8595 515.2732,-387.1472 528.5637,-382.7379"/>
<polygon fill="#999999" stroke="#999999" points="529.1856,-384.7438 534.3133,-380.9866 527.9617,-380.7261 529.1856,-384.7438"/>
</g>
<!-- libphonenumber\\NumberParseException -->
<g id="node21" class="node">
<title>libphonenumber\\NumberParseException</title>
<path fill="#9999cc" stroke="#000000" d="M768,-528.7946C768,-528.7946 513,-528.7946 513,-528.7946 507,-528.7946 501,-522.7946 501,-516.7946 501,-516.7946 501,-504.7946 501,-504.7946 501,-498.7946 507,-492.7946 513,-492.7946 513,-492.7946 768,-492.7946 768,-492.7946 774,-492.7946 780,-498.7946 780,-504.7946 780,-504.7946 780,-516.7946 780,-516.7946 780,-522.7946 774,-528.7946 768,-528.7946"/>
<text text-anchor="middle" x="640.5" y="-508.2946" font-family="Times,serif" font-size="10.00" fill="#000033">libphonenumber\NumberParseException</text>
</g>
<!-- Apie\\CountryAndPhoneNumber&#45;&gt;libphonenumber\\NumberParseException -->
<g id="edge12" class="edge">
<title>Apie\\CountryAndPhoneNumber&#45;&gt;libphonenumber\\NumberParseException</title>
<path fill="none" stroke="#999999" d="M421.6106,-840.8992C424.2083,-839.0459 426.6809,-837.0161 429,-834.7946 517.4323,-750.0817 412.1429,-658.7656 493,-566.7946 507.1343,-550.7175 526.3853,-539.2375 546.3117,-531.046"/>
<polygon fill="#999999" stroke="#999999" points="547.1364,-532.9782 551.9461,-528.8217 545.5941,-529.0716 547.1364,-532.9782"/>
</g>
<!-- Apie\\DateValueObjects -->
<g id="node5" class="node">
<title>Apie\\DateValueObjects</title>
<path fill="#9999cc" stroke="#000000" d="M390.5,-917.7946C390.5,-917.7946 240.5,-917.7946 240.5,-917.7946 234.5,-917.7946 228.5,-911.7946 228.5,-905.7946 228.5,-905.7946 228.5,-893.7946 228.5,-893.7946 228.5,-887.7946 234.5,-881.7946 240.5,-881.7946 240.5,-881.7946 390.5,-881.7946 390.5,-881.7946 396.5,-881.7946 402.5,-887.7946 402.5,-893.7946 402.5,-893.7946 402.5,-905.7946 402.5,-905.7946 402.5,-911.7946 396.5,-917.7946 390.5,-917.7946"/>
<text text-anchor="middle" x="315.5" y="-897.2946" font-family="Times,serif" font-size="10.00" fill="#000033">Apie\DateValueObjects</text>
</g>
<!-- Apie\\DateValueObjects&#45;&gt;Apie\\Core -->
<g id="edge13" class="edge">
<title>Apie\\DateValueObjects&#45;&gt;Apie\\Core</title>
<path fill="none" stroke="#999999" d="M402.6213,-886.4331C411.6694,-884.0054 420.6141,-881.1499 429,-877.7946 460.3633,-865.2456 460.7805,-846.9453 493,-836.7946 555.5776,-817.0795 722.5205,-828.9269 788,-824.7946 814.5745,-823.1175 844.189,-820.6248 868.2845,-818.4361"/>
<polygon fill="#999999" stroke="#999999" points="868.5027,-820.525 874.2863,-817.8869 868.1199,-816.3425 868.5027,-820.525"/>
</g>
<!-- Apie\\DateValueObjects&#45;&gt;Apie\\CompositeValueObjects -->
<g id="edge14" class="edge">
<title>Apie\\DateValueObjects&#45;&gt;Apie\\CompositeValueObjects</title>
<path fill="none" stroke="#999999" d="M402.594,-888.5393C441.2141,-883.5484 487.1356,-877.614 528.2849,-872.2962"/>
<polygon fill="#999999" stroke="#999999" points="528.6387,-874.368 534.32,-871.5163 528.1004,-870.2027 528.6387,-874.368"/>
</g>
<!-- Apie\\DateValueObjects&#45;&gt;Faker\\Generator -->
<g id="edge15" class="edge">
<title>Apie\\DateValueObjects&#45;&gt;Faker\\Generator</title>
<path fill="none" stroke="#999999" d="M402.733,-894.9086C412.6283,-891.0756 421.7445,-885.5742 429,-877.7946 588.7196,-706.537 317.6424,-510.0016 493,-354.7946 517.5447,-333.0704 757.6045,-342.5268 788,-354.7946 820.0624,-367.7351 814.1842,-391.2882 844,-408.7946 844.7798,-409.2524 845.57,-409.7016 846.3696,-410.1421"/>
<polygon fill="#999999" stroke="#999999" points="845.4739,-412.043 851.7691,-412.9266 847.3989,-408.3101 845.4739,-412.043"/>
</g>
<!-- Apie\\DateformatToRegex -->
<g id="node6" class="node">
<title>Apie\\DateformatToRegex</title>
<path fill="#9999cc" stroke="#000000" d="M719.5,-970.7946C719.5,-970.7946 561.5,-970.7946 561.5,-970.7946 555.5,-970.7946 549.5,-964.7946 549.5,-958.7946 549.5,-958.7946 549.5,-946.7946 549.5,-946.7946 549.5,-940.7946 555.5,-934.7946 561.5,-934.7946 561.5,-934.7946 719.5,-934.7946 719.5,-934.7946 725.5,-934.7946 731.5,-940.7946 731.5,-946.7946 731.5,-946.7946 731.5,-958.7946 731.5,-958.7946 731.5,-964.7946 725.5,-970.7946 719.5,-970.7946"/>
<text text-anchor="middle" x="640.5" y="-950.2946" font-family="Times,serif" font-size="10.00" fill="#000033">Apie\DateformatToRegex</text>
</g>
<!-- Apie\\DoctrineEntityConverter -->
<g id="node7" class="node">
<title>Apie\\DoctrineEntityConverter</title>
<path fill="#9999cc" stroke="#000000" d="M417,-779.7946C417,-779.7946 214,-779.7946 214,-779.7946 208,-779.7946 202,-773.7946 202,-767.7946 202,-767.7946 202,-755.7946 202,-755.7946 202,-749.7946 208,-743.7946 214,-743.7946 214,-743.7946 417,-743.7946 417,-743.7946 423,-743.7946 429,-749.7946 429,-755.7946 429,-755.7946 429,-767.7946 429,-767.7946 429,-773.7946 423,-779.7946 417,-779.7946"/>
<text text-anchor="middle" x="315.5" y="-759.2946" font-family="Times,serif" font-size="10.00" fill="#000033">Apie\DoctrineEntityConverter</text>
</g>
<!-- Apie\\DoctrineEntityConverter&#45;&gt;Apie\\CommonValueObjects -->
<g id="edge19" class="edge">
<title>Apie\\DoctrineEntityConverter&#45;&gt;Apie\\CommonValueObjects</title>
<path fill="none" stroke="#999999" d="M429.1692,-770.8881C465.2476,-773.7744 504.8661,-776.9439 539.9528,-779.7508"/>
<polygon fill="#999999" stroke="#999999" points="539.8467,-781.8489 545.9951,-780.2342 540.1817,-777.6623 539.8467,-781.8489"/>
</g>
<!-- Apie\\DoctrineEntityConverter&#45;&gt;Apie\\Core -->
<g id="edge16" class="edge">
<title>Apie\\DoctrineEntityConverter&#45;&gt;Apie\\Core</title>
<path fill="none" stroke="#999999" d="M429.0703,-758.5858C546.5224,-756.0574 721.8248,-754.7108 788,-766.7946 816.881,-772.0683 847.826,-783.2046 872.1106,-793.3135"/>
<polygon fill="#999999" stroke="#999999" points="871.4738,-795.324 877.8183,-795.7214 873.1064,-791.4543 871.4738,-795.324"/>
</g>
<!-- Nette\\PhpGenerator -->
<g id="node22" class="node">
<title>Nette\\PhpGenerator</title>
<path fill="#9999cc" stroke="#000000" d="M704.5,-300.7946C704.5,-300.7946 576.5,-300.7946 576.5,-300.7946 570.5,-300.7946 564.5,-294.7946 564.5,-288.7946 564.5,-288.7946 564.5,-276.7946 564.5,-276.7946 564.5,-270.7946 570.5,-264.7946 576.5,-264.7946 576.5,-264.7946 704.5,-264.7946 704.5,-264.7946 710.5,-264.7946 716.5,-270.7946 716.5,-276.7946 716.5,-276.7946 716.5,-288.7946 716.5,-288.7946 716.5,-294.7946 710.5,-300.7946 704.5,-300.7946"/>
<text text-anchor="middle" x="640.5" y="-280.2946" font-family="Times,serif" font-size="10.00" fill="#000033">Nette\PhpGenerator</text>
</g>
<!-- Apie\\DoctrineEntityConverter&#45;&gt;Nette\\PhpGenerator -->
<g id="edge17" class="edge">
<title>Apie\\DoctrineEntityConverter&#45;&gt;Nette\\PhpGenerator</title>
<path fill="none" stroke="#999999" d="M317.9496,-743.6947C327.5929,-679.3157 368.7101,-458.8741 493,-338.7946 510.9786,-321.425 534.885,-309.3227 558.2076,-300.9397"/>
<polygon fill="#999999" stroke="#999999" points="559.1407,-302.8388 564.1205,-298.8876 557.7637,-298.871 559.1407,-302.8388"/>
</g>
<!-- Doctrine\\ORM -->
<g id="node23" class="node">
<title>Doctrine\\ORM</title>
<path fill="#9999cc" stroke="#000000" d="M682,-217.7946C682,-217.7946 599,-217.7946 599,-217.7946 593,-217.7946 587,-211.7946 587,-205.7946 587,-205.7946 587,-193.7946 587,-193.7946 587,-187.7946 593,-181.7946 599,-181.7946 599,-181.7946 682,-181.7946 682,-181.7946 688,-181.7946 694,-187.7946 694,-193.7946 694,-193.7946 694,-205.7946 694,-205.7946 694,-211.7946 688,-217.7946 682,-217.7946"/>
<text text-anchor="middle" x="640.5" y="-197.2946" font-family="Times,serif" font-size="10.00" fill="#000033">Doctrine\ORM</text>
</g>
<!-- Apie\\DoctrineEntityConverter&#45;&gt;Doctrine\\ORM -->
<g id="edge18" class="edge">
<title>Apie\\DoctrineEntityConverter&#45;&gt;Doctrine\\ORM</title>
<path fill="none" stroke="#999999" d="M316.5268,-743.782C321.5743,-671.9553 349.7087,-402.783 493,-255.7946 516.3924,-231.7986 551.1141,-217.9482 580.9938,-210.0267"/>
<polygon fill="#999999" stroke="#999999" points="581.6055,-212.038 586.9004,-208.5202 580.5675,-207.9682 581.6055,-212.038"/>
</g>
<!-- Apie\\Faker -->
<g id="node8" class="node">
<title>Apie\\Faker</title>
<path fill="#9999cc" stroke="#000000" d="M349.5,-831.7946C349.5,-831.7946 281.5,-831.7946 281.5,-831.7946 275.5,-831.7946 269.5,-825.7946 269.5,-819.7946 269.5,-819.7946 269.5,-807.7946 269.5,-807.7946 269.5,-801.7946 275.5,-795.7946 281.5,-795.7946 281.5,-795.7946 349.5,-795.7946 349.5,-795.7946 355.5,-795.7946 361.5,-801.7946 361.5,-807.7946 361.5,-807.7946 361.5,-819.7946 361.5,-819.7946 361.5,-825.7946 355.5,-831.7946 349.5,-831.7946"/>
<text text-anchor="middle" x="315.5" y="-811.2946" font-family="Times,serif" font-size="10.00" fill="#000033">Apie\Faker</text>
</g>
<!-- Apie\\Faker&#45;&gt;Apie\\CommonValueObjects -->
<g id="edge22" class="edge">
<title>Apie\\Faker&#45;&gt;Apie\\CommonValueObjects</title>
<path fill="none" stroke="#999999" d="M361.7194,-810.097C407.8888,-806.4035 480.3566,-800.606 539.8348,-795.8478"/>
<polygon fill="#999999" stroke="#999999" points="540.1019,-797.9332 545.9153,-795.3613 539.7669,-793.7466 540.1019,-797.9332"/>
</g>
<!-- Apie\\Faker&#45;&gt;Apie\\Core -->
<g id="edge20" class="edge">
<title>Apie\\Faker&#45;&gt;Apie\\Core</title>
<path fill="none" stroke="#999999" d="M361.6615,-813.7946C472.8053,-813.7946 754.4575,-813.7946 867.9756,-813.7946"/>
<polygon fill="#999999" stroke="#999999" points="868.2314,-815.8947 874.2314,-813.7946 868.2313,-811.6947 868.2314,-815.8947"/>
</g>
<!-- Apie\\Faker&#45;&gt;Faker\\Generator -->
<g id="edge21" class="edge">
<title>Apie\\Faker&#45;&gt;Faker\\Generator</title>
<path fill="none" stroke="#999999" d="M361.5089,-813.4334C385.1951,-810.6872 412.4909,-803.0649 429,-783.7946 517.8206,-680.1183 391.5616,-264.1626 493,-172.7946 517.3548,-150.8576 762.2859,-152.4681 788,-172.7946 872.5701,-239.6454 770.158,-330.2548 844,-408.7946 844.8785,-409.7289 845.7952,-410.624 846.746,-411.4815"/>
<polygon fill="#999999" stroke="#999999" points="845.7587,-413.3789 851.7643,-415.4629 848.3691,-410.0886 845.7587,-413.3789"/>
</g>
<!-- Apie\\Fixtures -->
<g id="node9" class="node">
<title>Apie\\Fixtures</title>
<path fill="#9999cc" stroke="#000000" d="M118,-805.7946C118,-805.7946 28,-805.7946 28,-805.7946 22,-805.7946 16,-799.7946 16,-793.7946 16,-793.7946 16,-781.7946 16,-781.7946 16,-775.7946 22,-769.7946 28,-769.7946 28,-769.7946 118,-769.7946 118,-769.7946 124,-769.7946 130,-775.7946 130,-781.7946 130,-781.7946 130,-793.7946 130,-793.7946 130,-799.7946 124,-805.7946 118,-805.7946"/>
<text text-anchor="middle" x="73" y="-785.2946" font-family="Times,serif" font-size="10.00" fill="#000033">Apie\Fixtures</text>
</g>
<!-- Apie\\Fixtures&#45;&gt;Apie\\CommonValueObjects -->
<g id="edge24" class="edge">
<title>Apie\\Fixtures&#45;&gt;Apie\\CommonValueObjects</title>
<path fill="none" stroke="#999999" d="M130.0124,-787.7946C225.7618,-787.7946 420.0814,-787.7946 539.4192,-787.7946"/>
<polygon fill="#999999" stroke="#999999" points="539.752,-789.8947 545.752,-787.7946 539.752,-785.6947 539.752,-789.8947"/>
</g>
<!-- Apie\\Fixtures&#45;&gt;Apie\\Core -->
<g id="edge23" class="edge">
<title>Apie\\Fixtures&#45;&gt;Apie\\Core</title>
<path fill="none" stroke="#999999" d="M111.5374,-769.7281C136.676,-758.9632 170.5459,-746.3461 202,-740.7946 301.3533,-723.2591 328.2607,-735.3018 429,-740.7946 457.5716,-742.3524 464.4589,-745.7529 493,-747.7946 558.426,-752.4748 724.0228,-743.3245 788,-757.7946 819.9971,-765.0315 853.9275,-780.1749 878.8828,-792.8912"/>
<polygon fill="#999999" stroke="#999999" points="878.0911,-794.8457 884.3861,-795.7303 880.0167,-791.1132 878.0911,-794.8457"/>
</g>
<!-- Apie\\Fixtures&#45;&gt;Apie\\CompositeValueObjects -->
<g id="edge25" class="edge">
<title>Apie\\Fixtures&#45;&gt;Apie\\CompositeValueObjects</title>
<path fill="none" stroke="#999999" d="M83.6816,-805.9727C102.8426,-836.5461 146.3071,-897.2262 202,-920.7946 225.2279,-930.6243 404.7943,-927.883 429,-920.7946 461.4192,-911.3008 461.3718,-891.6601 493,-879.7946 504.2494,-875.5743 516.2673,-872.1611 528.4053,-869.4011"/>
<polygon fill="#999999" stroke="#999999" points="528.9572,-871.4302 534.3708,-868.098 528.0609,-867.3269 528.9572,-871.4302"/>
</g>
<!-- Apie\\Fixtures&#45;&gt;Apie\\Faker -->
<g id="edge27" class="edge">
<title>Apie\\Fixtures&#45;&gt;Apie\\Faker</title>
<path fill="none" stroke="#999999" d="M130.162,-793.9233C170.4355,-798.2413 223.9469,-803.9786 263.1149,-808.178"/>
<polygon fill="#999999" stroke="#999999" points="263.0841,-810.2867 269.2738,-808.8384 263.5319,-806.1106 263.0841,-810.2867"/>
</g>
<!-- Apie\\TextValueObjects -->
<g id="node10" class="node">
<title>Apie\\TextValueObjects</title>
<path fill="#9999cc" stroke="#000000" d="M715.5,-701.7946C715.5,-701.7946 565.5,-701.7946 565.5,-701.7946 559.5,-701.7946 553.5,-695.7946 553.5,-689.7946 553.5,-689.7946 553.5,-677.7946 553.5,-677.7946 553.5,-671.7946 559.5,-665.7946 565.5,-665.7946 565.5,-665.7946 715.5,-665.7946 715.5,-665.7946 721.5,-665.7946 727.5,-671.7946 727.5,-677.7946 727.5,-677.7946 727.5,-689.7946 727.5,-689.7946 727.5,-695.7946 721.5,-701.7946 715.5,-701.7946"/>
<text text-anchor="middle" x="640.5" y="-681.2946" font-family="Times,serif" font-size="10.00" fill="#000033">Apie\TextValueObjects</text>
</g>
<!-- Apie\\Fixtures&#45;&gt;Apie\\TextValueObjects -->
<g id="edge29" class="edge">
<title>Apie\\Fixtures&#45;&gt;Apie\\TextValueObjects</title>
<path fill="none" stroke="#999999" d="M108.4689,-769.7311C133.8654,-757.6047 169.2261,-742.3375 202,-733.7946 318.6911,-703.3776 457.6367,-691.4624 547.3695,-686.7962"/>
<polygon fill="#999999" stroke="#999999" points="547.5904,-688.8878 553.476,-686.4859 547.3772,-684.6932 547.5904,-688.8878"/>
</g>
<!-- Apie\\Fixtures&#45;&gt;Faker\\Generator -->
<g id="edge26" class="edge">
<title>Apie\\Fixtures&#45;&gt;Faker\\Generator</title>
<path fill="none" stroke="#999999" d="M76.828,-769.5701C97.8309,-674.7968 208.6819,-236.4092 493,-73.7946 606.8109,-8.7008 687.9391,10.9281 788,-73.7946 903.2052,-171.3401 744.3599,-295.3961 844,-408.7946 844.8791,-409.795 845.802,-410.7508 846.764,-411.6637"/>
<polygon fill="#999999" stroke="#999999" points="845.9119,-413.6832 851.8767,-415.8815 848.5847,-410.4434 845.9119,-413.6832"/>
</g>
<!-- Faker\\Factory -->
<g id="node16" class="node">
<title>Faker\\Factory</title>
<path fill="#9999cc" stroke="#000000" d="M961.5,-405.7946C961.5,-405.7946 871.5,-405.7946 871.5,-405.7946 865.5,-405.7946 859.5,-399.7946 859.5,-393.7946 859.5,-393.7946 859.5,-381.7946 859.5,-381.7946 859.5,-375.7946 865.5,-369.7946 871.5,-369.7946 871.5,-369.7946 961.5,-369.7946 961.5,-369.7946 967.5,-369.7946 973.5,-375.7946 973.5,-381.7946 973.5,-381.7946 973.5,-393.7946 973.5,-393.7946 973.5,-399.7946 967.5,-405.7946 961.5,-405.7946"/>
<text text-anchor="middle" x="916.5" y="-385.2946" font-family="Times,serif" font-size="10.00" fill="#000033">Faker\Factory</text>
</g>
<!-- Apie\\Fixtures&#45;&gt;Faker\\Factory -->
<g id="edge28" class="edge">
<title>Apie\\Fixtures&#45;&gt;Faker\\Factory</title>
<path fill="none" stroke="#999999" d="M76.828,-769.5701C97.8309,-674.7968 208.6819,-236.4092 493,-73.7946 606.8109,-8.7008 679.1404,-.7213 788,-73.7946 888.2707,-141.1024 910.3529,-302.0074 915.1713,-363.4129"/>
<polygon fill="#999999" stroke="#999999" points="913.1003,-363.8886 915.6321,-369.7196 917.2892,-363.5824 913.1003,-363.8886"/>
</g>
<!-- Apie\\TextValueObjects&#45;&gt;Apie\\Core -->
<g id="edge37" class="edge">
<title>Apie\\TextValueObjects&#45;&gt;Apie\\Core</title>
<path fill="none" stroke="#999999" d="M727.788,-688.7478C748.1684,-692.0762 769.3531,-697.389 788,-705.7946 832.5192,-725.8627 873.814,-765.9329 897.0308,-791.2211"/>
<polygon fill="#999999" stroke="#999999" points="895.5649,-792.7307 901.1522,-795.7628 898.6752,-789.9083 895.5649,-792.7307"/>
</g>
<!-- Apie\\TextValueObjects&#45;&gt;Faker\\Generator -->
<g id="edge38" class="edge">
<title>Apie\\TextValueObjects&#45;&gt;Faker\\Generator</title>
<path fill="none" stroke="#999999" d="M727.7488,-682.5709C748.9074,-678.9163 770.4607,-672.0628 788,-659.7946 806.9611,-646.5318 876.6695,-510.2719 904.7064,-454.4488"/>
<polygon fill="#999999" stroke="#999999" points="906.6313,-455.295 907.4439,-448.9902 902.8769,-453.4122 906.6313,-455.295"/>
</g>
<!-- Apie\\RegexValueObjects -->
<g id="node11" class="node">
<title>Apie\\RegexValueObjects</title>
<path fill="#9999cc" stroke="#000000" d="M719.5,-744.7946C719.5,-744.7946 561.5,-744.7946 561.5,-744.7946 555.5,-744.7946 549.5,-738.7946 549.5,-732.7946 549.5,-732.7946 549.5,-720.7946 549.5,-720.7946 549.5,-714.7946 555.5,-708.7946 561.5,-708.7946 561.5,-708.7946 719.5,-708.7946 719.5,-708.7946 725.5,-708.7946 731.5,-714.7946 731.5,-720.7946 731.5,-720.7946 731.5,-732.7946 731.5,-732.7946 731.5,-738.7946 725.5,-744.7946 719.5,-744.7946"/>
<text text-anchor="middle" x="640.5" y="-724.2946" font-family="Times,serif" font-size="10.00" fill="#000033">Apie\RegexValueObjects</text>
</g>
<!-- Apie\\RegexValueObjects&#45;&gt;Apie\\Core -->
<g id="edge30" class="edge">
<title>Apie\\RegexValueObjects&#45;&gt;Apie\\Core</title>
<path fill="none" stroke="#999999" d="M731.5866,-737.3051C750.478,-740.6804 770.0787,-745.0822 788,-750.7946 820.6819,-761.2119 855.486,-778.7159 880.6183,-792.6332"/>
<polygon fill="#999999" stroke="#999999" points="879.8874,-794.6305 886.1495,-795.7248 881.9366,-790.9643 879.8874,-794.6305"/>
</g>
<!-- Apie\\RegexValueObjects&#45;&gt;Faker\\Generator -->
<g id="edge31" class="edge">
<title>Apie\\RegexValueObjects&#45;&gt;Faker\\Generator</title>
<path fill="none" stroke="#999999" d="M731.6955,-727.6446C751.8214,-724.0864 771.9121,-717.2147 788,-704.7946 838.1205,-666.1007 817.225,-631.1739 844,-573.7946 863.8622,-531.2294 889.0414,-482.6444 903.8975,-454.4712"/>
<polygon fill="#999999" stroke="#999999" points="905.7804,-455.4026 906.7264,-449.1165 902.0668,-453.4407 905.7804,-455.4026"/>
</g>
<!-- Apie\\SchemaGenerator -->
<g id="node12" class="node">
<title>Apie\\SchemaGenerator</title>
<path fill="#9999cc" stroke="#000000" d="M387,-969.7946C387,-969.7946 244,-969.7946 244,-969.7946 238,-969.7946 232,-963.7946 232,-957.7946 232,-957.7946 232,-945.7946 232,-945.7946 232,-939.7946 238,-933.7946 244,-933.7946 244,-933.7946 387,-933.7946 387,-933.7946 393,-933.7946 399,-939.7946 399,-945.7946 399,-945.7946 399,-957.7946 399,-957.7946 399,-963.7946 393,-969.7946 387,-969.7946"/>
<text text-anchor="middle" x="315.5" y="-949.2946" font-family="Times,serif" font-size="10.00" fill="#000033">Apie\SchemaGenerator</text>
</g>
<!-- Apie\\SchemaGenerator&#45;&gt;Apie\\Core -->
<g id="edge34" class="edge">
<title>Apie\\SchemaGenerator&#45;&gt;Apie\\Core</title>
<path fill="none" stroke="#999999" d="M399.3464,-940.9824C428.8985,-937.5337 462.381,-934.0351 493,-931.7946 525.7092,-929.4011 757.3804,-933.5445 788,-921.7946 833.8479,-904.201 875.0151,-862.9738 897.7982,-836.8498"/>
<polygon fill="#999999" stroke="#999999" points="899.5145,-838.0748 901.8354,-832.1567 896.3305,-835.3358 899.5145,-838.0748"/>
</g>
<!-- Apie\\SchemaGenerator&#45;&gt;Apie\\CompositeValueObjects -->
<g id="edge33" class="edge">
<title>Apie\\SchemaGenerator&#45;&gt;Apie\\CompositeValueObjects</title>
<path fill="none" stroke="#999999" d="M399.2864,-938.4371C409.5145,-935.5442 419.6461,-932.0386 429,-927.7946 461.3787,-913.1037 460.193,-893.5023 493,-879.7946 504.1888,-875.1195 516.2207,-871.4188 528.4126,-868.4922"/>
<polygon fill="#999999" stroke="#999999" points="529.0291,-870.5054 534.4076,-867.1169 528.0899,-866.4118 529.0291,-870.5054"/>
</g>
<!-- Apie\\SchemaGenerator&#45;&gt;Apie\\DateformatToRegex -->
<g id="edge35" class="edge">
<title>Apie\\SchemaGenerator&#45;&gt;Apie\\DateformatToRegex</title>
<path fill="none" stroke="#999999" d="M399.1956,-952.0521C443.2044,-952.1875 497.388,-952.3542 543.2542,-952.4954"/>
<polygon fill="#999999" stroke="#999999" points="543.3736,-954.5956 549.3801,-952.5142 543.3866,-950.3957 543.3736,-954.5956"/>
</g>
<!-- cebe\\openapi -->
<g id="node24" class="node">
<title>cebe\\openapi</title>
<path fill="#9999cc" stroke="#000000" d="M682,-118.7946C682,-118.7946 599,-118.7946 599,-118.7946 593,-118.7946 587,-112.7946 587,-106.7946 587,-106.7946 587,-94.7946 587,-94.7946 587,-88.7946 593,-82.7946 599,-82.7946 599,-82.7946 682,-82.7946 682,-82.7946 688,-82.7946 694,-88.7946 694,-94.7946 694,-94.7946 694,-106.7946 694,-106.7946 694,-112.7946 688,-118.7946 682,-118.7946"/>
<text text-anchor="middle" x="640.5" y="-98.2946" font-family="Times,serif" font-size="10.00" fill="#000033">cebe\openapi</text>
</g>
<!-- Apie\\SchemaGenerator&#45;&gt;cebe\\openapi -->
<g id="edge32" class="edge">
<title>Apie\\SchemaGenerator&#45;&gt;cebe\\openapi</title>
<path fill="none" stroke="#999999" d="M399.1003,-942.5463C410.5452,-937.8891 421.0674,-931.2351 429,-921.7946 536.4656,-793.8995 398.5432,-310.5768 493,-172.7946 513.3256,-143.146 549.4356,-125.2341 580.8383,-114.6912"/>
<polygon fill="#999999" stroke="#999999" points="581.5838,-116.6572 586.6423,-112.8072 580.287,-112.6624 581.5838,-116.6572"/>
</g>
<!-- Apie\\Serializer -->
<g id="node13" class="node">
<title>Apie\\Serializer</title>
<path fill="#9999cc" stroke="#000000" d="M693,-918.7946C693,-918.7946 588,-918.7946 588,-918.7946 582,-918.7946 576,-912.7946 576,-906.7946 576,-906.7946 576,-894.7946 576,-894.7946 576,-888.7946 582,-882.7946 588,-882.7946 588,-882.7946 693,-882.7946 693,-882.7946 699,-882.7946 705,-888.7946 705,-894.7946 705,-894.7946 705,-906.7946 705,-906.7946 705,-912.7946 699,-918.7946 693,-918.7946"/>
<text text-anchor="middle" x="640.5" y="-898.2946" font-family="Times,serif" font-size="10.00" fill="#000033">Apie\Serializer</text>
</g>
<!-- Apie\\Serializer&#45;&gt;Apie\\Core -->
<g id="edge36" class="edge">
<title>Apie\\Serializer&#45;&gt;Apie\\Core</title>
<path fill="none" stroke="#999999" d="M705.0432,-895.697C731.2217,-892.4685 761.4786,-887.237 788,-878.7946 821.5837,-868.104 857.1467,-849.4767 882.3251,-834.8957"/>
<polygon fill="#999999" stroke="#999999" points="883.4155,-836.6908 887.5358,-831.8499 881.296,-833.0648 883.4155,-836.6908"/>
</g>
</g>
</svg>
