<?xml version="1.0" encoding="UTF-8" standalone="no"?>
<!DOCTYPE svg PUBLIC "-//W3C//DTD SVG 1.1//EN"
 "http://www.w3.org/Graphics/SVG/1.1/DTD/svg11.dtd">
<!-- Generated by graphviz version 2.40.1 (0)
 -->
<!-- Title: G Pages: 1 -->
<svg width="1028pt" height="1075pt"
 viewBox="0.00 0.00 1028.00 1075.00" xmlns="http://www.w3.org/2000/svg" xmlns:xlink="http://www.w3.org/1999/xlink">
<g id="graph0" class="graph" transform="scale(1 1) rotate(0) translate(4 1071)">
<title>G</title>
<polygon fill="#ffffff" stroke="transparent" points="-4,4 -4,-1071 1024,-1071 1024,4 -4,4"/>
<text text-anchor="middle" x="510" y="-6.6" font-family="Times,serif" font-size="8.00" fill="#000000">PhpDependencyAnalysis by Marco Muths v2.0.2</text>
<g id="clust1" class="cluster">
<title>cluster_0</title>
<path fill="#ccccff" stroke="#000033" d="M20,-630C20,-630 765,-630 765,-630 771,-630 777,-636 777,-642 777,-642 777,-1047 777,-1047 777,-1053 771,-1059 765,-1059 765,-1059 20,-1059 20,-1059 14,-1059 8,-1053 8,-1047 8,-1047 8,-642 8,-642 8,-636 14,-630 20,-630"/>
<text text-anchor="middle" x="31.5" y="-1043.8" font-family="Times,serif" font-size="14.00" fill="#000033">Apie</text>
</g>
<g id="clust2" class="cluster">
<title>cluster_1</title>
<path fill="#ccccff" stroke="#000033" d="M659,-252C659,-252 795,-252 795,-252 801,-252 807,-258 807,-264 807,-264 807,-315 807,-315 807,-321 801,-327 795,-327 795,-327 659,-327 659,-327 653,-327 647,-321 647,-315 647,-315 647,-264 647,-264 647,-258 653,-252 659,-252"/>
<text text-anchor="middle" x="681.5" y="-311.8" font-family="Times,serif" font-size="14.00" fill="#000033">Symfony</text>
</g>
<g id="clust3" class="cluster">
<title>cluster_2</title>
<path fill="#ccccff" stroke="#000033" d="M894,-828C894,-828 985,-828 985,-828 991,-828 997,-834 997,-840 997,-840 997,-891 997,-891 997,-897 991,-903 985,-903 985,-903 894,-903 894,-903 888,-903 882,-897 882,-891 882,-891 882,-840 882,-840 882,-834 888,-828 894,-828"/>
<text text-anchor="middle" x="913" y="-887.8" font-family="Times,serif" font-size="14.00" fill="#000033">Ramsey</text>
</g>
<g id="clust4" class="cluster">
<title>cluster_3</title>
<path fill="#ccccff" stroke="#000033" d="M879,-262C879,-262 1000,-262 1000,-262 1006,-262 1012,-268 1012,-274 1012,-274 1012,-368 1012,-368 1012,-374 1006,-380 1000,-380 1000,-380 879,-380 879,-380 873,-380 867,-374 867,-368 867,-368 867,-274 867,-274 867,-268 873,-262 879,-262"/>
<text text-anchor="middle" x="894" y="-364.8" font-family="Times,serif" font-size="14.00" fill="#000033">Faker</text>
</g>
<g id="clust5" class="cluster">
<title>cluster_4</title>
<path fill="#ccccff" stroke="#000033" d="M360,-525C360,-525 519,-525 519,-525 525,-525 531,-531 531,-537 531,-537 531,-588 531,-588 531,-594 525,-600 519,-600 519,-600 360,-600 360,-600 354,-600 348,-594 348,-588 348,-588 348,-537 348,-537 348,-531 354,-525 360,-525"/>
<text text-anchor="middle" x="394" y="-584.8" font-family="Times,serif" font-size="14.00" fill="#000033">PrinsFrank</text>
</g>
<g id="clust6" class="cluster">
<title>cluster_5</title>
<path fill="#ccccff" stroke="#000033" d="M304,-313C304,-313 575,-313 575,-313 581,-313 587,-319 587,-325 587,-325 587,-505 587,-505 587,-511 581,-517 575,-517 575,-517 304,-517 304,-517 298,-517 292,-511 292,-505 292,-505 292,-325 292,-325 292,-319 298,-313 304,-313"/>
<text text-anchor="middle" x="353" y="-501.8" font-family="Times,serif" font-size="14.00" fill="#000033">libphonenumber</text>
</g>
<g id="clust7" class="cluster">
<title>cluster_6</title>
<path fill="#ccccff" stroke="#000033" d="M655,-547C655,-547 799,-547 799,-547 805,-547 811,-553 811,-559 811,-559 811,-610 811,-610 811,-616 805,-622 799,-622 799,-622 655,-622 655,-622 649,-622 643,-616 643,-610 643,-610 643,-559 643,-559 643,-553 649,-547 655,-547"/>
<text text-anchor="middle" x="670" y="-606.8" font-family="Times,serif" font-size="14.00" fill="#000033">Nette</text>
</g>
<g id="clust8" class="cluster">
<title>cluster_7</title>
<path fill="#ccccff" stroke="#000033" d="M677.5,-464C677.5,-464 776.5,-464 776.5,-464 782.5,-464 788.5,-470 788.5,-476 788.5,-476 788.5,-527 788.5,-527 788.5,-533 782.5,-539 776.5,-539 776.5,-539 677.5,-539 677.5,-539 671.5,-539 665.5,-533 665.5,-527 665.5,-527 665.5,-476 665.5,-476 665.5,-470 671.5,-464 677.5,-464"/>
<text text-anchor="middle" x="704" y="-523.8" font-family="Times,serif" font-size="14.00" fill="#000033">Doctrine</text>
</g>
<g id="clust9" class="cluster">
<title>cluster_8</title>
<path fill="#ccccff" stroke="#000033" d="M390,-108C390,-108 489,-108 489,-108 495,-108 501,-114 501,-120 501,-120 501,-171 501,-171 501,-177 495,-183 489,-183 489,-183 390,-183 390,-183 384,-183 378,-177 378,-171 378,-171 378,-120 378,-120 378,-114 384,-108 390,-108"/>
<text text-anchor="middle" x="401.5" y="-167.8" font-family="Times,serif" font-size="14.00" fill="#000033">cebe</text>
</g>
<g id="clust10" class="cluster">
<title>cluster_9</title>
<path fill="#ccccff" stroke="#000033" d="M345,-25C345,-25 534,-25 534,-25 540,-25 546,-31 546,-37 546,-37 546,-88 546,-88 546,-94 540,-100 534,-100 534,-100 345,-100 345,-100 339,-100 333,-94 333,-88 333,-88 333,-37 333,-37 333,-31 339,-25 345,-25"/>
<text text-anchor="middle" x="364" y="-84.8" font-family="Times,serif" font-size="14.00" fill="#000033">League</text>
</g>
<g id="clust11" class="cluster">
<title>cluster_10</title>
<path fill="#ccccff" stroke="#000033" d="M692.5,-335C692.5,-335 761.5,-335 761.5,-335 767.5,-335 773.5,-341 773.5,-347 773.5,-347 773.5,-398 773.5,-398 773.5,-404 767.5,-410 761.5,-410 761.5,-410 692.5,-410 692.5,-410 686.5,-410 680.5,-404 680.5,-398 680.5,-398 680.5,-347 680.5,-347 680.5,-341 686.5,-335 692.5,-335"/>
<text text-anchor="middle" x="700" y="-394.8" font-family="Times,serif" font-size="14.00" fill="#000033">Psr</text>
</g>
<!-- Apie\\ApieBundle -->
<g id="node1" class="node">
<title>Apie\\ApieBundle</title>
<path fill="#9999cc" stroke="#000000" d="M174.5,-1028C174.5,-1028 69.5,-1028 69.5,-1028 63.5,-1028 57.5,-1022 57.5,-1016 57.5,-1016 57.5,-1004 57.5,-1004 57.5,-998 63.5,-992 69.5,-992 69.5,-992 174.5,-992 174.5,-992 180.5,-992 186.5,-998 186.5,-1004 186.5,-1004 186.5,-1016 186.5,-1016 186.5,-1022 180.5,-1028 174.5,-1028"/>
<text text-anchor="middle" x="122" y="-1007.5" font-family="Times,serif" font-size="10.00" fill="#000033">Apie\ApieBundle</text>
</g>
<!-- Apie\\RestApi -->
<g id="node2" class="node">
<title>Apie\\RestApi</title>
<path fill="#9999cc" stroke="#000000" d="M481,-1011C481,-1011 398,-1011 398,-1011 392,-1011 386,-1005 386,-999 386,-999 386,-987 386,-987 386,-981 392,-975 398,-975 398,-975 481,-975 481,-975 487,-975 493,-981 493,-987 493,-987 493,-999 493,-999 493,-1005 487,-1011 481,-1011"/>
<text text-anchor="middle" x="439.5" y="-990.5" font-family="Times,serif" font-size="10.00" fill="#000033">Apie\RestApi</text>
</g>
<!-- Apie\\ApieBundle&#45;&gt;Apie\\RestApi -->
<g id="edge2" class="edge">
<title>Apie\\ApieBundle&#45;&gt;Apie\\RestApi</title>
<path fill="none" stroke="#999999" d="M186.6336,-1006.5393C243.1117,-1003.5153 324.4637,-999.1594 379.519,-996.2116"/>
<polygon fill="#999999" stroke="#999999" points="379.8852,-998.2951 385.7643,-995.8772 379.6606,-994.1011 379.8852,-998.2951"/>
</g>
<!-- Apie\\Core -->
<g id="node3" class="node">
<title>Apie\\Core</title>
<path fill="#9999cc" stroke="#000000" d="M757,-872C757,-872 697,-872 697,-872 691,-872 685,-866 685,-860 685,-860 685,-848 685,-848 685,-842 691,-836 697,-836 697,-836 757,-836 757,-836 763,-836 769,-842 769,-848 769,-848 769,-860 769,-860 769,-866 763,-872 757,-872"/>
<text text-anchor="middle" x="727" y="-851.5" font-family="Times,serif" font-size="10.00" fill="#000033">Apie\Core</text>
</g>
<!-- Apie\\ApieBundle&#45;&gt;Apie\\Core -->
<g id="edge3" class="edge">
<title>Apie\\ApieBundle&#45;&gt;Apie\\Core</title>
<path fill="none" stroke="#999999" d="M186.7913,-1026.9873C280.0064,-1047.8941 455.2201,-1073.7975 587,-1014 649.0549,-985.8415 694.4187,-915.0809 714.8909,-877.8115"/>
<polygon fill="#999999" stroke="#999999" points="716.9566,-878.4062 717.9616,-872.1293 713.2616,-876.4094 716.9566,-878.4062"/>
</g>
<!-- Symfony\\Component -->
<g id="node15" class="node">
<title>Symfony\\Component</title>
<path fill="#9999cc" stroke="#000000" d="M787,-296C787,-296 667,-296 667,-296 661,-296 655,-290 655,-284 655,-284 655,-272 655,-272 655,-266 661,-260 667,-260 667,-260 787,-260 787,-260 793,-260 799,-266 799,-272 799,-272 799,-284 799,-284 799,-290 793,-296 787,-296"/>
<text text-anchor="middle" x="727" y="-275.5" font-family="Times,serif" font-size="10.00" fill="#000033">Symfony\Component</text>
</g>
<!-- Apie\\ApieBundle&#45;&gt;Symfony\\Component -->
<g id="edge1" class="edge">
<title>Apie\\ApieBundle&#45;&gt;Symfony\\Component</title>
<path fill="none" stroke="#999999" d="M186.6016,-1008.8005C201.9579,-1005.4836 217.044,-999.2366 228,-988 339.3113,-873.8378 172.7804,-740.8768 292,-635 341.1076,-591.3884 537.545,-660.2173 587,-617 683.5468,-532.6304 571.7638,-440.6064 643,-334 652.5401,-319.7231 667.0803,-308.1722 681.3965,-299.3517"/>
<polygon fill="#999999" stroke="#999999" points="682.5684,-301.0981 686.6511,-296.2256 680.4209,-297.4886 682.5684,-301.0981"/>
</g>
<!-- Apie\\RestApi&#45;&gt;Apie\\Core -->
<g id="edge31" class="edge">
<title>Apie\\RestApi&#45;&gt;Apie\\Core</title>
<path fill="none" stroke="#999999" d="M493.3233,-991.0057C522.1616,-988.2946 557.6841,-982.2497 587,-969 635.7715,-946.9571 681.5594,-903.411 706.7832,-876.6852"/>
<polygon fill="#999999" stroke="#999999" points="708.39,-878.0414 710.951,-872.2231 705.3207,-875.1744 708.39,-878.0414"/>
</g>
<!-- Ramsey\\Uuid -->
<g id="node16" class="node">
<title>Ramsey\\Uuid</title>
<path fill="#9999cc" stroke="#000000" d="M977,-872C977,-872 902,-872 902,-872 896,-872 890,-866 890,-860 890,-860 890,-848 890,-848 890,-842 896,-836 902,-836 902,-836 977,-836 977,-836 983,-836 989,-842 989,-848 989,-848 989,-860 989,-860 989,-866 983,-872 977,-872"/>
<text text-anchor="middle" x="939.5" y="-851.5" font-family="Times,serif" font-size="10.00" fill="#000033">Ramsey\Uuid</text>
</g>
<!-- Apie\\Core&#45;&gt;Ramsey\\Uuid -->
<g id="edge5" class="edge">
<title>Apie\\Core&#45;&gt;Ramsey\\Uuid</title>
<path fill="none" stroke="#999999" d="M769.2372,-854C802.0754,-854 847.9195,-854 883.7656,-854"/>
<polygon fill="#999999" stroke="#999999" points="883.882,-856.1001 889.882,-854 883.882,-851.9001 883.882,-856.1001"/>
</g>
<!-- Faker\\Generator -->
<g id="node17" class="node">
<title>Faker\\Generator</title>
<path fill="#9999cc" stroke="#000000" d="M992,-349C992,-349 887,-349 887,-349 881,-349 875,-343 875,-337 875,-337 875,-325 875,-325 875,-319 881,-313 887,-313 887,-313 992,-313 992,-313 998,-313 1004,-319 1004,-325 1004,-325 1004,-337 1004,-337 1004,-343 998,-349 992,-349"/>
<text text-anchor="middle" x="939.5" y="-328.5" font-family="Times,serif" font-size="10.00" fill="#000033">Faker\Generator</text>
</g>
<!-- Apie\\Core&#45;&gt;Faker\\Generator -->
<g id="edge6" class="edge">
<title>Apie\\Core&#45;&gt;Faker\\Generator</title>
<path fill="none" stroke="#999999" d="M734.3147,-835.9972C766.24,-757.4236 893.3942,-444.4745 929.7467,-355.0047"/>
<polygon fill="#999999" stroke="#999999" points="931.7933,-355.5462 932.1064,-349.1969 927.9023,-353.9651 931.7933,-355.5462"/>
</g>
<!-- Apie\\CompositeValueObjects -->
<g id="node4" class="node">
<title>Apie\\CompositeValueObjects</title>
<path fill="#9999cc" stroke="#000000" d="M533.5,-950C533.5,-950 345.5,-950 345.5,-950 339.5,-950 333.5,-944 333.5,-938 333.5,-938 333.5,-926 333.5,-926 333.5,-920 339.5,-914 345.5,-914 345.5,-914 533.5,-914 533.5,-914 539.5,-914 545.5,-920 545.5,-926 545.5,-926 545.5,-938 545.5,-938 545.5,-944 539.5,-950 533.5,-950"/>
<text text-anchor="middle" x="439.5" y="-929.5" font-family="Times,serif" font-size="10.00" fill="#000033">Apie\CompositeValueObjects</text>
</g>
<!-- Apie\\CompositeValueObjects&#45;&gt;Apie\\Core -->
<g id="edge4" class="edge">
<title>Apie\\CompositeValueObjects&#45;&gt;Apie\\Core</title>
<path fill="none" stroke="#999999" d="M545.6159,-917.4466C559.63,-914.7343 573.7284,-911.5976 587,-908 619.1591,-899.2824 654.1303,-885.7964 681.0761,-874.4827"/>
<polygon fill="#999999" stroke="#999999" points="681.9922,-876.3754 686.7003,-872.104 680.3562,-872.5072 681.9922,-876.3754"/>
</g>
<!-- Apie\\CountryAndPhoneNumber -->
<g id="node5" class="node">
<title>Apie\\CountryAndPhoneNumber</title>
<path fill="#9999cc" stroke="#000000" d="M216,-985C216,-985 28,-985 28,-985 22,-985 16,-979 16,-973 16,-973 16,-961 16,-961 16,-955 22,-949 28,-949 28,-949 216,-949 216,-949 222,-949 228,-955 228,-961 228,-961 228,-973 228,-973 228,-979 222,-985 216,-985"/>
<text text-anchor="middle" x="122" y="-964.5" font-family="Times,serif" font-size="10.00" fill="#000033">Apie\CountryAndPhoneNumber</text>
</g>
<!-- Apie\\CountryAndPhoneNumber&#45;&gt;Apie\\Core -->
<g id="edge8" class="edge">
<title>Apie\\CountryAndPhoneNumber&#45;&gt;Apie\\Core</title>
<path fill="none" stroke="#999999" d="M228.1837,-968.8764C354.9713,-970.5741 554.1256,-971.3174 587,-960 635.7768,-943.2079 681.2379,-902.3035 706.4562,-876.4986"/>
<polygon fill="#999999" stroke="#999999" points="707.9697,-877.9544 710.6264,-872.1793 704.9481,-875.0372 707.9697,-877.9544"/>
</g>
<!-- Apie\\CountryAndPhoneNumber&#45;&gt;Apie\\CompositeValueObjects -->
<g id="edge9" class="edge">
<title>Apie\\CountryAndPhoneNumber&#45;&gt;Apie\\CompositeValueObjects</title>
<path fill="none" stroke="#999999" d="M228.1643,-955.2968C260.0697,-951.7797 295.1699,-947.9104 327.4438,-944.3527"/>
<polygon fill="#999999" stroke="#999999" points="327.702,-946.437 333.4357,-943.6921 327.2417,-942.2623 327.702,-946.437"/>
</g>
<!-- Apie\\CountryAndPhoneNumber&#45;&gt;Faker\\Generator -->
<g id="edge12" class="edge">
<title>Apie\\CountryAndPhoneNumber&#45;&gt;Faker\\Generator</title>
<path fill="none" stroke="#999999" d="M223.8646,-948.7984C225.2971,-947.6008 226.6778,-946.3358 228,-945 331.5666,-840.3709 181.3533,-717.1112 292,-620 341.3725,-576.6673 538.4106,-645.2089 587,-601 703.5219,-494.9828 523.1296,-353.2158 643,-251 671.4076,-226.7763 776.6351,-236.4112 811,-251 843.9831,-265.0022 836.4293,-290.3083 867,-309 867.7715,-309.4717 868.5539,-309.934 869.346,-310.3869"/>
<polygon fill="#999999" stroke="#999999" points="868.4201,-312.2731 874.7025,-313.2432 870.3963,-308.567 868.4201,-312.2731"/>
</g>
<!-- PrinsFrank\\Standards -->
<g id="node19" class="node">
<title>PrinsFrank\\Standards</title>
<path fill="#9999cc" stroke="#000000" d="M511,-569C511,-569 368,-569 368,-569 362,-569 356,-563 356,-557 356,-557 356,-545 356,-545 356,-539 362,-533 368,-533 368,-533 511,-533 511,-533 517,-533 523,-539 523,-545 523,-545 523,-557 523,-557 523,-563 517,-569 511,-569"/>
<text text-anchor="middle" x="439.5" y="-548.5" font-family="Times,serif" font-size="10.00" fill="#000033">PrinsFrank\Standards</text>
</g>
<!-- Apie\\CountryAndPhoneNumber&#45;&gt;PrinsFrank\\Standards -->
<g id="edge7" class="edge">
<title>Apie\\CountryAndPhoneNumber&#45;&gt;PrinsFrank\\Standards</title>
<path fill="none" stroke="#999999" d="M223.8782,-948.8118C225.3065,-947.61 226.6827,-946.3406 228,-945 335.1601,-835.9471 193.7926,-724.1798 292,-607 306.9396,-589.1742 328.1962,-577.0127 349.9355,-568.719"/>
<polygon fill="#999999" stroke="#999999" points="350.856,-570.6185 355.7709,-566.587 349.4146,-566.6736 350.856,-570.6185"/>
</g>
<!-- libphonenumber\\PhoneNumberUtil -->
<g id="node20" class="node">
<title>libphonenumber\\PhoneNumberUtil</title>
<path fill="#9999cc" stroke="#000000" d="M548.5,-400C548.5,-400 330.5,-400 330.5,-400 324.5,-400 318.5,-394 318.5,-388 318.5,-388 318.5,-376 318.5,-376 318.5,-370 324.5,-364 330.5,-364 330.5,-364 548.5,-364 548.5,-364 554.5,-364 560.5,-370 560.5,-376 560.5,-376 560.5,-388 560.5,-388 560.5,-394 554.5,-400 548.5,-400"/>
<text text-anchor="middle" x="439.5" y="-379.5" font-family="Times,serif" font-size="10.00" fill="#000033">libphonenumber\PhoneNumberUtil</text>
</g>
<!-- Apie\\CountryAndPhoneNumber&#45;&gt;libphonenumber\\PhoneNumberUtil -->
<g id="edge10" class="edge">
<title>Apie\\CountryAndPhoneNumber&#45;&gt;libphonenumber\\PhoneNumberUtil</title>
<path fill="none" stroke="#999999" d="M224.0092,-948.9361C225.3974,-947.6963 226.73,-946.3855 228,-945 391.6083,-766.5204 123.4086,-577.7802 292,-404 298.1521,-397.6586 305.285,-392.6168 313.0278,-388.641"/>
<polygon fill="#999999" stroke="#999999" points="313.959,-390.5237 318.4812,-386.0559 312.1599,-386.7285 313.959,-390.5237"/>
</g>
<!-- libphonenumber\\PhoneNumberFormat -->
<g id="node21" class="node">
<title>libphonenumber\\PhoneNumberFormat</title>
<path fill="#9999cc" stroke="#000000" d="M556,-357C556,-357 323,-357 323,-357 317,-357 311,-351 311,-345 311,-345 311,-333 311,-333 311,-327 317,-321 323,-321 323,-321 556,-321 556,-321 562,-321 568,-327 568,-333 568,-333 568,-345 568,-345 568,-351 562,-357 556,-357"/>
<text text-anchor="middle" x="439.5" y="-336.5" font-family="Times,serif" font-size="10.00" fill="#000033">libphonenumber\PhoneNumberFormat</text>
</g>
<!-- Apie\\CountryAndPhoneNumber&#45;&gt;libphonenumber\\PhoneNumberFormat -->
<g id="edge11" class="edge">
<title>Apie\\CountryAndPhoneNumber&#45;&gt;libphonenumber\\PhoneNumberFormat</title>
<path fill="none" stroke="#999999" d="M224.0257,-948.9512C225.4089,-947.7067 226.7359,-946.3909 228,-945 403.6101,-751.7663 110.9942,-549.1889 292,-361 296.086,-356.7519 300.6117,-353.0853 305.4667,-349.9305"/>
<polygon fill="#999999" stroke="#999999" points="306.7879,-351.5872 310.8588,-346.7047 304.6317,-347.9829 306.7879,-351.5872"/>
</g>
<!-- libphonenumber\\PhoneNumber -->
<g id="node22" class="node">
<title>libphonenumber\\PhoneNumber</title>
<path fill="#9999cc" stroke="#000000" d="M533.5,-486C533.5,-486 345.5,-486 345.5,-486 339.5,-486 333.5,-480 333.5,-474 333.5,-474 333.5,-462 333.5,-462 333.5,-456 339.5,-450 345.5,-450 345.5,-450 533.5,-450 533.5,-450 539.5,-450 545.5,-456 545.5,-462 545.5,-462 545.5,-474 545.5,-474 545.5,-480 539.5,-486 533.5,-486"/>
<text text-anchor="middle" x="439.5" y="-465.5" font-family="Times,serif" font-size="10.00" fill="#000033">libphonenumber\PhoneNumber</text>
</g>
<!-- Apie\\CountryAndPhoneNumber&#45;&gt;libphonenumber\\PhoneNumber -->
<g id="edge13" class="edge">
<title>Apie\\CountryAndPhoneNumber&#45;&gt;libphonenumber\\PhoneNumber</title>
<path fill="none" stroke="#999999" d="M223.9461,-948.8773C225.3537,-947.6555 226.7072,-946.3643 228,-945 358.1812,-807.6227 173.0817,-671.2349 292,-524 304.8677,-508.0683 322.8003,-496.6659 341.7418,-488.5061"/>
<polygon fill="#999999" stroke="#999999" points="342.8982,-490.3012 347.6481,-486.0764 341.3003,-486.417 342.8982,-490.3012"/>
</g>
<!-- libphonenumber\\NumberParseException -->
<g id="node23" class="node">
<title>libphonenumber\\NumberParseException</title>
<path fill="#9999cc" stroke="#000000" d="M567,-443C567,-443 312,-443 312,-443 306,-443 300,-437 300,-431 300,-431 300,-419 300,-419 300,-413 306,-407 312,-407 312,-407 567,-407 567,-407 573,-407 579,-413 579,-419 579,-419 579,-431 579,-431 579,-437 573,-443 567,-443"/>
<text text-anchor="middle" x="439.5" y="-422.5" font-family="Times,serif" font-size="10.00" fill="#000033">libphonenumber\NumberParseException</text>
</g>
<!-- Apie\\CountryAndPhoneNumber&#45;&gt;libphonenumber\\NumberParseException -->
<g id="edge14" class="edge">
<title>Apie\\CountryAndPhoneNumber&#45;&gt;libphonenumber\\NumberParseException</title>
<path fill="none" stroke="#999999" d="M223.9899,-948.9184C225.3841,-947.684 226.723,-946.3791 228,-945 379.617,-781.263 135.8121,-606.3828 292,-447 292.9174,-446.0638 293.8562,-445.1561 294.8152,-444.276"/>
<polygon fill="#999999" stroke="#999999" points="296.535,-445.5733 299.7728,-440.1027 293.8302,-442.3602 296.535,-445.5733"/>
</g>
<!-- Apie\\DateValueObjects -->
<g id="node6" class="node">
<title>Apie\\DateValueObjects</title>
<path fill="#9999cc" stroke="#000000" d="M197,-942C197,-942 47,-942 47,-942 41,-942 35,-936 35,-930 35,-930 35,-918 35,-918 35,-912 41,-906 47,-906 47,-906 197,-906 197,-906 203,-906 209,-912 209,-918 209,-918 209,-930 209,-930 209,-936 203,-942 197,-942"/>
<text text-anchor="middle" x="122" y="-921.5" font-family="Times,serif" font-size="10.00" fill="#000033">Apie\DateValueObjects</text>
</g>
<!-- Apie\\DateValueObjects&#45;&gt;Apie\\Core -->
<g id="edge15" class="edge">
<title>Apie\\DateValueObjects&#45;&gt;Apie\\Core</title>
<path fill="none" stroke="#999999" d="M209.4324,-941.8231C235.8453,-946.4196 265.0007,-950.7136 292,-953 357.3218,-958.5316 524.5244,-972.8579 587,-953 634.0055,-938.0593 678.8101,-900.9883 704.5725,-876.6917"/>
<polygon fill="#999999" stroke="#999999" points="706.2695,-877.9748 709.1576,-872.3118 703.3684,-874.9378 706.2695,-877.9748"/>
</g>
<!-- Apie\\DateValueObjects&#45;&gt;Apie\\CompositeValueObjects -->
<g id="edge16" class="edge">
<title>Apie\\DateValueObjects&#45;&gt;Apie\\CompositeValueObjects</title>
<path fill="none" stroke="#999999" d="M209.1782,-926.1966C245.5979,-927.1143 288.3739,-928.1921 327.1124,-929.1682"/>
<polygon fill="#999999" stroke="#999999" points="327.2424,-931.272 333.2934,-929.3239 327.3482,-927.0734 327.2424,-931.272"/>
</g>
<!-- Apie\\DateValueObjects&#45;&gt;Faker\\Generator -->
<g id="edge17" class="edge">
<title>Apie\\DateValueObjects&#45;&gt;Faker\\Generator</title>
<path fill="none" stroke="#999999" d="M209.0027,-915.9586C216.1232,-912.4713 222.631,-907.9144 228,-902 405.2855,-706.7068 115.8217,-508.2926 292,-312 398.6777,-193.1428 484.2205,-252.2113 643,-235 717.2318,-226.9534 744.1443,-201.7521 811,-235 847.9302,-253.3657 833.1655,-285.4127 867,-309 867.7756,-309.5407 868.5647,-310.0683 869.3661,-310.5832"/>
<polygon fill="#999999" stroke="#999999" points="868.5834,-312.5597 874.8181,-313.8005 870.7179,-308.9426 868.5834,-312.5597"/>
</g>
<!-- Apie\\DateformatToRegex -->
<g id="node7" class="node">
<title>Apie\\DateformatToRegex</title>
<path fill="#9999cc" stroke="#000000" d="M518.5,-898C518.5,-898 360.5,-898 360.5,-898 354.5,-898 348.5,-892 348.5,-886 348.5,-886 348.5,-874 348.5,-874 348.5,-868 354.5,-862 360.5,-862 360.5,-862 518.5,-862 518.5,-862 524.5,-862 530.5,-868 530.5,-874 530.5,-874 530.5,-886 530.5,-886 530.5,-892 524.5,-898 518.5,-898"/>
<text text-anchor="middle" x="439.5" y="-877.5" font-family="Times,serif" font-size="10.00" fill="#000033">Apie\DateformatToRegex</text>
</g>
<!-- Apie\\DoctrineEntityConverter -->
<g id="node8" class="node">
<title>Apie\\DoctrineEntityConverter</title>
<path fill="#9999cc" stroke="#000000" d="M541,-717C541,-717 338,-717 338,-717 332,-717 326,-711 326,-705 326,-705 326,-693 326,-693 326,-687 332,-681 338,-681 338,-681 541,-681 541,-681 547,-681 553,-687 553,-693 553,-693 553,-705 553,-705 553,-711 547,-717 541,-717"/>
<text text-anchor="middle" x="439.5" y="-696.5" font-family="Times,serif" font-size="10.00" fill="#000033">Apie\DoctrineEntityConverter</text>
</g>
<!-- Apie\\DoctrineEntityConverter&#45;&gt;Apie\\Core -->
<g id="edge18" class="edge">
<title>Apie\\DoctrineEntityConverter&#45;&gt;Apie\\Core</title>
<path fill="none" stroke="#999999" d="M553.2027,-708.6846C564.9291,-711.8102 576.4125,-715.8345 587,-721 639.9773,-746.847 686.2246,-799.9297 709.9955,-830.6426"/>
<polygon fill="#999999" stroke="#999999" points="708.5795,-832.2481 713.8923,-835.7387 711.9159,-829.6969 708.5795,-832.2481"/>
</g>
<!-- Nette\\PhpGenerator -->
<g id="node24" class="node">
<title>Nette\\PhpGenerator</title>
<path fill="#9999cc" stroke="#000000" d="M791,-591C791,-591 663,-591 663,-591 657,-591 651,-585 651,-579 651,-579 651,-567 651,-567 651,-561 657,-555 663,-555 663,-555 791,-555 791,-555 797,-555 803,-561 803,-567 803,-567 803,-579 803,-579 803,-585 797,-591 791,-591"/>
<text text-anchor="middle" x="727" y="-570.5" font-family="Times,serif" font-size="10.00" fill="#000033">Nette\PhpGenerator</text>
</g>
<!-- Apie\\DoctrineEntityConverter&#45;&gt;Nette\\PhpGenerator -->
<g id="edge19" class="edge">
<title>Apie\\DoctrineEntityConverter&#45;&gt;Nette\\PhpGenerator</title>
<path fill="none" stroke="#999999" d="M553.33,-688.663C564.9717,-685.6572 576.4017,-681.8394 587,-677 616.819,-663.3841 616.8705,-648.7944 643,-629 658.9409,-616.924 677.359,-604.488 692.8792,-594.4119"/>
<polygon fill="#999999" stroke="#999999" points="694.123,-596.1085 698.0238,-591.0891 691.8442,-592.5804 694.123,-596.1085"/>
</g>
<!-- Doctrine\\ORM -->
<g id="node25" class="node">
<title>Doctrine\\ORM</title>
<path fill="#9999cc" stroke="#000000" d="M768.5,-508C768.5,-508 685.5,-508 685.5,-508 679.5,-508 673.5,-502 673.5,-496 673.5,-496 673.5,-484 673.5,-484 673.5,-478 679.5,-472 685.5,-472 685.5,-472 768.5,-472 768.5,-472 774.5,-472 780.5,-478 780.5,-484 780.5,-484 780.5,-496 780.5,-496 780.5,-502 774.5,-508 768.5,-508"/>
<text text-anchor="middle" x="727" y="-487.5" font-family="Times,serif" font-size="10.00" fill="#000033">Doctrine\ORM</text>
</g>
<!-- Apie\\DoctrineEntityConverter&#45;&gt;Doctrine\\ORM -->
<g id="edge20" class="edge">
<title>Apie\\DoctrineEntityConverter&#45;&gt;Doctrine\\ORM</title>
<path fill="none" stroke="#999999" d="M553.1597,-694.3161C565.3561,-690.3436 576.9579,-684.7527 587,-677 637.1205,-638.3061 602.5302,-594.6979 643,-546 654.4735,-532.1937 670.212,-520.471 684.9662,-511.3746"/>
<polygon fill="#999999" stroke="#999999" points="686.2849,-513.0323 690.3477,-508.1431 684.1228,-509.4316 686.2849,-513.0323"/>
</g>
<!-- Apie\\Faker -->
<g id="node9" class="node">
<title>Apie\\Faker</title>
<path fill="#9999cc" stroke="#000000" d="M473.5,-846C473.5,-846 405.5,-846 405.5,-846 399.5,-846 393.5,-840 393.5,-834 393.5,-834 393.5,-822 393.5,-822 393.5,-816 399.5,-810 405.5,-810 405.5,-810 473.5,-810 473.5,-810 479.5,-810 485.5,-816 485.5,-822 485.5,-822 485.5,-834 485.5,-834 485.5,-840 479.5,-846 473.5,-846"/>
<text text-anchor="middle" x="439.5" y="-825.5" font-family="Times,serif" font-size="10.00" fill="#000033">Apie\Faker</text>
</g>
<!-- Apie\\Faker&#45;&gt;Apie\\Core -->
<g id="edge21" class="edge">
<title>Apie\\Faker&#45;&gt;Apie\\Core</title>
<path fill="none" stroke="#999999" d="M485.6918,-832.1773C538.5742,-836.9598 624.8086,-844.7583 678.5993,-849.6229"/>
<polygon fill="#999999" stroke="#999999" points="678.5053,-851.7229 684.6701,-850.1719 678.8837,-847.5399 678.5053,-851.7229"/>
</g>
<!-- Apie\\Faker&#45;&gt;Faker\\Generator -->
<g id="edge22" class="edge">
<title>Apie\\Faker&#45;&gt;Faker\\Generator</title>
<path fill="none" stroke="#999999" d="M485.6267,-834.1564C518.3051,-835.7623 560.8247,-831.8172 587,-806 696.9715,-697.5332 532.0649,-570.481 643,-463 670.0417,-436.8003 776.6065,-456.322 811,-441 856.2034,-420.8623 897.5746,-379.5737 920.5724,-353.7049"/>
<polygon fill="#999999" stroke="#999999" points="922.268,-354.9566 924.6496,-349.0626 919.1123,-352.185 922.268,-354.9566"/>
</g>
<!-- Apie\\Fixtures -->
<g id="node10" class="node">
<title>Apie\\Fixtures</title>
<path fill="#9999cc" stroke="#000000" d="M167,-846C167,-846 77,-846 77,-846 71,-846 65,-840 65,-834 65,-834 65,-822 65,-822 65,-816 71,-810 77,-810 77,-810 167,-810 167,-810 173,-810 179,-816 179,-822 179,-822 179,-834 179,-834 179,-840 173,-846 167,-846"/>
<text text-anchor="middle" x="122" y="-825.5" font-family="Times,serif" font-size="10.00" fill="#000033">Apie\Fixtures</text>
</g>
<!-- Apie\\Fixtures&#45;&gt;Apie\\Core -->
<g id="edge23" class="edge">
<title>Apie\\Fixtures&#45;&gt;Apie\\Core</title>
<path fill="none" stroke="#999999" d="M179.291,-836.6911C212.1848,-841.2758 254.3177,-846.4639 292,-849 432.2743,-858.4407 598.5527,-856.7955 678.8478,-855.1949"/>
<polygon fill="#999999" stroke="#999999" points="678.9905,-857.2925 684.9463,-855.0701 678.9045,-853.0934 678.9905,-857.2925"/>
</g>
<!-- Apie\\Fixtures&#45;&gt;Apie\\CompositeValueObjects -->
<g id="edge24" class="edge">
<title>Apie\\Fixtures&#45;&gt;Apie\\CompositeValueObjects</title>
<path fill="none" stroke="#999999" d="M179.2329,-842.0066C195.3582,-846.8226 212.6732,-852.8411 228,-860 258.8257,-874.3982 260.5414,-889.0429 292,-902 303.213,-906.6184 315.2076,-910.5482 327.3321,-913.8873"/>
<polygon fill="#999999" stroke="#999999" points="326.9529,-915.9596 333.2916,-915.4795 328.037,-911.9019 326.9529,-915.9596"/>
</g>
<!-- Apie\\Fixtures&#45;&gt;Apie\\Faker -->
<g id="edge26" class="edge">
<title>Apie\\Fixtures&#45;&gt;Apie\\Faker</title>
<path fill="none" stroke="#999999" d="M179.1293,-828C238.2142,-828 329.699,-828 387.0138,-828"/>
<polygon fill="#999999" stroke="#999999" points="387.1397,-830.1001 393.1396,-828 387.1396,-825.9001 387.1397,-830.1001"/>
</g>
<!-- Apie\\TextValueObjects -->
<g id="node11" class="node">
<title>Apie\\TextValueObjects</title>
<path fill="#9999cc" stroke="#000000" d="M514.5,-803C514.5,-803 364.5,-803 364.5,-803 358.5,-803 352.5,-797 352.5,-791 352.5,-791 352.5,-779 352.5,-779 352.5,-773 358.5,-767 364.5,-767 364.5,-767 514.5,-767 514.5,-767 520.5,-767 526.5,-773 526.5,-779 526.5,-779 526.5,-791 526.5,-791 526.5,-797 520.5,-803 514.5,-803"/>
<text text-anchor="middle" x="439.5" y="-782.5" font-family="Times,serif" font-size="10.00" fill="#000033">Apie\TextValueObjects</text>
</g>
<!-- Apie\\Fixtures&#45;&gt;Apie\\TextValueObjects -->
<g id="edge28" class="edge">
<title>Apie\\Fixtures&#45;&gt;Apie\\TextValueObjects</title>
<path fill="none" stroke="#999999" d="M179.1293,-820.2628C225.5451,-813.9766 291.956,-804.9823 346.0884,-797.651"/>
<polygon fill="#999999" stroke="#999999" points="346.6267,-799.6974 352.2906,-796.811 346.063,-795.5354 346.6267,-799.6974"/>
</g>
<!-- Apie\\Fixtures&#45;&gt;Faker\\Generator -->
<g id="edge25" class="edge">
<title>Apie\\Fixtures&#45;&gt;Faker\\Generator</title>
<path fill="none" stroke="#999999" d="M124.1588,-809.8733C135.6301,-716.9398 192.679,-295.3597 292,-220 314.9698,-202.5717 785.76,-206.0607 811,-220 851.9101,-242.5935 829.8492,-280.6466 867,-309 867.7842,-309.5985 868.5847,-310.1808 869.3999,-310.7474"/>
<polygon fill="#999999" stroke="#999999" points="868.7798,-312.839 874.9752,-314.2627 871.0198,-309.2862 868.7798,-312.839"/>
</g>
<!-- Faker\\Factory -->
<g id="node18" class="node">
<title>Faker\\Factory</title>
<path fill="#9999cc" stroke="#000000" d="M984.5,-306C984.5,-306 894.5,-306 894.5,-306 888.5,-306 882.5,-300 882.5,-294 882.5,-294 882.5,-282 882.5,-282 882.5,-276 888.5,-270 894.5,-270 894.5,-270 984.5,-270 984.5,-270 990.5,-270 996.5,-276 996.5,-282 996.5,-282 996.5,-294 996.5,-294 996.5,-300 990.5,-306 984.5,-306"/>
<text text-anchor="middle" x="939.5" y="-285.5" font-family="Times,serif" font-size="10.00" fill="#000033">Faker\Factory</text>
</g>
<!-- Apie\\Fixtures&#45;&gt;Faker\\Factory -->
<g id="edge27" class="edge">
<title>Apie\\Fixtures&#45;&gt;Faker\\Factory</title>
<path fill="none" stroke="#999999" d="M124.0568,-809.8032C135.1155,-715.5472 190.806,-284.2152 292,-207 337.8449,-172.0185 755.5895,-192.0271 811,-208 850.2968,-219.3279 889.3035,-246.4475 913.8506,-265.9726"/>
<polygon fill="#999999" stroke="#999999" points="912.5732,-267.6403 918.563,-269.7695 915.2083,-264.3698 912.5732,-267.6403"/>
</g>
<!-- Apie\\TextValueObjects&#45;&gt;Apie\\Core -->
<g id="edge40" class="edge">
<title>Apie\\TextValueObjects&#45;&gt;Apie\\Core</title>
<path fill="none" stroke="#999999" d="M526.5645,-795.3901C546.5491,-798.4917 567.6165,-802.3391 587,-807 618.1709,-814.4952 652.2925,-825.8818 679.0455,-835.57"/>
<polygon fill="#999999" stroke="#999999" points="678.6283,-837.6531 684.9846,-837.7366 680.0677,-833.7074 678.6283,-837.6531"/>
</g>
<!-- Apie\\TextValueObjects&#45;&gt;Faker\\Generator -->
<g id="edge41" class="edge">
<title>Apie\\TextValueObjects&#45;&gt;Faker\\Generator</title>
<path fill="none" stroke="#999999" d="M526.7502,-789.3784C548.9048,-786.1937 570.949,-778.6182 587,-763 689.2255,-663.5312 539.6027,-545.2502 643,-447 670.2743,-421.0834 776.0668,-439.9725 811,-426 852.5374,-409.386 892.7301,-376.0103 916.792,-353.5803"/>
<polygon fill="#999999" stroke="#999999" points="918.4609,-354.893 921.3849,-349.2485 915.5791,-351.8375 918.4609,-354.893"/>
</g>
<!-- Apie\\RegexValueObjects -->
<g id="node12" class="node">
<title>Apie\\RegexValueObjects</title>
<path fill="#9999cc" stroke="#000000" d="M518.5,-760C518.5,-760 360.5,-760 360.5,-760 354.5,-760 348.5,-754 348.5,-748 348.5,-748 348.5,-736 348.5,-736 348.5,-730 354.5,-724 360.5,-724 360.5,-724 518.5,-724 518.5,-724 524.5,-724 530.5,-730 530.5,-736 530.5,-736 530.5,-748 530.5,-748 530.5,-754 524.5,-760 518.5,-760"/>
<text text-anchor="middle" x="439.5" y="-739.5" font-family="Times,serif" font-size="10.00" fill="#000033">Apie\RegexValueObjects</text>
</g>
<!-- Apie\\RegexValueObjects&#45;&gt;Apie\\Core -->
<g id="edge29" class="edge">
<title>Apie\\RegexValueObjects&#45;&gt;Apie\\Core</title>
<path fill="none" stroke="#999999" d="M530.7387,-749.4547C549.7139,-752.6997 569.3092,-757.3472 587,-764 630.0287,-780.1814 673.6473,-811.0109 700.5035,-832.0319"/>
<polygon fill="#999999" stroke="#999999" points="699.3094,-833.7649 705.3191,-835.8371 701.9134,-830.4695 699.3094,-833.7649"/>
</g>
<!-- Apie\\RegexValueObjects&#45;&gt;Faker\\Generator -->
<g id="edge30" class="edge">
<title>Apie\\RegexValueObjects&#45;&gt;Faker\\Generator</title>
<path fill="none" stroke="#999999" d="M530.8033,-745.5405C551.5181,-742.026 571.8483,-734.4995 587,-720 681.2103,-629.8452 547.7278,-521.0318 643,-432 670.4891,-406.3114 775.5375,-423.5684 811,-411 848.8509,-397.5851 887.3005,-371.6801 912.147,-352.9763"/>
<polygon fill="#999999" stroke="#999999" points="913.4268,-354.6413 916.9308,-349.3373 910.8839,-351.2986 913.4268,-354.6413"/>
</g>
<!-- Apie\\SchemaGenerator -->
<g id="node13" class="node">
<title>Apie\\SchemaGenerator</title>
<path fill="#9999cc" stroke="#000000" d="M193.5,-899C193.5,-899 50.5,-899 50.5,-899 44.5,-899 38.5,-893 38.5,-887 38.5,-887 38.5,-875 38.5,-875 38.5,-869 44.5,-863 50.5,-863 50.5,-863 193.5,-863 193.5,-863 199.5,-863 205.5,-869 205.5,-875 205.5,-875 205.5,-887 205.5,-887 205.5,-893 199.5,-899 193.5,-899"/>
<text text-anchor="middle" x="122" y="-878.5" font-family="Times,serif" font-size="10.00" fill="#000033">Apie\SchemaGenerator</text>
</g>
<!-- Apie\\SchemaGenerator&#45;&gt;Apie\\Core -->
<g id="edge34" class="edge">
<title>Apie\\SchemaGenerator&#45;&gt;Apie\\Core</title>
<path fill="none" stroke="#999999" d="M205.7015,-892.8211C233.14,-896.1677 263.8168,-899.3479 292,-901 357.4432,-904.8364 522.3022,-911.5701 587,-901 618.5222,-895.85 652.5186,-884.5822 679.1163,-874.3704"/>
<polygon fill="#999999" stroke="#999999" points="680.1889,-876.2065 685.0198,-872.0746 678.6666,-872.2921 680.1889,-876.2065"/>
</g>
<!-- Apie\\SchemaGenerator&#45;&gt;Apie\\CompositeValueObjects -->
<g id="edge33" class="edge">
<title>Apie\\SchemaGenerator&#45;&gt;Apie\\CompositeValueObjects</title>
<path fill="none" stroke="#999999" d="M205.8347,-894.4664C242.8932,-900.4191 287.0188,-907.507 326.8914,-913.9117"/>
<polygon fill="#999999" stroke="#999999" points="326.9953,-916.0552 333.2524,-914.9335 327.6615,-911.9084 326.9953,-916.0552"/>
</g>
<!-- Apie\\SchemaGenerator&#45;&gt;Apie\\DateformatToRegex -->
<g id="edge35" class="edge">
<title>Apie\\SchemaGenerator&#45;&gt;Apie\\DateformatToRegex</title>
<path fill="none" stroke="#999999" d="M205.8347,-880.736C247.7719,-880.6039 298.7594,-880.4433 342.3919,-880.3059"/>
<polygon fill="#999999" stroke="#999999" points="342.5048,-882.4056 348.4981,-880.2866 342.4915,-878.2056 342.5048,-882.4056"/>
</g>
<!-- cebe\\openapi -->
<g id="node26" class="node">
<title>cebe\\openapi</title>
<path fill="#9999cc" stroke="#000000" d="M481,-152C481,-152 398,-152 398,-152 392,-152 386,-146 386,-140 386,-140 386,-128 386,-128 386,-122 392,-116 398,-116 398,-116 481,-116 481,-116 487,-116 493,-122 493,-128 493,-128 493,-140 493,-140 493,-146 487,-152 481,-152"/>
<text text-anchor="middle" x="439.5" y="-131.5" font-family="Times,serif" font-size="10.00" fill="#000033">cebe\openapi</text>
</g>
<!-- Apie\\SchemaGenerator&#45;&gt;cebe\\openapi -->
<g id="edge32" class="edge">
<title>Apie\\SchemaGenerator&#45;&gt;cebe\\openapi</title>
<path fill="none" stroke="#999999" d="M205.5406,-867.404C214.0908,-863.0449 221.8699,-857.3708 228,-850 317.9812,-741.8073 215.8157,-338.3141 292,-220 312.3199,-188.4433 348.6228,-167.0642 380.1271,-153.5149"/>
<polygon fill="#999999" stroke="#999999" points="381.2267,-155.3311 385.9489,-151.0753 379.6035,-151.4574 381.2267,-155.3311"/>
</g>
<!-- League\\OpenAPIValidation -->
<g id="node27" class="node">
<title>League\\OpenAPIValidation</title>
<path fill="#9999cc" stroke="#000000" d="M526,-69C526,-69 353,-69 353,-69 347,-69 341,-63 341,-57 341,-57 341,-45 341,-45 341,-39 347,-33 353,-33 353,-33 526,-33 526,-33 532,-33 538,-39 538,-45 538,-45 538,-57 538,-57 538,-63 532,-69 526,-69"/>
<text text-anchor="middle" x="439.5" y="-48.5" font-family="Times,serif" font-size="10.00" fill="#000033">League\OpenAPIValidation</text>
</g>
<!-- Apie\\SchemaGenerator&#45;&gt;League\\OpenAPIValidation -->
<g id="edge36" class="edge">
<title>Apie\\SchemaGenerator&#45;&gt;League\\OpenAPIValidation</title>
<path fill="none" stroke="#999999" d="M205.6506,-867.4948C214.1819,-863.1201 221.9265,-857.4175 228,-850 332.9895,-721.7769 192.1118,-239.2357 292,-107 304.0444,-91.0551 321.2026,-79.6502 339.5819,-71.4927"/>
<polygon fill="#999999" stroke="#999999" points="340.6137,-73.3364 345.3207,-69.0638 338.9766,-69.4685 340.6137,-73.3364"/>
</g>
<!-- Apie\\Serializer -->
<g id="node14" class="node">
<title>Apie\\Serializer</title>
<path fill="#9999cc" stroke="#000000" d="M492,-674C492,-674 387,-674 387,-674 381,-674 375,-668 375,-662 375,-662 375,-650 375,-650 375,-644 381,-638 387,-638 387,-638 492,-638 492,-638 498,-638 504,-644 504,-650 504,-650 504,-662 504,-662 504,-668 498,-674 492,-674"/>
<text text-anchor="middle" x="439.5" y="-653.5" font-family="Times,serif" font-size="10.00" fill="#000033">Apie\Serializer</text>
</g>
<!-- Apie\\Serializer&#45;&gt;Apie\\Core -->
<g id="edge37" class="edge">
<title>Apie\\Serializer&#45;&gt;Apie\\Core</title>
<path fill="none" stroke="#999999" d="M504.2673,-655.3828C531.3523,-657.6449 562.2213,-663.699 587,-678 650.172,-714.4596 695.6983,-791.4301 715.6923,-830.3716"/>
<polygon fill="#999999" stroke="#999999" points="713.8727,-831.4269 718.456,-835.8318 717.62,-829.5301 713.8727,-831.4269"/>
</g>
<!-- Apie\\Serializer&#45;&gt;Symfony\\Component -->
<g id="edge39" class="edge">
<title>Apie\\Serializer&#45;&gt;Symfony\\Component</title>
<path fill="none" stroke="#999999" d="M504.2652,-661.176C533.1563,-659.9172 565.4606,-653.0189 587,-632 683.4496,-537.8806 568.6658,-446.4073 643,-334 652.4714,-319.6775 666.9955,-308.1158 681.318,-299.2995"/>
<polygon fill="#999999" stroke="#999999" points="682.4903,-301.0457 686.5759,-296.1755 680.345,-297.435 682.4903,-301.0457"/>
</g>
<!-- Psr\\Http -->
<g id="node28" class="node">
<title>Psr\\Http</title>
<path fill="#9999cc" stroke="#000000" d="M753.5,-379C753.5,-379 700.5,-379 700.5,-379 694.5,-379 688.5,-373 688.5,-367 688.5,-367 688.5,-355 688.5,-355 688.5,-349 694.5,-343 700.5,-343 700.5,-343 753.5,-343 753.5,-343 759.5,-343 765.5,-349 765.5,-355 765.5,-355 765.5,-367 765.5,-367 765.5,-373 759.5,-379 753.5,-379"/>
<text text-anchor="middle" x="727" y="-358.5" font-family="Times,serif" font-size="10.00" fill="#000033">Psr\Http</text>
</g>
<!-- Apie\\Serializer&#45;&gt;Psr\\Http -->
<g id="edge38" class="edge">
<title>Apie\\Serializer&#45;&gt;Psr\\Http</title>
<path fill="none" stroke="#999999" d="M504.3701,-660.4601C532.9342,-658.9716 564.9398,-652.0882 587,-632 660.0092,-565.5171 585.723,-497.4342 643,-417 653.2318,-402.6315 668.4009,-390.9055 683.0441,-381.965"/>
<polygon fill="#999999" stroke="#999999" points="684.3076,-383.6577 688.405,-378.7975 682.171,-380.0417 684.3076,-383.6577"/>
</g>
</g>
</svg>
