<?xml version="1.0" encoding="UTF-8" standalone="no"?>
<!DOCTYPE svg PUBLIC "-//W3C//DTD SVG 1.1//EN"
 "http://www.w3.org/Graphics/SVG/1.1/DTD/svg11.dtd">
<!-- Generated by graphviz version 2.40.1 (0)
 -->
<!-- Title: G Pages: 1 -->
<svg width="1154pt" height="590pt"
 viewBox="0.00 0.00 1154.00 590.00" xmlns="http://www.w3.org/2000/svg" xmlns:xlink="http://www.w3.org/1999/xlink">
<g id="graph0" class="graph" transform="scale(1 1) rotate(0) translate(4 586)">
<title>G</title>
<polygon fill="#ffffff" stroke="transparent" points="-4,4 -4,-586 1150,-586 1150,4 -4,4"/>
<text text-anchor="middle" x="573" y="-6.6" font-family="Times,serif" font-size="8.00" fill="#000000">PhpDependencyAnalysis by Marco Muths v2.0.2</text>
<g id="clust1" class="cluster">
<title>cluster_0</title>
<path fill="#ccccff" stroke="#000033" d="M20,-360C20,-360 1126,-360 1126,-360 1132,-360 1138,-366 1138,-372 1138,-372 1138,-562 1138,-562 1138,-568 1132,-574 1126,-574 1126,-574 20,-574 20,-574 14,-574 8,-568 8,-562 8,-562 8,-372 8,-372 8,-366 14,-360 20,-360"/>
<text text-anchor="middle" x="31.5" y="-558.8" font-family="Times,serif" font-size="14.00" fill="#000033">Apie</text>
</g>
<g id="clust2" class="cluster">
<title>cluster_1</title>
<path fill="#ccccff" stroke="#000033" d="M822.5,-277C822.5,-277 913.5,-277 913.5,-277 919.5,-277 925.5,-283 925.5,-289 925.5,-289 925.5,-340 925.5,-340 925.5,-346 919.5,-352 913.5,-352 913.5,-352 822.5,-352 822.5,-352 816.5,-352 810.5,-346 810.5,-340 810.5,-340 810.5,-289 810.5,-289 810.5,-283 816.5,-277 822.5,-277"/>
<text text-anchor="middle" x="841.5" y="-336.8" font-family="Times,serif" font-size="14.00" fill="#000033">Ramsey</text>
</g>
<g id="clust3" class="cluster">
<title>cluster_2</title>
<path fill="#ccccff" stroke="#000033" d="M807.5,-25C807.5,-25 928.5,-25 928.5,-25 934.5,-25 940.5,-31 940.5,-37 940.5,-37 940.5,-174 940.5,-174 940.5,-180 934.5,-186 928.5,-186 928.5,-186 807.5,-186 807.5,-186 801.5,-186 795.5,-180 795.5,-174 795.5,-174 795.5,-37 795.5,-37 795.5,-31 801.5,-25 807.5,-25"/>
<text text-anchor="middle" x="822.5" y="-170.8" font-family="Times,serif" font-size="14.00" fill="#000033">Faker</text>
</g>
<g id="clust4" class="cluster">
<title>cluster_3</title>
<path fill="#ccccff" stroke="#000033" d="M523.5,-277C523.5,-277 667.5,-277 667.5,-277 673.5,-277 679.5,-283 679.5,-289 679.5,-289 679.5,-340 679.5,-340 679.5,-346 673.5,-352 667.5,-352 667.5,-352 523.5,-352 523.5,-352 517.5,-352 511.5,-346 511.5,-340 511.5,-340 511.5,-289 511.5,-289 511.5,-283 517.5,-277 523.5,-277"/>
<text text-anchor="middle" x="538.5" y="-336.8" font-family="Times,serif" font-size="14.00" fill="#000033">Nette</text>
</g>
<g id="clust5" class="cluster">
<title>cluster_4</title>
<path fill="#ccccff" stroke="#000033" d="M546,-194C546,-194 645,-194 645,-194 651,-194 657,-200 657,-206 657,-206 657,-257 657,-257 657,-263 651,-269 645,-269 645,-269 546,-269 546,-269 540,-269 534,-263 534,-257 534,-257 534,-206 534,-206 534,-200 540,-194 546,-194"/>
<text text-anchor="middle" x="572.5" y="-253.8" font-family="Times,serif" font-size="14.00" fill="#000033">Doctrine</text>
</g>
<g id="clust6" class="cluster">
<title>cluster_5</title>
<path fill="#ccccff" stroke="#000033" d="M818.5,-194C818.5,-194 917.5,-194 917.5,-194 923.5,-194 929.5,-200 929.5,-206 929.5,-206 929.5,-257 929.5,-257 929.5,-263 923.5,-269 917.5,-269 917.5,-269 818.5,-269 818.5,-269 812.5,-269 806.5,-263 806.5,-257 806.5,-257 806.5,-206 806.5,-206 806.5,-200 812.5,-194 818.5,-194"/>
<text text-anchor="middle" x="830" y="-253.8" font-family="Times,serif" font-size="14.00" fill="#000033">cebe</text>
</g>
<!-- Apie\\CommonValueObjects -->
<g id="node1" class="node">
<title>Apie\\CommonValueObjects</title>
<path fill="#9999cc" stroke="#000000" d="M678,-517C678,-517 513,-517 513,-517 507,-517 501,-511 501,-505 501,-505 501,-493 501,-493 501,-487 507,-481 513,-481 513,-481 678,-481 678,-481 684,-481 690,-487 690,-493 690,-493 690,-505 690,-505 690,-511 684,-517 678,-517"/>
<text text-anchor="middle" x="595.5" y="-496.5" font-family="Times,serif" font-size="10.00" fill="#000033">Apie\CommonValueObjects</text>
</g>
<!-- Apie\\Core -->
<g id="node2" class="node">
<title>Apie\\Core</title>
<path fill="#9999cc" stroke="#000000" d="M1118,-491C1118,-491 1058,-491 1058,-491 1052,-491 1046,-485 1046,-479 1046,-479 1046,-467 1046,-467 1046,-461 1052,-455 1058,-455 1058,-455 1118,-455 1118,-455 1124,-455 1130,-461 1130,-467 1130,-467 1130,-479 1130,-479 1130,-485 1124,-491 1118,-491"/>
<text text-anchor="middle" x="1088" y="-470.5" font-family="Times,serif" font-size="10.00" fill="#000033">Apie\Core</text>
</g>
<!-- Apie\\CommonValueObjects&#45;&gt;Apie\\Core -->
<g id="edge1" class="edge">
<title>Apie\\CommonValueObjects&#45;&gt;Apie\\Core</title>
<path fill="none" stroke="#999999" d="M690.124,-491.7016C713.6016,-490.0227 738.7086,-488.3392 762,-487 860.4207,-481.3412 975.6772,-476.9065 1039.4001,-474.6465"/>
<polygon fill="#999999" stroke="#999999" points="1039.8582,-476.7318 1045.7803,-474.4214 1039.71,-472.5344 1039.8582,-476.7318"/>
</g>
<!-- Apie\\CompositeValueObjects -->
<g id="node3" class="node">
<title>Apie\\CompositeValueObjects</title>
<path fill="#9999cc" stroke="#000000" d="M962,-465C962,-465 774,-465 774,-465 768,-465 762,-459 762,-453 762,-453 762,-441 762,-441 762,-435 768,-429 774,-429 774,-429 962,-429 962,-429 968,-429 974,-435 974,-441 974,-441 974,-453 974,-453 974,-459 968,-465 962,-465"/>
<text text-anchor="middle" x="868" y="-444.5" font-family="Times,serif" font-size="10.00" fill="#000033">Apie\CompositeValueObjects</text>
</g>
<!-- Apie\\CommonValueObjects&#45;&gt;Apie\\CompositeValueObjects -->
<g id="edge4" class="edge">
<title>Apie\\CommonValueObjects&#45;&gt;Apie\\CompositeValueObjects</title>
<path fill="none" stroke="#999999" d="M690.0425,-480.9589C715.0892,-476.1793 742.217,-471.0026 767.5646,-466.1656"/>
<polygon fill="#999999" stroke="#999999" points="768.1246,-468.1968 773.6246,-465.0092 767.3373,-464.0712 768.1246,-468.1968"/>
</g>
<!-- Apie\\DateValueObjects -->
<g id="node4" class="node">
<title>Apie\\DateValueObjects</title>
<path fill="#9999cc" stroke="#000000" d="M943,-526C943,-526 793,-526 793,-526 787,-526 781,-520 781,-514 781,-514 781,-502 781,-502 781,-496 787,-490 793,-490 793,-490 943,-490 943,-490 949,-490 955,-496 955,-502 955,-502 955,-514 955,-514 955,-520 949,-526 943,-526"/>
<text text-anchor="middle" x="868" y="-505.5" font-family="Times,serif" font-size="10.00" fill="#000033">Apie\DateValueObjects</text>
</g>
<!-- Apie\\CommonValueObjects&#45;&gt;Apie\\DateValueObjects -->
<g id="edge5" class="edge">
<title>Apie\\CommonValueObjects&#45;&gt;Apie\\DateValueObjects</title>
<path fill="none" stroke="#999999" d="M690.0425,-502.1225C717.4815,-503.0287 747.418,-504.0175 774.7756,-504.921"/>
<polygon fill="#999999" stroke="#999999" points="774.8702,-507.0252 780.9363,-505.1245 775.0089,-502.8275 774.8702,-507.0252"/>
</g>
<!-- Ramsey\\Uuid -->
<g id="node10" class="node">
<title>Ramsey\\Uuid</title>
<path fill="#9999cc" stroke="#000000" d="M905.5,-321C905.5,-321 830.5,-321 830.5,-321 824.5,-321 818.5,-315 818.5,-309 818.5,-309 818.5,-297 818.5,-297 818.5,-291 824.5,-285 830.5,-285 830.5,-285 905.5,-285 905.5,-285 911.5,-285 917.5,-291 917.5,-297 917.5,-297 917.5,-309 917.5,-309 917.5,-315 911.5,-321 905.5,-321"/>
<text text-anchor="middle" x="868" y="-300.5" font-family="Times,serif" font-size="10.00" fill="#000033">Ramsey\Uuid</text>
</g>
<!-- Apie\\CommonValueObjects&#45;&gt;Ramsey\\Uuid -->
<g id="edge2" class="edge">
<title>Apie\\CommonValueObjects&#45;&gt;Ramsey\\Uuid</title>
<path fill="none" stroke="#999999" d="M616.4368,-480.9657C657.6611,-445.52 746.6887,-369.3093 762,-359 781.4103,-345.9308 804.2164,-333.5398 823.6919,-323.7522"/>
<polygon fill="#999999" stroke="#999999" points="824.6571,-325.6175 829.091,-321.0622 822.7841,-321.8582 824.6571,-325.6175"/>
</g>
<!-- Faker\\Generator -->
<g id="node11" class="node">
<title>Faker\\Generator</title>
<path fill="#9999cc" stroke="#000000" d="M920.5,-155C920.5,-155 815.5,-155 815.5,-155 809.5,-155 803.5,-149 803.5,-143 803.5,-143 803.5,-131 803.5,-131 803.5,-125 809.5,-119 815.5,-119 815.5,-119 920.5,-119 920.5,-119 926.5,-119 932.5,-125 932.5,-131 932.5,-131 932.5,-143 932.5,-143 932.5,-149 926.5,-155 920.5,-155"/>
<text text-anchor="middle" x="868" y="-134.5" font-family="Times,serif" font-size="10.00" fill="#000033">Faker\Generator</text>
</g>
<!-- Apie\\CommonValueObjects&#45;&gt;Faker\\Generator -->
<g id="edge3" class="edge">
<title>Apie\\CommonValueObjects&#45;&gt;Faker\\Generator</title>
<path fill="none" stroke="#999999" d="M623.6043,-480.9445C644.6335,-466.1002 672.6458,-443.2842 690,-417 747.6181,-329.7334 694.8025,-273.1236 762,-193 774.5568,-178.0278 792.1605,-166.5055 809.4203,-157.9163"/>
<polygon fill="#999999" stroke="#999999" points="810.7533,-159.6058 815.2527,-155.1152 808.935,-155.8198 810.7533,-159.6058"/>
</g>
<!-- Apie\\CompositeValueObjects&#45;&gt;Apie\\Core -->
<g id="edge6" class="edge">
<title>Apie\\CompositeValueObjects&#45;&gt;Apie\\Core</title>
<path fill="none" stroke="#999999" d="M974.1335,-459.5431C997.136,-462.2615 1020.3643,-465.0067 1039.7881,-467.3022"/>
<polygon fill="#999999" stroke="#999999" points="1039.7508,-469.4124 1045.9558,-468.0311 1040.2438,-465.2414 1039.7508,-469.4124"/>
</g>
<!-- Apie\\DateValueObjects&#45;&gt;Apie\\Core -->
<g id="edge7" class="edge">
<title>Apie\\DateValueObjects&#45;&gt;Apie\\Core</title>
<path fill="none" stroke="#999999" d="M955.2658,-494.1168C984.0202,-489.5422 1014.9418,-484.6229 1039.6998,-480.6841"/>
<polygon fill="#999999" stroke="#999999" points="1040.2608,-482.7214 1045.8563,-479.7047 1039.6009,-478.5735 1040.2608,-482.7214"/>
</g>
<!-- Apie\\DateformatToRegex -->
<g id="node5" class="node">
<title>Apie\\DateformatToRegex</title>
<path fill="#9999cc" stroke="#000000" d="M947,-404C947,-404 789,-404 789,-404 783,-404 777,-398 777,-392 777,-392 777,-380 777,-380 777,-374 783,-368 789,-368 789,-368 947,-368 947,-368 953,-368 959,-374 959,-380 959,-380 959,-392 959,-392 959,-398 953,-404 947,-404"/>
<text text-anchor="middle" x="868" y="-383.5" font-family="Times,serif" font-size="10.00" fill="#000033">Apie\DateformatToRegex</text>
</g>
<!-- Apie\\DoctrineEntityConverter -->
<g id="node6" class="node">
<title>Apie\\DoctrineEntityConverter</title>
<path fill="#9999cc" stroke="#000000" d="M417,-543C417,-543 214,-543 214,-543 208,-543 202,-537 202,-531 202,-531 202,-519 202,-519 202,-513 208,-507 214,-507 214,-507 417,-507 417,-507 423,-507 429,-513 429,-519 429,-519 429,-531 429,-531 429,-537 423,-543 417,-543"/>
<text text-anchor="middle" x="315.5" y="-522.5" font-family="Times,serif" font-size="10.00" fill="#000033">Apie\DoctrineEntityConverter</text>
</g>
<!-- Apie\\DoctrineEntityConverter&#45;&gt;Apie\\CommonValueObjects -->
<g id="edge11" class="edge">
<title>Apie\\DoctrineEntityConverter&#45;&gt;Apie\\CommonValueObjects</title>
<path fill="none" stroke="#999999" d="M429.3867,-514.4248C451.0217,-512.4158 473.5193,-510.3268 494.7128,-508.3588"/>
<polygon fill="#999999" stroke="#999999" points="495.1687,-510.4256 500.9488,-507.7798 494.7803,-506.2436 495.1687,-510.4256"/>
</g>
<!-- Apie\\DoctrineEntityConverter&#45;&gt;Apie\\Core -->
<g id="edge8" class="edge">
<title>Apie\\DoctrineEntityConverter&#45;&gt;Apie\\Core</title>
<path fill="none" stroke="#999999" d="M429.1188,-541.5025C561.7886,-557.1625 786.9177,-572.4693 974,-529 1002.9087,-522.283 1032.9314,-507.1494 1054.9058,-494.3062"/>
<polygon fill="#999999" stroke="#999999" points="1056.2255,-495.965 1060.3135,-491.0969 1054.082,-492.3532 1056.2255,-495.965"/>
</g>
<!-- Nette\\PhpGenerator -->
<g id="node14" class="node">
<title>Nette\\PhpGenerator</title>
<path fill="#9999cc" stroke="#000000" d="M659.5,-321C659.5,-321 531.5,-321 531.5,-321 525.5,-321 519.5,-315 519.5,-309 519.5,-309 519.5,-297 519.5,-297 519.5,-291 525.5,-285 531.5,-285 531.5,-285 659.5,-285 659.5,-285 665.5,-285 671.5,-291 671.5,-297 671.5,-297 671.5,-309 671.5,-309 671.5,-315 665.5,-321 659.5,-321"/>
<text text-anchor="middle" x="595.5" y="-300.5" font-family="Times,serif" font-size="10.00" fill="#000033">Nette\PhpGenerator</text>
</g>
<!-- Apie\\DoctrineEntityConverter&#45;&gt;Nette\\PhpGenerator -->
<g id="edge9" class="edge">
<title>Apie\\DoctrineEntityConverter&#45;&gt;Nette\\PhpGenerator</title>
<path fill="none" stroke="#999999" d="M409.6071,-506.9952C416.5251,-503.6506 423.0945,-499.6898 429,-495 482.5585,-452.4675 453.8151,-408.5087 501,-359 514.4757,-344.8606 532.295,-333.0714 548.8252,-324.0149"/>
<polygon fill="#999999" stroke="#999999" points="550.0722,-325.7296 554.3736,-321.049 548.0921,-322.0256 550.0722,-325.7296"/>
</g>
<!-- Doctrine\\ORM -->
<g id="node15" class="node">
<title>Doctrine\\ORM</title>
<path fill="#9999cc" stroke="#000000" d="M637,-238C637,-238 554,-238 554,-238 548,-238 542,-232 542,-226 542,-226 542,-214 542,-214 542,-208 548,-202 554,-202 554,-202 637,-202 637,-202 643,-202 649,-208 649,-214 649,-214 649,-226 649,-226 649,-232 643,-238 637,-238"/>
<text text-anchor="middle" x="595.5" y="-217.5" font-family="Times,serif" font-size="10.00" fill="#000033">Doctrine\ORM</text>
</g>
<!-- Apie\\DoctrineEntityConverter&#45;&gt;Doctrine\\ORM -->
<g id="edge10" class="edge">
<title>Apie\\DoctrineEntityConverter&#45;&gt;Doctrine\\ORM</title>
<path fill="none" stroke="#999999" d="M412.6859,-506.8682C418.5865,-503.5353 424.1053,-499.613 429,-495 503.5626,-424.7277 436.8349,-355.8788 501,-276 512.6958,-261.44 529.272,-249.8248 545.2834,-241.0319"/>
<polygon fill="#999999" stroke="#999999" points="546.3737,-242.8306 550.6838,-238.158 544.4005,-239.1229 546.3737,-242.8306"/>
</g>
<!-- Apie\\Faker -->
<g id="node7" class="node">
<title>Apie\\Faker</title>
<path fill="#9999cc" stroke="#000000" d="M349.5,-491C349.5,-491 281.5,-491 281.5,-491 275.5,-491 269.5,-485 269.5,-479 269.5,-479 269.5,-467 269.5,-467 269.5,-461 275.5,-455 281.5,-455 281.5,-455 349.5,-455 349.5,-455 355.5,-455 361.5,-461 361.5,-467 361.5,-467 361.5,-479 361.5,-479 361.5,-485 355.5,-491 349.5,-491"/>
<text text-anchor="middle" x="315.5" y="-470.5" font-family="Times,serif" font-size="10.00" fill="#000033">Apie\Faker</text>
</g>
<!-- Apie\\Faker&#45;&gt;Apie\\CommonValueObjects -->
<g id="edge15" class="edge">
<title>Apie\\Faker&#45;&gt;Apie\\CommonValueObjects</title>
<path fill="none" stroke="#999999" d="M361.7363,-477.2934C397.8591,-480.6476 449.3951,-485.4331 494.8899,-489.6576"/>
<polygon fill="#999999" stroke="#999999" points="494.8108,-491.7592 500.9793,-490.2231 495.1992,-487.5772 494.8108,-491.7592"/>
</g>
<!-- Apie\\Faker&#45;&gt;Apie\\Core -->
<g id="edge14" class="edge">
<title>Apie\\Faker&#45;&gt;Apie\\Core</title>
<path fill="none" stroke="#999999" d="M361.51,-473C498.014,-473 899.8836,-473 1039.526,-473"/>
<polygon fill="#999999" stroke="#999999" points="1039.5783,-475.1001 1045.5783,-473 1039.5782,-470.9001 1039.5783,-475.1001"/>
</g>
<!-- Apie\\Faker&#45;&gt;Faker\\Generator -->
<g id="edge13" class="edge">
<title>Apie\\Faker&#45;&gt;Faker\\Generator</title>
<path fill="none" stroke="#999999" d="M321.5771,-454.787C339.6513,-403.7189 398.3021,-258.6165 501,-193 504.1161,-191.009 691.5172,-163.072 797.2773,-147.4278"/>
<polygon fill="#999999" stroke="#999999" points="797.8701,-149.463 803.4983,-146.5078 797.2556,-145.3082 797.8701,-149.463"/>
</g>
<!-- Faker\\Provider -->
<g id="node12" class="node">
<title>Faker\\Provider</title>
<path fill="#9999cc" stroke="#000000" d="M917,-112C917,-112 819,-112 819,-112 813,-112 807,-106 807,-100 807,-100 807,-88 807,-88 807,-82 813,-76 819,-76 819,-76 917,-76 917,-76 923,-76 929,-82 929,-88 929,-88 929,-100 929,-100 929,-106 923,-112 917,-112"/>
<text text-anchor="middle" x="868" y="-91.5" font-family="Times,serif" font-size="10.00" fill="#000033">Faker\Provider</text>
</g>
<!-- Apie\\Faker&#45;&gt;Faker\\Provider -->
<g id="edge12" class="edge">
<title>Apie\\Faker&#45;&gt;Faker\\Provider</title>
<path fill="none" stroke="#999999" d="M320.7004,-454.8594C337.1336,-401.038 393.3394,-241.3257 501,-166 590.9603,-103.0585 722.1986,-91.8528 800.9352,-91.4982"/>
<polygon fill="#999999" stroke="#999999" points="800.9827,-93.5983 806.9804,-91.4919 800.9782,-89.3983 800.9827,-93.5983"/>
</g>
<!-- Apie\\Fixtures -->
<g id="node8" class="node">
<title>Apie\\Fixtures</title>
<path fill="#9999cc" stroke="#000000" d="M118,-465C118,-465 28,-465 28,-465 22,-465 16,-459 16,-453 16,-453 16,-441 16,-441 16,-435 22,-429 28,-429 28,-429 118,-429 118,-429 124,-429 130,-435 130,-441 130,-441 130,-453 130,-453 130,-459 124,-465 118,-465"/>
<text text-anchor="middle" x="73" y="-444.5" font-family="Times,serif" font-size="10.00" fill="#000033">Apie\Fixtures</text>
</g>
<!-- Apie\\Fixtures&#45;&gt;Apie\\CommonValueObjects -->
<g id="edge17" class="edge">
<title>Apie\\Fixtures&#45;&gt;Apie\\CommonValueObjects</title>
<path fill="none" stroke="#999999" d="M111.8437,-465.0503C136.963,-475.735 170.6991,-488.2702 202,-494 255.9778,-503.8809 397.1516,-503.3302 494.8394,-501.5488"/>
<polygon fill="#999999" stroke="#999999" points="494.9572,-503.6471 500.917,-501.4354 494.8788,-499.4478 494.9572,-503.6471"/>
</g>
<!-- Apie\\Fixtures&#45;&gt;Apie\\Core -->
<g id="edge16" class="edge">
<title>Apie\\Fixtures&#45;&gt;Apie\\Core</title>
<path fill="none" stroke="#999999" d="M130.1913,-444.2228C315.4303,-435.4281 891.7417,-409.7084 974,-426 999.8314,-431.116 1027.1592,-442.1669 1048.5813,-452.2681"/>
<polygon fill="#999999" stroke="#999999" points="1047.859,-454.2505 1054.1775,-454.9484 1049.6733,-450.4626 1047.859,-454.2505"/>
</g>
<!-- Apie\\Fixtures&#45;&gt;Apie\\CompositeValueObjects -->
<g id="edge18" class="edge">
<title>Apie\\Fixtures&#45;&gt;Apie\\CompositeValueObjects</title>
<path fill="none" stroke="#999999" d="M130.1744,-447C260.8889,-447 583.5329,-447 755.6333,-447"/>
<polygon fill="#999999" stroke="#999999" points="755.6914,-449.1001 761.6913,-447 755.6913,-444.9001 755.6914,-449.1001"/>
</g>
<!-- Apie\\Fixtures&#45;&gt;Apie\\Faker -->
<g id="edge20" class="edge">
<title>Apie\\Fixtures&#45;&gt;Apie\\Faker</title>
<path fill="none" stroke="#999999" d="M130.162,-453.1287C170.4355,-457.4467 223.9469,-463.184 263.1149,-467.3835"/>
<polygon fill="#999999" stroke="#999999" points="263.0841,-469.4921 269.2738,-468.0438 263.5319,-465.316 263.0841,-469.4921"/>
</g>
<!-- Apie\\Fixtures&#45;&gt;Faker\\Generator -->
<g id="edge19" class="edge">
<title>Apie\\Fixtures&#45;&gt;Faker\\Generator</title>
<path fill="none" stroke="#999999" d="M91.8941,-428.9239C148.377,-376.1972 323.0847,-222.4913 501,-162 599.6544,-128.4574 721.6365,-127.5164 797.1346,-131.2451"/>
<polygon fill="#999999" stroke="#999999" points="797.2893,-133.3559 803.3902,-131.57 797.5072,-129.1615 797.2893,-133.3559"/>
</g>
<!-- Faker\\Factory -->
<g id="node13" class="node">
<title>Faker\\Factory</title>
<path fill="#9999cc" stroke="#000000" d="M913,-69C913,-69 823,-69 823,-69 817,-69 811,-63 811,-57 811,-57 811,-45 811,-45 811,-39 817,-33 823,-33 823,-33 913,-33 913,-33 919,-33 925,-39 925,-45 925,-45 925,-57 925,-57 925,-63 919,-69 913,-69"/>
<text text-anchor="middle" x="868" y="-48.5" font-family="Times,serif" font-size="10.00" fill="#000033">Faker\Factory</text>
</g>
<!-- Apie\\Fixtures&#45;&gt;Faker\\Factory -->
<g id="edge21" class="edge">
<title>Apie\\Fixtures&#45;&gt;Faker\\Factory</title>
<path fill="none" stroke="#999999" d="M76.5421,-428.6729C86.7306,-381.1882 120.7479,-253.5219 202,-191 385.0175,-50.1716 676.786,-42.7762 804.5667,-47.1561"/>
<polygon fill="#999999" stroke="#999999" points="804.824,-49.2668 810.8967,-47.3874 804.9775,-45.0696 804.824,-49.2668"/>
</g>
<!-- Apie\\SchemaGenerator -->
<g id="node9" class="node">
<title>Apie\\SchemaGenerator</title>
<path fill="#9999cc" stroke="#000000" d="M667,-413C667,-413 524,-413 524,-413 518,-413 512,-407 512,-401 512,-401 512,-389 512,-389 512,-383 518,-377 524,-377 524,-377 667,-377 667,-377 673,-377 679,-383 679,-389 679,-389 679,-401 679,-401 679,-407 673,-413 667,-413"/>
<text text-anchor="middle" x="595.5" y="-392.5" font-family="Times,serif" font-size="10.00" fill="#000033">Apie\SchemaGenerator</text>
</g>
<!-- Apie\\SchemaGenerator&#45;&gt;Apie\\Core -->
<g id="edge24" class="edge">
<title>Apie\\SchemaGenerator&#45;&gt;Apie\\Core</title>
<path fill="none" stroke="#999999" d="M679.3316,-401.295C705.7749,-403.2128 735.1031,-405.2696 762,-407 809.0892,-410.0294 928.2741,-407.3506 974,-419 1001.7808,-426.0776 1030.9589,-440.0369 1052.8411,-451.9893"/>
<polygon fill="#999999" stroke="#999999" points="1051.9755,-453.9104 1058.2419,-454.9794 1054.0099,-450.2359 1051.9755,-453.9104"/>
</g>
<!-- Apie\\SchemaGenerator&#45;&gt;Apie\\CompositeValueObjects -->
<g id="edge23" class="edge">
<title>Apie\\SchemaGenerator&#45;&gt;Apie\\CompositeValueObjects</title>
<path fill="none" stroke="#999999" d="M679.1109,-410.9551C707.0085,-416.2787 738.3854,-422.2662 767.4342,-427.8095"/>
<polygon fill="#999999" stroke="#999999" points="767.3082,-429.9232 773.5955,-428.9852 768.0955,-425.7977 767.3082,-429.9232"/>
</g>
<!-- Apie\\SchemaGenerator&#45;&gt;Apie\\DateformatToRegex -->
<g id="edge25" class="edge">
<title>Apie\\SchemaGenerator&#45;&gt;Apie\\DateformatToRegex</title>
<path fill="none" stroke="#999999" d="M679.1109,-392.2385C708.031,-391.2834 740.69,-390.2047 770.6184,-389.2163"/>
<polygon fill="#999999" stroke="#999999" points="771.0337,-391.3038 776.9611,-389.0068 770.895,-387.1061 771.0337,-391.3038"/>
</g>
<!-- cebe\\openapi -->
<g id="node16" class="node">
<title>cebe\\openapi</title>
<path fill="#9999cc" stroke="#000000" d="M909.5,-238C909.5,-238 826.5,-238 826.5,-238 820.5,-238 814.5,-232 814.5,-226 814.5,-226 814.5,-214 814.5,-214 814.5,-208 820.5,-202 826.5,-202 826.5,-202 909.5,-202 909.5,-202 915.5,-202 921.5,-208 921.5,-214 921.5,-214 921.5,-226 921.5,-226 921.5,-232 915.5,-238 909.5,-238"/>
<text text-anchor="middle" x="868" y="-217.5" font-family="Times,serif" font-size="10.00" fill="#000033">cebe\openapi</text>
</g>
<!-- Apie\\SchemaGenerator&#45;&gt;cebe\\openapi -->
<g id="edge22" class="edge">
<title>Apie\\SchemaGenerator&#45;&gt;cebe\\openapi</title>
<path fill="none" stroke="#999999" d="M646.0784,-376.9552C660.9012,-370.5196 676.6896,-362.474 690,-353 728.1708,-325.8311 724.7721,-304.4472 762,-276 779.8347,-262.3718 801.4544,-250.2878 820.505,-240.8655"/>
<polygon fill="#999999" stroke="#999999" points="821.854,-242.5442 826.3277,-238.028 820.0141,-238.7686 821.854,-242.5442"/>
</g>
</g>
</svg>
