<?xml version="1.0" encoding="UTF-8" standalone="no"?>
<!DOCTYPE svg PUBLIC "-//W3C//DTD SVG 1.1//EN"
 "http://www.w3.org/Graphics/SVG/1.1/DTD/svg11.dtd">
<!-- Generated by graphviz version 2.40.1 (0)
 -->
<!-- Title: G Pages: 1 -->
<svg width="1028pt" height="1160pt"
 viewBox="0.00 0.00 1028.00 1160.00" xmlns="http://www.w3.org/2000/svg" xmlns:xlink="http://www.w3.org/1999/xlink">
<g id="graph0" class="graph" transform="scale(1 1) rotate(0) translate(4 1156)">
<title>G</title>
<polygon fill="#ffffff" stroke="transparent" points="-4,4 -4,-1156 1024,-1156 1024,4 -4,4"/>
<text text-anchor="middle" x="510" y="-6.6" font-family="Times,serif" font-size="8.00" fill="#000000">PhpDependencyAnalysis by Marco Muths v2.0.2</text>
<g id="clust1" class="cluster">
<title>cluster_0</title>
<path fill="#ccccff" stroke="#000033" d="M20,-758C20,-758 765,-758 765,-758 771,-758 777,-764 777,-770 777,-770 777,-1132 777,-1132 777,-1138 771,-1144 765,-1144 765,-1144 20,-1144 20,-1144 14,-1144 8,-1138 8,-1132 8,-1132 8,-770 8,-770 8,-764 14,-758 20,-758"/>
<text text-anchor="middle" x="31.5" y="-1128.8" font-family="Times,serif" font-size="14.00" fill="#000033">Apie</text>
</g>
<g id="clust2" class="cluster">
<title>cluster_1</title>
<path fill="#ccccff" stroke="#000033" d="M905,-1058C905,-1058 974,-1058 974,-1058 980,-1058 986,-1064 986,-1070 986,-1070 986,-1121 986,-1121 986,-1127 980,-1133 974,-1133 974,-1133 905,-1133 905,-1133 899,-1133 893,-1127 893,-1121 893,-1121 893,-1070 893,-1070 893,-1064 899,-1058 905,-1058"/>
<text text-anchor="middle" x="912.5" y="-1117.8" font-family="Times,serif" font-size="14.00" fill="#000033">Psr</text>
</g>
<g id="clust3" class="cluster">
<title>cluster_2</title>
<path fill="#ccccff" stroke="#000033" d="M894,-965C894,-965 985,-965 985,-965 991,-965 997,-971 997,-977 997,-977 997,-1028 997,-1028 997,-1034 991,-1040 985,-1040 985,-1040 894,-1040 894,-1040 888,-1040 882,-1034 882,-1028 882,-1028 882,-977 882,-977 882,-971 888,-965 894,-965"/>
<text text-anchor="middle" x="913" y="-1024.8" font-family="Times,serif" font-size="14.00" fill="#000033">Ramsey</text>
</g>
<g id="clust4" class="cluster">
<title>cluster_3</title>
<path fill="#ccccff" stroke="#000033" d="M879,-474C879,-474 1000,-474 1000,-474 1006,-474 1012,-480 1012,-486 1012,-486 1012,-580 1012,-580 1012,-586 1006,-592 1000,-592 1000,-592 879,-592 879,-592 873,-592 867,-586 867,-580 867,-580 867,-486 867,-486 867,-480 873,-474 879,-474"/>
<text text-anchor="middle" x="894" y="-576.8" font-family="Times,serif" font-size="14.00" fill="#000033">Faker</text>
</g>
<g id="clust5" class="cluster">
<title>cluster_4</title>
<path fill="#ccccff" stroke="#000033" d="M360,-403C360,-403 519,-403 519,-403 525,-403 531,-409 531,-415 531,-415 531,-466 531,-466 531,-472 525,-478 519,-478 519,-478 360,-478 360,-478 354,-478 348,-472 348,-466 348,-466 348,-415 348,-415 348,-409 354,-403 360,-403"/>
<text text-anchor="middle" x="394" y="-462.8" font-family="Times,serif" font-size="14.00" fill="#000033">PrinsFrank</text>
</g>
<g id="clust6" class="cluster">
<title>cluster_5</title>
<path fill="#ccccff" stroke="#000033" d="M304,-191C304,-191 575,-191 575,-191 581,-191 587,-197 587,-203 587,-203 587,-383 587,-383 587,-389 581,-395 575,-395 575,-395 304,-395 304,-395 298,-395 292,-389 292,-383 292,-383 292,-203 292,-203 292,-197 298,-191 304,-191"/>
<text text-anchor="middle" x="353" y="-379.8" font-family="Times,serif" font-size="14.00" fill="#000033">libphonenumber</text>
</g>
<g id="clust7" class="cluster">
<title>cluster_6</title>
<path fill="#ccccff" stroke="#000033" d="M655,-675C655,-675 799,-675 799,-675 805,-675 811,-681 811,-687 811,-687 811,-738 811,-738 811,-744 805,-750 799,-750 799,-750 655,-750 655,-750 649,-750 643,-744 643,-738 643,-738 643,-687 643,-687 643,-681 649,-675 655,-675"/>
<text text-anchor="middle" x="670" y="-734.8" font-family="Times,serif" font-size="14.00" fill="#000033">Nette</text>
</g>
<g id="clust8" class="cluster">
<title>cluster_7</title>
<path fill="#ccccff" stroke="#000033" d="M677.5,-592C677.5,-592 776.5,-592 776.5,-592 782.5,-592 788.5,-598 788.5,-604 788.5,-604 788.5,-655 788.5,-655 788.5,-661 782.5,-667 776.5,-667 776.5,-667 677.5,-667 677.5,-667 671.5,-667 665.5,-661 665.5,-655 665.5,-655 665.5,-604 665.5,-604 665.5,-598 671.5,-592 677.5,-592"/>
<text text-anchor="middle" x="704" y="-651.8" font-family="Times,serif" font-size="14.00" fill="#000033">Doctrine</text>
</g>
<g id="clust9" class="cluster">
<title>cluster_8</title>
<path fill="#ccccff" stroke="#000033" d="M394,-108C394,-108 485,-108 485,-108 491,-108 497,-114 497,-120 497,-120 497,-171 497,-171 497,-177 491,-183 485,-183 485,-183 394,-183 394,-183 388,-183 382,-177 382,-171 382,-171 382,-120 382,-120 382,-114 388,-108 394,-108"/>
<text text-anchor="middle" x="413" y="-167.8" font-family="Times,serif" font-size="14.00" fill="#000033">Nyholm</text>
</g>
<g id="clust10" class="cluster">
<title>cluster_9</title>
<path fill="#ccccff" stroke="#000033" d="M390,-25C390,-25 489,-25 489,-25 495,-25 501,-31 501,-37 501,-37 501,-88 501,-88 501,-94 495,-100 489,-100 489,-100 390,-100 390,-100 384,-100 378,-94 378,-88 378,-88 378,-37 378,-37 378,-31 384,-25 390,-25"/>
<text text-anchor="middle" x="401.5" y="-84.8" font-family="Times,serif" font-size="14.00" fill="#000033">cebe</text>
</g>
<!-- Apie\\CompositeValueObjects -->
<g id="node1" class="node">
<title>Apie\\CompositeValueObjects</title>
<path fill="#9999cc" stroke="#000000" d="M533.5,-1035C533.5,-1035 345.5,-1035 345.5,-1035 339.5,-1035 333.5,-1029 333.5,-1023 333.5,-1023 333.5,-1011 333.5,-1011 333.5,-1005 339.5,-999 345.5,-999 345.5,-999 533.5,-999 533.5,-999 539.5,-999 545.5,-1005 545.5,-1011 545.5,-1011 545.5,-1023 545.5,-1023 545.5,-1029 539.5,-1035 533.5,-1035"/>
<text text-anchor="middle" x="439.5" y="-1014.5" font-family="Times,serif" font-size="10.00" fill="#000033">Apie\CompositeValueObjects</text>
</g>
<!-- Apie\\Core -->
<g id="node2" class="node">
<title>Apie\\Core</title>
<path fill="#9999cc" stroke="#000000" d="M757,-1009C757,-1009 697,-1009 697,-1009 691,-1009 685,-1003 685,-997 685,-997 685,-985 685,-985 685,-979 691,-973 697,-973 697,-973 757,-973 757,-973 763,-973 769,-979 769,-985 769,-985 769,-997 769,-997 769,-1003 763,-1009 757,-1009"/>
<text text-anchor="middle" x="727" y="-988.5" font-family="Times,serif" font-size="10.00" fill="#000033">Apie\Core</text>
</g>
<!-- Apie\\CompositeValueObjects&#45;&gt;Apie\\Core -->
<g id="edge1" class="edge">
<title>Apie\\CompositeValueObjects&#45;&gt;Apie\\Core</title>
<path fill="none" stroke="#999999" d="M545.7376,-1007.3924C591.4028,-1003.2627 642.4984,-998.6419 678.7711,-995.3616"/>
<polygon fill="#999999" stroke="#999999" points="679.1272,-997.438 684.9136,-994.8061 678.7488,-993.2551 679.1272,-997.438"/>
</g>
<!-- Psr\\Http -->
<g id="node14" class="node">
<title>Psr\\Http</title>
<path fill="#9999cc" stroke="#000000" d="M966,-1102C966,-1102 913,-1102 913,-1102 907,-1102 901,-1096 901,-1090 901,-1090 901,-1078 901,-1078 901,-1072 907,-1066 913,-1066 913,-1066 966,-1066 966,-1066 972,-1066 978,-1072 978,-1078 978,-1078 978,-1090 978,-1090 978,-1096 972,-1102 966,-1102"/>
<text text-anchor="middle" x="939.5" y="-1081.5" font-family="Times,serif" font-size="10.00" fill="#000033">Psr\Http</text>
</g>
<!-- Apie\\Core&#45;&gt;Psr\\Http -->
<g id="edge2" class="edge">
<title>Apie\\Core&#45;&gt;Psr\\Http</title>
<path fill="none" stroke="#999999" d="M768.2241,-1009.0416C804.6563,-1024.986 857.662,-1048.1838 895.0364,-1064.5406"/>
<polygon fill="#999999" stroke="#999999" points="894.557,-1066.6231 900.8956,-1067.1049 896.2409,-1062.7754 894.557,-1066.6231"/>
</g>
<!-- Ramsey\\Uuid -->
<g id="node15" class="node">
<title>Ramsey\\Uuid</title>
<path fill="#9999cc" stroke="#000000" d="M977,-1009C977,-1009 902,-1009 902,-1009 896,-1009 890,-1003 890,-997 890,-997 890,-985 890,-985 890,-979 896,-973 902,-973 902,-973 977,-973 977,-973 983,-973 989,-979 989,-985 989,-985 989,-997 989,-997 989,-1003 983,-1009 977,-1009"/>
<text text-anchor="middle" x="939.5" y="-988.5" font-family="Times,serif" font-size="10.00" fill="#000033">Ramsey\Uuid</text>
</g>
<!-- Apie\\Core&#45;&gt;Ramsey\\Uuid -->
<g id="edge3" class="edge">
<title>Apie\\Core&#45;&gt;Ramsey\\Uuid</title>
<path fill="none" stroke="#999999" d="M769.2372,-991C802.0754,-991 847.9195,-991 883.7656,-991"/>
<polygon fill="#999999" stroke="#999999" points="883.882,-993.1001 889.882,-991 883.882,-988.9001 883.882,-993.1001"/>
</g>
<!-- Faker\\Generator -->
<g id="node16" class="node">
<title>Faker\\Generator</title>
<path fill="#9999cc" stroke="#000000" d="M992,-561C992,-561 887,-561 887,-561 881,-561 875,-555 875,-549 875,-549 875,-537 875,-537 875,-531 881,-525 887,-525 887,-525 992,-525 992,-525 998,-525 1004,-531 1004,-537 1004,-537 1004,-549 1004,-549 1004,-555 998,-561 992,-561"/>
<text text-anchor="middle" x="939.5" y="-540.5" font-family="Times,serif" font-size="10.00" fill="#000033">Faker\Generator</text>
</g>
<!-- Apie\\Core&#45;&gt;Faker\\Generator -->
<g id="edge4" class="edge">
<title>Apie\\Core&#45;&gt;Faker\\Generator</title>
<path fill="none" stroke="#999999" d="M735.5934,-972.883C768.9664,-902.5249 890,-647.3577 928.0016,-567.2413"/>
<polygon fill="#999999" stroke="#999999" points="930.1256,-567.6635 930.7996,-561.3424 926.3308,-565.8635 930.1256,-567.6635"/>
</g>
<!-- Apie\\CountryAndPhoneNumber -->
<g id="node3" class="node">
<title>Apie\\CountryAndPhoneNumber</title>
<path fill="#9999cc" stroke="#000000" d="M216,-1070C216,-1070 28,-1070 28,-1070 22,-1070 16,-1064 16,-1058 16,-1058 16,-1046 16,-1046 16,-1040 22,-1034 28,-1034 28,-1034 216,-1034 216,-1034 222,-1034 228,-1040 228,-1046 228,-1046 228,-1058 228,-1058 228,-1064 222,-1070 216,-1070"/>
<text text-anchor="middle" x="122" y="-1049.5" font-family="Times,serif" font-size="10.00" fill="#000033">Apie\CountryAndPhoneNumber</text>
</g>
<!-- Apie\\CountryAndPhoneNumber&#45;&gt;Apie\\CompositeValueObjects -->
<g id="edge7" class="edge">
<title>Apie\\CountryAndPhoneNumber&#45;&gt;Apie\\CompositeValueObjects</title>
<path fill="none" stroke="#999999" d="M228.1643,-1040.2968C260.0697,-1036.7797 295.1699,-1032.9104 327.4438,-1029.3527"/>
<polygon fill="#999999" stroke="#999999" points="327.702,-1031.437 333.4357,-1028.6921 327.2417,-1027.2623 327.702,-1031.437"/>
</g>
<!-- Apie\\CountryAndPhoneNumber&#45;&gt;Apie\\Core -->
<g id="edge6" class="edge">
<title>Apie\\CountryAndPhoneNumber&#45;&gt;Apie\\Core</title>
<path fill="none" stroke="#999999" d="M228.0296,-1054.0566C343.5925,-1055.5681 520.8593,-1055.5484 587,-1043 620.4137,-1036.6607 656.3412,-1023.1658 683.4342,-1011.5124"/>
<polygon fill="#999999" stroke="#999999" points="684.4135,-1013.3766 689.0774,-1009.0569 682.7377,-1009.5253 684.4135,-1013.3766"/>
</g>
<!-- Apie\\CountryAndPhoneNumber&#45;&gt;Faker\\Generator -->
<g id="edge10" class="edge">
<title>Apie\\CountryAndPhoneNumber&#45;&gt;Faker\\Generator</title>
<path fill="none" stroke="#999999" d="M223.7899,-1033.7229C225.2453,-1032.5483 226.6508,-1031.3085 228,-1030 315.5978,-945.0442 220.7909,-862.0965 292,-763 399.4368,-613.4881 466.057,-593.8691 643,-543 683.7208,-531.2932 794.6788,-534.6427 868.7023,-538.5253"/>
<polygon fill="#999999" stroke="#999999" points="868.7519,-540.6309 874.8553,-538.8537 868.9758,-536.4368 868.7519,-540.6309"/>
</g>
<!-- PrinsFrank\\Standards -->
<g id="node18" class="node">
<title>PrinsFrank\\Standards</title>
<path fill="#9999cc" stroke="#000000" d="M511,-447C511,-447 368,-447 368,-447 362,-447 356,-441 356,-435 356,-435 356,-423 356,-423 356,-417 362,-411 368,-411 368,-411 511,-411 511,-411 517,-411 523,-417 523,-423 523,-423 523,-435 523,-435 523,-441 517,-447 511,-447"/>
<text text-anchor="middle" x="439.5" y="-426.5" font-family="Times,serif" font-size="10.00" fill="#000033">PrinsFrank\Standards</text>
</g>
<!-- Apie\\CountryAndPhoneNumber&#45;&gt;PrinsFrank\\Standards -->
<g id="edge5" class="edge">
<title>Apie\\CountryAndPhoneNumber&#45;&gt;PrinsFrank\\Standards</title>
<path fill="none" stroke="#999999" d="M223.9909,-1033.9193C225.3847,-1032.6846 226.7234,-1031.3794 228,-1030 380.1745,-865.5776 175.1204,-721.1307 292,-530 314.5763,-493.0815 356.3166,-466.4169 389.6477,-449.7885"/>
<polygon fill="#999999" stroke="#999999" points="390.8753,-451.5258 395.3426,-447.0033 389.03,-447.7529 390.8753,-451.5258"/>
</g>
<!-- libphonenumber\\PhoneNumberUtil -->
<g id="node19" class="node">
<title>libphonenumber\\PhoneNumberUtil</title>
<path fill="#9999cc" stroke="#000000" d="M548.5,-364C548.5,-364 330.5,-364 330.5,-364 324.5,-364 318.5,-358 318.5,-352 318.5,-352 318.5,-340 318.5,-340 318.5,-334 324.5,-328 330.5,-328 330.5,-328 548.5,-328 548.5,-328 554.5,-328 560.5,-334 560.5,-340 560.5,-340 560.5,-352 560.5,-352 560.5,-358 554.5,-364 548.5,-364"/>
<text text-anchor="middle" x="439.5" y="-343.5" font-family="Times,serif" font-size="10.00" fill="#000033">libphonenumber\PhoneNumberUtil</text>
</g>
<!-- Apie\\CountryAndPhoneNumber&#45;&gt;libphonenumber\\PhoneNumberUtil -->
<g id="edge8" class="edge">
<title>Apie\\CountryAndPhoneNumber&#45;&gt;libphonenumber\\PhoneNumberUtil</title>
<path fill="none" stroke="#999999" d="M224.0404,-1033.9645C225.4191,-1032.7159 226.7412,-1031.3957 228,-1030 321.9499,-925.8298 206.5756,-513.2686 292,-402 304.2443,-386.0513 321.5943,-374.6446 340.1153,-366.4864"/>
<polygon fill="#999999" stroke="#999999" points="341.1783,-368.3176 345.8965,-364.0574 339.5514,-364.4455 341.1783,-368.3176"/>
</g>
<!-- libphonenumber\\PhoneNumberFormat -->
<g id="node20" class="node">
<title>libphonenumber\\PhoneNumberFormat</title>
<path fill="#9999cc" stroke="#000000" d="M556,-321C556,-321 323,-321 323,-321 317,-321 311,-315 311,-309 311,-309 311,-297 311,-297 311,-291 317,-285 323,-285 323,-285 556,-285 556,-285 562,-285 568,-291 568,-297 568,-297 568,-309 568,-309 568,-315 562,-321 556,-321"/>
<text text-anchor="middle" x="439.5" y="-300.5" font-family="Times,serif" font-size="10.00" fill="#000033">libphonenumber\PhoneNumberFormat</text>
</g>
<!-- Apie\\CountryAndPhoneNumber&#45;&gt;libphonenumber\\PhoneNumberFormat -->
<g id="edge9" class="edge">
<title>Apie\\CountryAndPhoneNumber&#45;&gt;libphonenumber\\PhoneNumberFormat</title>
<path fill="none" stroke="#999999" d="M224.0617,-1033.9836C225.4339,-1032.7292 226.7489,-1031.4026 228,-1030 332.7115,-912.6023 184.0096,-439.3888 292,-325 296.0463,-320.714 300.5393,-317.0163 305.3677,-313.8362"/>
<polygon fill="#999999" stroke="#999999" points="306.69,-315.4905 310.7334,-310.5852 304.5136,-311.8984 306.69,-315.4905"/>
</g>
<!-- libphonenumber\\PhoneNumber -->
<g id="node21" class="node">
<title>libphonenumber\\PhoneNumber</title>
<path fill="#9999cc" stroke="#000000" d="M533.5,-278C533.5,-278 345.5,-278 345.5,-278 339.5,-278 333.5,-272 333.5,-266 333.5,-266 333.5,-254 333.5,-254 333.5,-248 339.5,-242 345.5,-242 345.5,-242 533.5,-242 533.5,-242 539.5,-242 545.5,-248 545.5,-254 545.5,-254 545.5,-266 545.5,-266 545.5,-272 539.5,-278 533.5,-278"/>
<text text-anchor="middle" x="439.5" y="-257.5" font-family="Times,serif" font-size="10.00" fill="#000033">libphonenumber\PhoneNumber</text>
</g>
<!-- Apie\\CountryAndPhoneNumber&#45;&gt;libphonenumber\\PhoneNumber -->
<g id="edge11" class="edge">
<title>Apie\\CountryAndPhoneNumber&#45;&gt;libphonenumber\\PhoneNumber</title>
<path fill="none" stroke="#999999" d="M224.0718,-1033.9926C225.4409,-1032.7355 226.7526,-1031.4059 228,-1030 338.7247,-905.2116 177.7897,-403.6064 292,-282 301.7708,-271.5965 314.1729,-264.6533 327.62,-260.1626"/>
<polygon fill="#999999" stroke="#999999" points="328.317,-262.1456 333.4425,-258.3852 327.0907,-258.1286 328.317,-262.1456"/>
</g>
<!-- libphonenumber\\NumberParseException -->
<g id="node22" class="node">
<title>libphonenumber\\NumberParseException</title>
<path fill="#9999cc" stroke="#000000" d="M567,-235C567,-235 312,-235 312,-235 306,-235 300,-229 300,-223 300,-223 300,-211 300,-211 300,-205 306,-199 312,-199 312,-199 567,-199 567,-199 573,-199 579,-205 579,-211 579,-211 579,-223 579,-223 579,-229 573,-235 567,-235"/>
<text text-anchor="middle" x="439.5" y="-214.5" font-family="Times,serif" font-size="10.00" fill="#000033">libphonenumber\NumberParseException</text>
</g>
<!-- Apie\\CountryAndPhoneNumber&#45;&gt;libphonenumber\\NumberParseException -->
<g id="edge12" class="edge">
<title>Apie\\CountryAndPhoneNumber&#45;&gt;libphonenumber\\NumberParseException</title>
<path fill="none" stroke="#999999" d="M224.489,-1033.6205C225.7082,-1032.4738 226.8802,-1031.2679 228,-1030 344.7399,-897.8187 171.5678,-367.8262 292,-239 293.083,-237.8416 294.1985,-236.7259 295.3446,-235.6518"/>
<polygon fill="#999999" stroke="#999999" points="296.7405,-237.221 299.9112,-231.7112 293.9966,-234.0412 296.7405,-237.221"/>
</g>
<!-- Apie\\DateValueObjects -->
<g id="node4" class="node">
<title>Apie\\DateValueObjects</title>
<path fill="#9999cc" stroke="#000000" d="M197,-1027C197,-1027 47,-1027 47,-1027 41,-1027 35,-1021 35,-1015 35,-1015 35,-1003 35,-1003 35,-997 41,-991 47,-991 47,-991 197,-991 197,-991 203,-991 209,-997 209,-1003 209,-1003 209,-1015 209,-1015 209,-1021 203,-1027 197,-1027"/>
<text text-anchor="middle" x="122" y="-1006.5" font-family="Times,serif" font-size="10.00" fill="#000033">Apie\DateValueObjects</text>
</g>
<!-- Apie\\DateValueObjects&#45;&gt;Apie\\CompositeValueObjects -->
<g id="edge14" class="edge">
<title>Apie\\DateValueObjects&#45;&gt;Apie\\CompositeValueObjects</title>
<path fill="none" stroke="#999999" d="M209.1782,-1011.1966C245.5979,-1012.1143 288.3739,-1013.1921 327.1124,-1014.1682"/>
<polygon fill="#999999" stroke="#999999" points="327.2424,-1016.272 333.2934,-1014.3239 327.3482,-1012.0734 327.2424,-1016.272"/>
</g>
<!-- Apie\\DateValueObjects&#45;&gt;Apie\\Core -->
<g id="edge13" class="edge">
<title>Apie\\DateValueObjects&#45;&gt;Apie\\Core</title>
<path fill="none" stroke="#999999" d="M209.4324,-1026.8231C235.8453,-1031.4196 265.0007,-1035.7136 292,-1038 357.3218,-1043.5316 522.3022,-1048.5701 587,-1038 618.5222,-1032.85 652.5186,-1021.5822 679.1163,-1011.3704"/>
<polygon fill="#999999" stroke="#999999" points="680.1889,-1013.2065 685.0198,-1009.0746 678.6666,-1009.2921 680.1889,-1013.2065"/>
</g>
<!-- Apie\\DateValueObjects&#45;&gt;Faker\\Generator -->
<g id="edge15" class="edge">
<title>Apie\\DateValueObjects&#45;&gt;Faker\\Generator</title>
<path fill="none" stroke="#999999" d="M209.0646,-1000.6607C216.1253,-997.2248 222.604,-992.7616 228,-987 368.1961,-837.3061 137.247,-664.591 292,-530 335.5124,-492.1567 753.4066,-527.0941 811,-530 829.7116,-530.9441 849.8976,-532.6568 868.6022,-534.5357"/>
<polygon fill="#999999" stroke="#999999" points="868.7019,-536.6568 874.8845,-535.1785 869.1294,-532.4786 868.7019,-536.6568"/>
</g>
<!-- Apie\\DateformatToRegex -->
<g id="node5" class="node">
<title>Apie\\DateformatToRegex</title>
<path fill="#9999cc" stroke="#000000" d="M518.5,-983C518.5,-983 360.5,-983 360.5,-983 354.5,-983 348.5,-977 348.5,-971 348.5,-971 348.5,-959 348.5,-959 348.5,-953 354.5,-947 360.5,-947 360.5,-947 518.5,-947 518.5,-947 524.5,-947 530.5,-953 530.5,-959 530.5,-959 530.5,-971 530.5,-971 530.5,-977 524.5,-983 518.5,-983"/>
<text text-anchor="middle" x="439.5" y="-962.5" font-family="Times,serif" font-size="10.00" fill="#000033">Apie\DateformatToRegex</text>
</g>
<!-- Apie\\DoctrineEntityConverter -->
<g id="node6" class="node">
<title>Apie\\DoctrineEntityConverter</title>
<path fill="#9999cc" stroke="#000000" d="M541,-802C541,-802 338,-802 338,-802 332,-802 326,-796 326,-790 326,-790 326,-778 326,-778 326,-772 332,-766 338,-766 338,-766 541,-766 541,-766 547,-766 553,-772 553,-778 553,-778 553,-790 553,-790 553,-796 547,-802 541,-802"/>
<text text-anchor="middle" x="439.5" y="-781.5" font-family="Times,serif" font-size="10.00" fill="#000033">Apie\DoctrineEntityConverter</text>
</g>
<!-- Apie\\DoctrineEntityConverter&#45;&gt;Apie\\Core -->
<g id="edge16" class="edge">
<title>Apie\\DoctrineEntityConverter&#45;&gt;Apie\\Core</title>
<path fill="none" stroke="#999999" d="M553.3662,-791.7429C565.1872,-795.2189 576.6462,-799.8565 587,-806 652.2058,-844.6905 697.2148,-926.5101 716.4727,-967.1115"/>
<polygon fill="#999999" stroke="#999999" points="714.6844,-968.2453 719.1265,-972.7927 718.4897,-966.4678 714.6844,-968.2453"/>
</g>
<!-- Nette\\PhpGenerator -->
<g id="node23" class="node">
<title>Nette\\PhpGenerator</title>
<path fill="#9999cc" stroke="#000000" d="M791,-719C791,-719 663,-719 663,-719 657,-719 651,-713 651,-707 651,-707 651,-695 651,-695 651,-689 657,-683 663,-683 663,-683 791,-683 791,-683 797,-683 803,-689 803,-695 803,-695 803,-707 803,-707 803,-713 797,-719 791,-719"/>
<text text-anchor="middle" x="727" y="-698.5" font-family="Times,serif" font-size="10.00" fill="#000033">Nette\PhpGenerator</text>
</g>
<!-- Apie\\DoctrineEntityConverter&#45;&gt;Nette\\PhpGenerator -->
<g id="edge17" class="edge">
<title>Apie\\DoctrineEntityConverter&#45;&gt;Nette\\PhpGenerator</title>
<path fill="none" stroke="#999999" d="M501.8832,-765.9902C547.9703,-752.6851 610.6951,-734.5767 658.2295,-720.8537"/>
<polygon fill="#999999" stroke="#999999" points="659.0607,-722.7996 664.2428,-719.1177 657.8957,-718.7644 659.0607,-722.7996"/>
</g>
<!-- Doctrine\\ORM -->
<g id="node24" class="node">
<title>Doctrine\\ORM</title>
<path fill="#9999cc" stroke="#000000" d="M768.5,-636C768.5,-636 685.5,-636 685.5,-636 679.5,-636 673.5,-630 673.5,-624 673.5,-624 673.5,-612 673.5,-612 673.5,-606 679.5,-600 685.5,-600 685.5,-600 768.5,-600 768.5,-600 774.5,-600 780.5,-606 780.5,-612 780.5,-612 780.5,-624 780.5,-624 780.5,-630 774.5,-636 768.5,-636"/>
<text text-anchor="middle" x="727" y="-615.5" font-family="Times,serif" font-size="10.00" fill="#000033">Doctrine\ORM</text>
</g>
<!-- Apie\\DoctrineEntityConverter&#45;&gt;Doctrine\\ORM -->
<g id="edge18" class="edge">
<title>Apie\\DoctrineEntityConverter&#45;&gt;Doctrine\\ORM</title>
<path fill="none" stroke="#999999" d="M470.8148,-765.9191C524.3897,-734.9854 633.3601,-672.0668 690.3723,-639.1485"/>
<polygon fill="#999999" stroke="#999999" points="691.5778,-640.8775 695.7238,-636.0586 689.4776,-637.2402 691.5778,-640.8775"/>
</g>
<!-- Apie\\Faker -->
<g id="node7" class="node">
<title>Apie\\Faker</title>
<path fill="#9999cc" stroke="#000000" d="M473.5,-888C473.5,-888 405.5,-888 405.5,-888 399.5,-888 393.5,-882 393.5,-876 393.5,-876 393.5,-864 393.5,-864 393.5,-858 399.5,-852 405.5,-852 405.5,-852 473.5,-852 473.5,-852 479.5,-852 485.5,-858 485.5,-864 485.5,-864 485.5,-876 485.5,-876 485.5,-882 479.5,-888 473.5,-888"/>
<text text-anchor="middle" x="439.5" y="-867.5" font-family="Times,serif" font-size="10.00" fill="#000033">Apie\Faker</text>
</g>
<!-- Apie\\Faker&#45;&gt;Apie\\Core -->
<g id="edge19" class="edge">
<title>Apie\\Faker&#45;&gt;Apie\\Core</title>
<path fill="none" stroke="#999999" d="M485.7992,-871.3953C515.6098,-873.6118 554.6839,-879.0257 587,-892 632.2516,-910.1676 676.9129,-945.6186 703.2123,-968.7968"/>
<polygon fill="#999999" stroke="#999999" points="702.0275,-970.5537 707.9053,-972.9749 704.8203,-967.4167 702.0275,-970.5537"/>
</g>
<!-- Apie\\Faker&#45;&gt;Faker\\Generator -->
<g id="edge20" class="edge">
<title>Apie\\Faker&#45;&gt;Faker\\Generator</title>
<path fill="none" stroke="#999999" d="M485.663,-875.8531C518.1433,-877.2573 560.4015,-873.193 587,-848 676.9257,-762.826 551.366,-658.3333 643,-575 645.0836,-573.1051 781.4231,-558.9917 868.4751,-550.1523"/>
<polygon fill="#999999" stroke="#999999" points="868.8979,-552.2203 874.6552,-549.5252 868.4738,-548.0417 868.8979,-552.2203"/>
</g>
<!-- Apie\\Fixtures -->
<g id="node8" class="node">
<title>Apie\\Fixtures</title>
<path fill="#9999cc" stroke="#000000" d="M167,-888C167,-888 77,-888 77,-888 71,-888 65,-882 65,-876 65,-876 65,-864 65,-864 65,-858 71,-852 77,-852 77,-852 167,-852 167,-852 173,-852 179,-858 179,-864 179,-864 179,-876 179,-876 179,-882 173,-888 167,-888"/>
<text text-anchor="middle" x="122" y="-867.5" font-family="Times,serif" font-size="10.00" fill="#000033">Apie\Fixtures</text>
</g>
<!-- Apie\\Fixtures&#45;&gt;Apie\\CompositeValueObjects -->
<g id="edge22" class="edge">
<title>Apie\\Fixtures&#45;&gt;Apie\\CompositeValueObjects</title>
<path fill="none" stroke="#999999" d="M147.7908,-888.1512C193.3705,-920.1728 284.127,-983.6554 292,-987 303.1614,-991.7416 315.1232,-995.75 327.2284,-999.1351"/>
<polygon fill="#999999" stroke="#999999" points="326.8392,-1001.2053 333.1796,-1000.7473 327.9375,-997.1514 326.8392,-1001.2053"/>
</g>
<!-- Apie\\Fixtures&#45;&gt;Apie\\Core -->
<g id="edge21" class="edge">
<title>Apie\\Fixtures&#45;&gt;Apie\\Core</title>
<path fill="none" stroke="#999999" d="M159.1046,-888.0078C192.8651,-903.4038 244.5281,-924.5265 292,-934 420.6497,-959.6733 457.907,-920.6572 587,-944 618.4305,-949.6833 652.4244,-960.9654 679.0437,-971.0513"/>
<polygon fill="#999999" stroke="#999999" points="678.5984,-973.1295 684.9526,-973.3162 680.1017,-969.2078 678.5984,-973.1295"/>
</g>
<!-- Apie\\Fixtures&#45;&gt;Apie\\Faker -->
<g id="edge24" class="edge">
<title>Apie\\Fixtures&#45;&gt;Apie\\Faker</title>
<path fill="none" stroke="#999999" d="M179.1293,-870C238.2142,-870 329.699,-870 387.0138,-870"/>
<polygon fill="#999999" stroke="#999999" points="387.1397,-872.1001 393.1396,-870 387.1396,-867.9001 387.1397,-872.1001"/>
</g>
<!-- Apie\\TextValueObjects -->
<g id="node9" class="node">
<title>Apie\\TextValueObjects</title>
<path fill="#9999cc" stroke="#000000" d="M514.5,-845C514.5,-845 364.5,-845 364.5,-845 358.5,-845 352.5,-839 352.5,-833 352.5,-833 352.5,-821 352.5,-821 352.5,-815 358.5,-809 364.5,-809 364.5,-809 514.5,-809 514.5,-809 520.5,-809 526.5,-815 526.5,-821 526.5,-821 526.5,-833 526.5,-833 526.5,-839 520.5,-845 514.5,-845"/>
<text text-anchor="middle" x="439.5" y="-824.5" font-family="Times,serif" font-size="10.00" fill="#000033">Apie\TextValueObjects</text>
</g>
<!-- Apie\\Fixtures&#45;&gt;Apie\\TextValueObjects -->
<g id="edge26" class="edge">
<title>Apie\\Fixtures&#45;&gt;Apie\\TextValueObjects</title>
<path fill="none" stroke="#999999" d="M179.1293,-862.2628C225.5451,-855.9766 291.956,-846.9823 346.0884,-839.651"/>
<polygon fill="#999999" stroke="#999999" points="346.6267,-841.6974 352.2906,-838.811 346.063,-837.5354 346.6267,-841.6974"/>
</g>
<!-- Apie\\Fixtures&#45;&gt;Faker\\Generator -->
<g id="edge23" class="edge">
<title>Apie\\Fixtures&#45;&gt;Faker\\Generator</title>
<path fill="none" stroke="#999999" d="M124.1188,-851.6247C132.2734,-790.4759 167.6863,-593.3019 292,-515 340.7941,-484.2659 753.6648,-508.8258 811,-515 829.866,-517.0316 850.025,-520.6949 868.6493,-524.7165"/>
<polygon fill="#999999" stroke="#999999" points="868.5914,-526.8539 874.9025,-526.0922 869.4939,-522.752 868.5914,-526.8539"/>
</g>
<!-- Faker\\Factory -->
<g id="node17" class="node">
<title>Faker\\Factory</title>
<path fill="#9999cc" stroke="#000000" d="M984.5,-518C984.5,-518 894.5,-518 894.5,-518 888.5,-518 882.5,-512 882.5,-506 882.5,-506 882.5,-494 882.5,-494 882.5,-488 888.5,-482 894.5,-482 894.5,-482 984.5,-482 984.5,-482 990.5,-482 996.5,-488 996.5,-494 996.5,-494 996.5,-506 996.5,-506 996.5,-512 990.5,-518 984.5,-518"/>
<text text-anchor="middle" x="939.5" y="-497.5" font-family="Times,serif" font-size="10.00" fill="#000033">Faker\Factory</text>
</g>
<!-- Apie\\Fixtures&#45;&gt;Faker\\Factory -->
<g id="edge25" class="edge">
<title>Apie\\Fixtures&#45;&gt;Faker\\Factory</title>
<path fill="none" stroke="#999999" d="M123.7031,-851.6642C130.65,-788.7399 162.9611,-580.9053 292,-498 340.2157,-467.0222 722.4764,-486.6658 876.0035,-495.9397"/>
<polygon fill="#999999" stroke="#999999" points="876.1381,-498.0516 882.2544,-496.3192 876.3927,-493.8593 876.1381,-498.0516"/>
</g>
<!-- Apie\\TextValueObjects&#45;&gt;Apie\\Core -->
<g id="edge38" class="edge">
<title>Apie\\TextValueObjects&#45;&gt;Apie\\Core</title>
<path fill="none" stroke="#999999" d="M526.6081,-830.589C547.2074,-833.9464 568.5358,-839.6144 587,-849 642.0732,-876.9944 688.3946,-934.9612 711.4043,-967.5108"/>
<polygon fill="#999999" stroke="#999999" points="709.7374,-968.7917 714.8948,-972.5081 713.1807,-966.3866 709.7374,-968.7917"/>
</g>
<!-- Apie\\TextValueObjects&#45;&gt;Faker\\Generator -->
<g id="edge39" class="edge">
<title>Apie\\TextValueObjects&#45;&gt;Faker\\Generator</title>
<path fill="none" stroke="#999999" d="M526.6343,-830.7959C548.6574,-827.577 570.6637,-820.1297 587,-805 668.95,-729.1024 557.6903,-632.1006 643,-560 659.8151,-545.7885 786.1767,-542.9731 868.4234,-542.6732"/>
<polygon fill="#999999" stroke="#999999" points="868.7651,-544.7723 874.759,-542.6548 868.7528,-540.5724 868.7651,-544.7723"/>
</g>
<!-- Apie\\RegexValueObjects -->
<g id="node10" class="node">
<title>Apie\\RegexValueObjects</title>
<path fill="#9999cc" stroke="#000000" d="M518.5,-931C518.5,-931 360.5,-931 360.5,-931 354.5,-931 348.5,-925 348.5,-919 348.5,-919 348.5,-907 348.5,-907 348.5,-901 354.5,-895 360.5,-895 360.5,-895 518.5,-895 518.5,-895 524.5,-895 530.5,-901 530.5,-907 530.5,-907 530.5,-919 530.5,-919 530.5,-925 524.5,-931 518.5,-931"/>
<text text-anchor="middle" x="439.5" y="-910.5" font-family="Times,serif" font-size="10.00" fill="#000033">Apie\RegexValueObjects</text>
</g>
<!-- Apie\\RegexValueObjects&#45;&gt;Apie\\Core -->
<g id="edge27" class="edge">
<title>Apie\\RegexValueObjects&#45;&gt;Apie\\Core</title>
<path fill="none" stroke="#999999" d="M530.6186,-924.7982C549.4154,-928.0761 568.9707,-932.1127 587,-937 619.1591,-945.7176 654.1303,-959.2036 681.0761,-970.5173"/>
<polygon fill="#999999" stroke="#999999" points="680.3562,-972.4928 686.7003,-972.896 681.9922,-968.6246 680.3562,-972.4928"/>
</g>
<!-- Apie\\RegexValueObjects&#45;&gt;Faker\\Generator -->
<g id="edge28" class="edge">
<title>Apie\\RegexValueObjects&#45;&gt;Faker\\Generator</title>
<path fill="none" stroke="#999999" d="M530.8798,-916.6201C551.5926,-913.1036 571.9028,-905.5562 587,-891 684.6428,-796.8559 544.2482,-683.9801 643,-591 670.3925,-565.2085 773.8916,-576.2069 811,-570 829.7863,-566.8577 849.9982,-562.8904 868.7039,-558.9713"/>
<polygon fill="#999999" stroke="#999999" points="869.5487,-560.9394 874.9856,-557.6454 868.6812,-556.8299 869.5487,-560.9394"/>
</g>
<!-- Apie\\RestApi -->
<g id="node11" class="node">
<title>Apie\\RestApi</title>
<path fill="#9999cc" stroke="#000000" d="M163.5,-1113C163.5,-1113 80.5,-1113 80.5,-1113 74.5,-1113 68.5,-1107 68.5,-1101 68.5,-1101 68.5,-1089 68.5,-1089 68.5,-1083 74.5,-1077 80.5,-1077 80.5,-1077 163.5,-1077 163.5,-1077 169.5,-1077 175.5,-1083 175.5,-1089 175.5,-1089 175.5,-1101 175.5,-1101 175.5,-1107 169.5,-1113 163.5,-1113"/>
<text text-anchor="middle" x="122" y="-1092.5" font-family="Times,serif" font-size="10.00" fill="#000033">Apie\RestApi</text>
</g>
<!-- Apie\\RestApi&#45;&gt;Apie\\Core -->
<g id="edge30" class="edge">
<title>Apie\\RestApi&#45;&gt;Apie\\Core</title>
<path fill="none" stroke="#999999" d="M175.6683,-1097.4526C289.7412,-1102.378 549.0317,-1111.9431 587,-1099 636.4396,-1082.1464 682.0075,-1039.9838 707.0086,-1013.6023"/>
<polygon fill="#999999" stroke="#999999" points="708.5713,-1015.0058 711.1379,-1009.1901 705.5047,-1012.1359 708.5713,-1015.0058"/>
</g>
<!-- Apie\\Serializer -->
<g id="node12" class="node">
<title>Apie\\Serializer</title>
<path fill="#9999cc" stroke="#000000" d="M492,-1096C492,-1096 387,-1096 387,-1096 381,-1096 375,-1090 375,-1084 375,-1084 375,-1072 375,-1072 375,-1066 381,-1060 387,-1060 387,-1060 492,-1060 492,-1060 498,-1060 504,-1066 504,-1072 504,-1072 504,-1084 504,-1084 504,-1090 498,-1096 492,-1096"/>
<text text-anchor="middle" x="439.5" y="-1075.5" font-family="Times,serif" font-size="10.00" fill="#000033">Apie\Serializer</text>
</g>
<!-- Apie\\RestApi&#45;&gt;Apie\\Serializer -->
<g id="edge29" class="edge">
<title>Apie\\RestApi&#45;&gt;Apie\\Serializer</title>
<path fill="none" stroke="#999999" d="M175.5005,-1092.1354C228.5308,-1089.296 310.0797,-1084.9296 368.5049,-1081.8013"/>
<polygon fill="#999999" stroke="#999999" points="368.9177,-1083.8823 374.7968,-1081.4644 368.6931,-1079.6883 368.9177,-1083.8823"/>
</g>
<!-- Apie\\RestApi&#45;&gt;Psr\\Http -->
<g id="edge31" class="edge">
<title>Apie\\RestApi&#45;&gt;Psr\\Http</title>
<path fill="none" stroke="#999999" d="M175.567,-1098.563C209.0217,-1100.6078 253.0008,-1102.9684 292,-1104 423.0653,-1107.4669 455.9415,-1107.715 587,-1104 697.7008,-1100.8621 827.7216,-1092.1917 894.6541,-1087.3608"/>
<polygon fill="#999999" stroke="#999999" points="895.0993,-1089.4342 900.9317,-1086.9056 894.7955,-1085.2452 895.0993,-1089.4342"/>
</g>
<!-- Nyholm\\Psr7 -->
<g id="node25" class="node">
<title>Nyholm\\Psr7</title>
<path fill="#9999cc" stroke="#000000" d="M477,-152C477,-152 402,-152 402,-152 396,-152 390,-146 390,-140 390,-140 390,-128 390,-128 390,-122 396,-116 402,-116 402,-116 477,-116 477,-116 483,-116 489,-122 489,-128 489,-128 489,-140 489,-140 489,-146 483,-152 477,-152"/>
<text text-anchor="middle" x="439.5" y="-131.5" font-family="Times,serif" font-size="10.00" fill="#000033">Nyholm\Psr7</text>
</g>
<!-- Apie\\RestApi&#45;&gt;Nyholm\\Psr7 -->
<g id="edge32" class="edge">
<title>Apie\\RestApi&#45;&gt;Nyholm\\Psr7</title>
<path fill="none" stroke="#999999" d="M175.5609,-1096.5629C194.8299,-1094.2151 214.9983,-1087.8464 228,-1073 357.615,-924.9953 174.486,-347.7843 292,-190 313.4864,-161.1505 351.7445,-147.1631 383.9122,-140.3816"/>
<polygon fill="#999999" stroke="#999999" points="384.3699,-142.4318 389.8424,-139.1972 383.5473,-138.3131 384.3699,-142.4318"/>
</g>
<!-- Apie\\Serializer&#45;&gt;Apie\\Core -->
<g id="edge37" class="edge">
<title>Apie\\Serializer&#45;&gt;Apie\\Core</title>
<path fill="none" stroke="#999999" d="M504.2189,-1071.1969C530.2857,-1067.4976 560.4152,-1061.9934 587,-1054 622.415,-1043.3516 660.5665,-1025.7393 688.0848,-1011.8399"/>
<polygon fill="#999999" stroke="#999999" points="689.0481,-1013.706 693.4427,-1009.1127 687.1429,-1009.9629 689.0481,-1013.706"/>
</g>
<!-- Apie\\SchemaGenerator -->
<g id="node13" class="node">
<title>Apie\\SchemaGenerator</title>
<path fill="#9999cc" stroke="#000000" d="M193.5,-984C193.5,-984 50.5,-984 50.5,-984 44.5,-984 38.5,-978 38.5,-972 38.5,-972 38.5,-960 38.5,-960 38.5,-954 44.5,-948 50.5,-948 50.5,-948 193.5,-948 193.5,-948 199.5,-948 205.5,-954 205.5,-960 205.5,-960 205.5,-972 205.5,-972 205.5,-978 199.5,-984 193.5,-984"/>
<text text-anchor="middle" x="122" y="-963.5" font-family="Times,serif" font-size="10.00" fill="#000033">Apie\SchemaGenerator</text>
</g>
<!-- Apie\\SchemaGenerator&#45;&gt;Apie\\CompositeValueObjects -->
<g id="edge34" class="edge">
<title>Apie\\SchemaGenerator&#45;&gt;Apie\\CompositeValueObjects</title>
<path fill="none" stroke="#999999" d="M205.8347,-979.4664C242.8932,-985.4191 287.0188,-992.507 326.8914,-998.9117"/>
<polygon fill="#999999" stroke="#999999" points="326.9953,-1001.0552 333.2524,-999.9335 327.6615,-996.9084 326.9953,-1001.0552"/>
</g>
<!-- Apie\\SchemaGenerator&#45;&gt;Apie\\Core -->
<g id="edge35" class="edge">
<title>Apie\\SchemaGenerator&#45;&gt;Apie\\Core</title>
<path fill="none" stroke="#999999" d="M205.7133,-977.629C233.1526,-980.964 263.8268,-984.1859 292,-986 432.3011,-995.034 598.5673,-993.5736 678.8537,-992.1041"/>
<polygon fill="#999999" stroke="#999999" points="678.9922,-994.202 684.9516,-991.9894 678.9131,-990.0027 678.9922,-994.202"/>
</g>
<!-- Apie\\SchemaGenerator&#45;&gt;Apie\\DateformatToRegex -->
<g id="edge36" class="edge">
<title>Apie\\SchemaGenerator&#45;&gt;Apie\\DateformatToRegex</title>
<path fill="none" stroke="#999999" d="M205.8347,-965.736C247.7719,-965.6039 298.7594,-965.4433 342.3919,-965.3059"/>
<polygon fill="#999999" stroke="#999999" points="342.5048,-967.4056 348.4981,-965.2866 342.4915,-963.2056 342.5048,-967.4056"/>
</g>
<!-- cebe\\openapi -->
<g id="node26" class="node">
<title>cebe\\openapi</title>
<path fill="#9999cc" stroke="#000000" d="M481,-69C481,-69 398,-69 398,-69 392,-69 386,-63 386,-57 386,-57 386,-45 386,-45 386,-39 392,-33 398,-33 398,-33 481,-33 481,-33 487,-33 493,-39 493,-45 493,-45 493,-57 493,-57 493,-63 487,-69 481,-69"/>
<text text-anchor="middle" x="439.5" y="-48.5" font-family="Times,serif" font-size="10.00" fill="#000033">cebe\openapi</text>
</g>
<!-- Apie\\SchemaGenerator&#45;&gt;cebe\\openapi -->
<g id="edge33" class="edge">
<title>Apie\\SchemaGenerator&#45;&gt;cebe\\openapi</title>
<path fill="none" stroke="#999999" d="M163.7326,-947.97C186.7775,-935.7 213.5805,-917.1059 228,-892 315.1695,-740.2284 186.8257,-246.8982 292,-107 312.6776,-79.4956 348.5805,-65.5 379.7866,-58.3783"/>
<polygon fill="#999999" stroke="#999999" points="380.5387,-60.3643 385.9593,-57.0437 379.651,-56.2592 380.5387,-60.3643"/>
</g>
</g>
</svg>
