<?xml version="1.0" encoding="UTF-8" standalone="no"?>
<!DOCTYPE svg PUBLIC "-//W3C//DTD SVG 1.1//EN"
 "http://www.w3.org/Graphics/SVG/1.1/DTD/svg11.dtd">
<!-- Generated by graphviz version 2.40.1 (0)
 -->
<!-- Title: G Pages: 1 -->
<svg width="1498pt" height="1811pt"
 viewBox="0.00 0.00 1498.00 1811.00" xmlns="http://www.w3.org/2000/svg" xmlns:xlink="http://www.w3.org/1999/xlink">
<g id="graph0" class="graph" transform="scale(1 1) rotate(0) translate(4 1807)">
<title>G</title>
<polygon fill="#ffffff" stroke="transparent" points="-4,4 -4,-1807 1494,-1807 1494,4 -4,4"/>
<text text-anchor="middle" x="745" y="-6.6" font-family="Times,serif" font-size="8.00" fill="#000000">PhpDependencyAnalysis by Marco Muths v2.0.2</text>
<g id="clust1" class="cluster">
<title>cluster_0</title>
<path fill="#ccccff" stroke="#000033" d="M20,-838C20,-838 1235,-838 1235,-838 1241,-838 1247,-844 1247,-850 1247,-850 1247,-1292 1247,-1292 1247,-1298 1241,-1304 1235,-1304 1235,-1304 20,-1304 20,-1304 14,-1304 8,-1298 8,-1292 8,-1292 8,-850 8,-850 8,-844 14,-838 20,-838"/>
<text text-anchor="middle" x="31.5" y="-1288.8" font-family="Times,serif" font-size="14.00" fill="#000033">Apie</text>
</g>
<g id="clust2" class="cluster">
<title>cluster_1</title>
<path fill="#ccccff" stroke="#000033" d="M1129,-182C1129,-182 1265,-182 1265,-182 1271,-182 1277,-188 1277,-194 1277,-194 1277,-245 1277,-245 1277,-251 1271,-257 1265,-257 1265,-257 1129,-257 1129,-257 1123,-257 1117,-251 1117,-245 1117,-245 1117,-194 1117,-194 1117,-188 1123,-182 1129,-182"/>
<text text-anchor="middle" x="1151.5" y="-241.8" font-family="Times,serif" font-size="14.00" fill="#000033">Symfony</text>
</g>
<g id="clust3" class="cluster">
<title>cluster_2</title>
<path fill="#ccccff" stroke="#000033" d="M1349,-1163C1349,-1163 1470,-1163 1470,-1163 1476,-1163 1482,-1169 1482,-1175 1482,-1175 1482,-1269 1482,-1269 1482,-1275 1476,-1281 1470,-1281 1470,-1281 1349,-1281 1349,-1281 1343,-1281 1337,-1275 1337,-1269 1337,-1269 1337,-1175 1337,-1175 1337,-1169 1343,-1163 1349,-1163"/>
<text text-anchor="middle" x="1364" y="-1265.8" font-family="Times,serif" font-size="14.00" fill="#000033">Faker</text>
</g>
<g id="clust4" class="cluster">
<title>cluster_3</title>
<path fill="#ccccff" stroke="#000033" d="M1132.5,-546C1132.5,-546 1261.5,-546 1261.5,-546 1267.5,-546 1273.5,-552 1273.5,-558 1273.5,-558 1273.5,-652 1273.5,-652 1273.5,-658 1267.5,-664 1261.5,-664 1261.5,-664 1132.5,-664 1132.5,-664 1126.5,-664 1120.5,-658 1120.5,-652 1120.5,-652 1120.5,-558 1120.5,-558 1120.5,-552 1126.5,-546 1132.5,-546"/>
<text text-anchor="middle" x="1155" y="-648.8" font-family="Times,serif" font-size="14.00" fill="#000033">PHPStan</text>
</g>
<g id="clust5" class="cluster">
<title>cluster_4</title>
<path fill="#ccccff" stroke="#000033" d="M1140,-463C1140,-463 1254,-463 1254,-463 1260,-463 1266,-469 1266,-475 1266,-475 1266,-526 1266,-526 1266,-532 1260,-538 1254,-538 1254,-538 1140,-538 1140,-538 1134,-538 1128,-532 1128,-526 1128,-526 1128,-475 1128,-475 1128,-469 1134,-463 1140,-463"/>
<text text-anchor="middle" x="1170" y="-522.8" font-family="Times,serif" font-size="14.00" fill="#000033">PhpParser</text>
</g>
<g id="clust6" class="cluster">
<title>cluster_5</title>
<path fill="#ccccff" stroke="#000033" d="M274,-25C274,-25 410,-25 410,-25 416,-25 422,-31 422,-37 422,-37 422,-131 422,-131 422,-137 416,-143 410,-143 410,-143 274,-143 274,-143 268,-143 262,-137 262,-131 262,-131 262,-37 262,-37 262,-31 268,-25 274,-25"/>
<text text-anchor="middle" x="285.5" y="-127.8" font-family="Times,serif" font-size="14.00" fill="#000033">Twig</text>
</g>
<g id="clust7" class="cluster">
<title>cluster_6</title>
<path fill="#ccccff" stroke="#000033" d="M1364,-1072C1364,-1072 1455,-1072 1455,-1072 1461,-1072 1467,-1078 1467,-1084 1467,-1084 1467,-1135 1467,-1135 1467,-1141 1461,-1147 1455,-1147 1455,-1147 1364,-1147 1364,-1147 1358,-1147 1352,-1141 1352,-1135 1352,-1135 1352,-1084 1352,-1084 1352,-1078 1358,-1072 1364,-1072"/>
<text text-anchor="middle" x="1383" y="-1131.8" font-family="Times,serif" font-size="14.00" fill="#000033">Ramsey</text>
</g>
<g id="clust8" class="cluster">
<title>cluster_7</title>
<path fill="#ccccff" stroke="#000033" d="M830,-1720C830,-1720 989,-1720 989,-1720 995,-1720 1001,-1726 1001,-1732 1001,-1732 1001,-1783 1001,-1783 1001,-1789 995,-1795 989,-1795 989,-1795 830,-1795 830,-1795 824,-1795 818,-1789 818,-1783 818,-1783 818,-1732 818,-1732 818,-1726 824,-1720 830,-1720"/>
<text text-anchor="middle" x="864" y="-1779.8" font-family="Times,serif" font-size="14.00" fill="#000033">PrinsFrank</text>
</g>
<g id="clust9" class="cluster">
<title>cluster_8</title>
<path fill="#ccccff" stroke="#000033" d="M774,-1508C774,-1508 1045,-1508 1045,-1508 1051,-1508 1057,-1514 1057,-1520 1057,-1520 1057,-1700 1057,-1700 1057,-1706 1051,-1712 1045,-1712 1045,-1712 774,-1712 774,-1712 768,-1712 762,-1706 762,-1700 762,-1700 762,-1520 762,-1520 762,-1514 768,-1508 774,-1508"/>
<text text-anchor="middle" x="823" y="-1696.8" font-family="Times,serif" font-size="14.00" fill="#000033">libphonenumber</text>
</g>
<g id="clust10" class="cluster">
<title>cluster_9</title>
<path fill="#ccccff" stroke="#000033" d="M1125,-364C1125,-364 1269,-364 1269,-364 1275,-364 1281,-370 1281,-376 1281,-376 1281,-427 1281,-427 1281,-433 1275,-439 1269,-439 1269,-439 1125,-439 1125,-439 1119,-439 1113,-433 1113,-427 1113,-427 1113,-376 1113,-376 1113,-370 1119,-364 1125,-364"/>
<text text-anchor="middle" x="1140" y="-423.8" font-family="Times,serif" font-size="14.00" fill="#000033">Nette</text>
</g>
<g id="clust11" class="cluster">
<title>cluster_10</title>
<path fill="#ccccff" stroke="#000033" d="M1147.5,-281C1147.5,-281 1246.5,-281 1246.5,-281 1252.5,-281 1258.5,-287 1258.5,-293 1258.5,-293 1258.5,-344 1258.5,-344 1258.5,-350 1252.5,-356 1246.5,-356 1246.5,-356 1147.5,-356 1147.5,-356 1141.5,-356 1135.5,-350 1135.5,-344 1135.5,-344 1135.5,-293 1135.5,-293 1135.5,-287 1141.5,-281 1147.5,-281"/>
<text text-anchor="middle" x="1174" y="-340.8" font-family="Times,serif" font-size="14.00" fill="#000033">Doctrine</text>
</g>
<g id="clust12" class="cluster">
<title>cluster_11</title>
<path fill="#ccccff" stroke="#000033" d="M1144,-755C1144,-755 1250,-755 1250,-755 1256,-755 1262,-761 1262,-767 1262,-767 1262,-818 1262,-818 1262,-824 1256,-830 1250,-830 1250,-830 1144,-830 1144,-830 1138,-830 1132,-824 1132,-818 1132,-818 1132,-767 1132,-767 1132,-761 1138,-755 1144,-755"/>
<text text-anchor="middle" x="1163" y="-814.8" font-family="Times,serif" font-size="14.00" fill="#000033">RegRev</text>
</g>
<g id="clust13" class="cluster">
<title>cluster_12</title>
<path fill="#ccccff" stroke="#000033" d="M524,-755C524,-755 660,-755 660,-755 666,-755 672,-761 672,-767 672,-767 672,-818 672,-818 672,-824 666,-830 660,-830 660,-830 524,-830 524,-830 518,-830 512,-824 512,-818 512,-818 512,-767 512,-767 512,-761 518,-755 524,-755"/>
<text text-anchor="middle" x="546.5" y="-814.8" font-family="Times,serif" font-size="14.00" fill="#000033">PHPUnit</text>
</g>
<g id="clust14" class="cluster">
<title>cluster_13</title>
<path fill="#ccccff" stroke="#000033" d="M860,-1425C860,-1425 959,-1425 959,-1425 965,-1425 971,-1431 971,-1437 971,-1437 971,-1488 971,-1488 971,-1494 965,-1500 959,-1500 959,-1500 860,-1500 860,-1500 854,-1500 848,-1494 848,-1488 848,-1488 848,-1437 848,-1437 848,-1431 854,-1425 860,-1425"/>
<text text-anchor="middle" x="871.5" y="-1484.8" font-family="Times,serif" font-size="14.00" fill="#000033">cebe</text>
</g>
<g id="clust15" class="cluster">
<title>cluster_14</title>
<path fill="#ccccff" stroke="#000033" d="M815,-1326C815,-1326 1004,-1326 1004,-1326 1010,-1326 1016,-1332 1016,-1338 1016,-1338 1016,-1389 1016,-1389 1016,-1395 1010,-1401 1004,-1401 1004,-1401 815,-1401 815,-1401 809,-1401 803,-1395 803,-1389 803,-1389 803,-1338 803,-1338 803,-1332 809,-1326 815,-1326"/>
<text text-anchor="middle" x="834" y="-1385.8" font-family="Times,serif" font-size="14.00" fill="#000033">League</text>
</g>
<g id="clust16" class="cluster">
<title>cluster_15</title>
<path fill="#ccccff" stroke="#000033" d="M1162.5,-672C1162.5,-672 1231.5,-672 1231.5,-672 1237.5,-672 1243.5,-678 1243.5,-684 1243.5,-684 1243.5,-735 1243.5,-735 1243.5,-741 1237.5,-747 1231.5,-747 1231.5,-747 1162.5,-747 1162.5,-747 1156.5,-747 1150.5,-741 1150.5,-735 1150.5,-735 1150.5,-684 1150.5,-684 1150.5,-678 1156.5,-672 1162.5,-672"/>
<text text-anchor="middle" x="1170" y="-731.8" font-family="Times,serif" font-size="14.00" fill="#000033">Psr</text>
</g>
<!-- Apie\\ApieBundle -->
<g id="node1" class="node">
<title>Apie\\ApieBundle</title>
<path fill="#9999cc" stroke="#000000" d="M159.5,-1186C159.5,-1186 54.5,-1186 54.5,-1186 48.5,-1186 42.5,-1180 42.5,-1174 42.5,-1174 42.5,-1162 42.5,-1162 42.5,-1156 48.5,-1150 54.5,-1150 54.5,-1150 159.5,-1150 159.5,-1150 165.5,-1150 171.5,-1156 171.5,-1162 171.5,-1162 171.5,-1174 171.5,-1174 171.5,-1180 165.5,-1186 159.5,-1186"/>
<text text-anchor="middle" x="107" y="-1165.5" font-family="Times,serif" font-size="10.00" fill="#000033">Apie\ApieBundle</text>
</g>
<!-- Apie\\Cms -->
<g id="node2" class="node">
<title>Apie\\Cms</title>
<path fill="#9999cc" stroke="#000000" d="M368.5,-1230C368.5,-1230 315.5,-1230 315.5,-1230 309.5,-1230 303.5,-1224 303.5,-1218 303.5,-1218 303.5,-1206 303.5,-1206 303.5,-1200 309.5,-1194 315.5,-1194 315.5,-1194 368.5,-1194 368.5,-1194 374.5,-1194 380.5,-1200 380.5,-1206 380.5,-1206 380.5,-1218 380.5,-1218 380.5,-1224 374.5,-1230 368.5,-1230"/>
<text text-anchor="middle" x="342" y="-1209.5" font-family="Times,serif" font-size="10.00" fill="#000033">Apie\Cms</text>
</g>
<!-- Apie\\ApieBundle&#45;&gt;Apie\\Cms -->
<g id="edge2" class="edge">
<title>Apie\\ApieBundle&#45;&gt;Apie\\Cms</title>
<path fill="none" stroke="#999999" d="M171.5256,-1180.0814C211.4726,-1187.5608 261.7512,-1196.9747 297.3257,-1203.6354"/>
<polygon fill="#999999" stroke="#999999" points="297.0632,-1205.7227 303.3473,-1204.7629 297.8362,-1201.5945 297.0632,-1205.7227"/>
</g>
<!-- Apie\\Faker -->
<g id="node3" class="node">
<title>Apie\\Faker</title>
<path fill="#9999cc" stroke="#000000" d="M943.5,-1142C943.5,-1142 875.5,-1142 875.5,-1142 869.5,-1142 863.5,-1136 863.5,-1130 863.5,-1130 863.5,-1118 863.5,-1118 863.5,-1112 869.5,-1106 875.5,-1106 875.5,-1106 943.5,-1106 943.5,-1106 949.5,-1106 955.5,-1112 955.5,-1118 955.5,-1118 955.5,-1130 955.5,-1130 955.5,-1136 949.5,-1142 943.5,-1142"/>
<text text-anchor="middle" x="909.5" y="-1121.5" font-family="Times,serif" font-size="10.00" fill="#000033">Apie\Faker</text>
</g>
<!-- Apie\\ApieBundle&#45;&gt;Apie\\Faker -->
<g id="edge3" class="edge">
<title>Apie\\ApieBundle&#45;&gt;Apie\\Faker</title>
<path fill="none" stroke="#999999" d="M129.4203,-1149.7841C158.1151,-1127.7599 210.3194,-1091.9161 262,-1078 296.3326,-1068.7552 386.6797,-1073.9162 422,-1078 451.0219,-1081.3555 457.12,-1088.5866 486,-1093 618.8161,-1113.2966 777.1664,-1120.4058 857.3787,-1122.8175"/>
<polygon fill="#999999" stroke="#999999" points="857.4279,-1124.9197 863.4869,-1122.9965 857.5511,-1120.7215 857.4279,-1124.9197"/>
</g>
<!-- Apie\\RestApi -->
<g id="node4" class="node">
<title>Apie\\RestApi</title>
<path fill="#9999cc" stroke="#000000" d="M383.5,-1160C383.5,-1160 300.5,-1160 300.5,-1160 294.5,-1160 288.5,-1154 288.5,-1148 288.5,-1148 288.5,-1136 288.5,-1136 288.5,-1130 294.5,-1124 300.5,-1124 300.5,-1124 383.5,-1124 383.5,-1124 389.5,-1124 395.5,-1130 395.5,-1136 395.5,-1136 395.5,-1148 395.5,-1148 395.5,-1154 389.5,-1160 383.5,-1160"/>
<text text-anchor="middle" x="342" y="-1139.5" font-family="Times,serif" font-size="10.00" fill="#000033">Apie\RestApi</text>
</g>
<!-- Apie\\ApieBundle&#45;&gt;Apie\\RestApi -->
<g id="edge4" class="edge">
<title>Apie\\ApieBundle&#45;&gt;Apie\\RestApi</title>
<path fill="none" stroke="#999999" d="M171.5256,-1160.861C206.0629,-1157.0398 248.3232,-1152.3642 282.1264,-1148.6243"/>
<polygon fill="#999999" stroke="#999999" points="282.6033,-1150.6845 288.336,-1147.9373 282.1414,-1146.5099 282.6033,-1150.6845"/>
</g>
<!-- Apie\\Console -->
<g id="node5" class="node">
<title>Apie\\Console</title>
<path fill="#9999cc" stroke="#000000" d="M383.5,-1117C383.5,-1117 300.5,-1117 300.5,-1117 294.5,-1117 288.5,-1111 288.5,-1105 288.5,-1105 288.5,-1093 288.5,-1093 288.5,-1087 294.5,-1081 300.5,-1081 300.5,-1081 383.5,-1081 383.5,-1081 389.5,-1081 395.5,-1087 395.5,-1093 395.5,-1093 395.5,-1105 395.5,-1105 395.5,-1111 389.5,-1117 383.5,-1117"/>
<text text-anchor="middle" x="342" y="-1096.5" font-family="Times,serif" font-size="10.00" fill="#000033">Apie\Console</text>
</g>
<!-- Apie\\ApieBundle&#45;&gt;Apie\\Console -->
<g id="edge5" class="edge">
<title>Apie\\ApieBundle&#45;&gt;Apie\\Console</title>
<path fill="none" stroke="#999999" d="M165.4077,-1149.8968C194.4014,-1141.0105 229.9888,-1130.2532 262,-1121 268.4628,-1119.1319 275.23,-1117.2132 281.9756,-1115.3245"/>
<polygon fill="#999999" stroke="#999999" points="282.94,-1117.2357 288.1551,-1113.6008 281.8115,-1113.1902 282.94,-1117.2357"/>
</g>
<!-- Apie\\Core -->
<g id="node6" class="node">
<title>Apie\\Core</title>
<path fill="#9999cc" stroke="#000000" d="M1227,-1116C1227,-1116 1167,-1116 1167,-1116 1161,-1116 1155,-1110 1155,-1104 1155,-1104 1155,-1092 1155,-1092 1155,-1086 1161,-1080 1167,-1080 1167,-1080 1227,-1080 1227,-1080 1233,-1080 1239,-1086 1239,-1092 1239,-1092 1239,-1104 1239,-1104 1239,-1110 1233,-1116 1227,-1116"/>
<text text-anchor="middle" x="1197" y="-1095.5" font-family="Times,serif" font-size="10.00" fill="#000033">Apie\Core</text>
</g>
<!-- Apie\\ApieBundle&#45;&gt;Apie\\Core -->
<g id="edge6" class="edge">
<title>Apie\\ApieBundle&#45;&gt;Apie\\Core</title>
<path fill="none" stroke="#999999" d="M171.822,-1168.5059C371.8292,-1169.8725 971.021,-1172.4437 1057,-1155 1092.2962,-1147.839 1129.9832,-1131.9747 1157.3539,-1118.7965"/>
<polygon fill="#999999" stroke="#999999" points="1158.5594,-1120.5452 1163.0334,-1116.0292 1156.7197,-1116.7695 1158.5594,-1120.5452"/>
</g>
<!-- Apie\\Serializer -->
<g id="node7" class="node">
<title>Apie\\Serializer</title>
<path fill="#9999cc" stroke="#000000" d="M962,-1212C962,-1212 857,-1212 857,-1212 851,-1212 845,-1206 845,-1200 845,-1200 845,-1188 845,-1188 845,-1182 851,-1176 857,-1176 857,-1176 962,-1176 962,-1176 968,-1176 974,-1182 974,-1188 974,-1188 974,-1200 974,-1200 974,-1206 968,-1212 962,-1212"/>
<text text-anchor="middle" x="909.5" y="-1191.5" font-family="Times,serif" font-size="10.00" fill="#000033">Apie\Serializer</text>
</g>
<!-- Apie\\ApieBundle&#45;&gt;Apie\\Serializer -->
<g id="edge7" class="edge">
<title>Apie\\ApieBundle&#45;&gt;Apie\\Serializer</title>
<path fill="none" stroke="#999999" d="M171.7368,-1168.8352C280.4896,-1170.3949 506.744,-1174.3111 698,-1182 744.8381,-1183.883 797.4641,-1186.8656 838.5043,-1189.3861"/>
<polygon fill="#999999" stroke="#999999" points="838.6127,-1191.4967 844.7307,-1189.7704 838.8715,-1187.3046 838.6127,-1191.4967"/>
</g>
<!-- Apie\\Common -->
<g id="node8" class="node">
<title>Apie\\Common</title>
<path fill="#9999cc" stroke="#000000" d="M629.5,-1221C629.5,-1221 554.5,-1221 554.5,-1221 548.5,-1221 542.5,-1215 542.5,-1209 542.5,-1209 542.5,-1197 542.5,-1197 542.5,-1191 548.5,-1185 554.5,-1185 554.5,-1185 629.5,-1185 629.5,-1185 635.5,-1185 641.5,-1191 641.5,-1197 641.5,-1197 641.5,-1209 641.5,-1209 641.5,-1215 635.5,-1221 629.5,-1221"/>
<text text-anchor="middle" x="592" y="-1200.5" font-family="Times,serif" font-size="10.00" fill="#000033">Apie\Common</text>
</g>
<!-- Apie\\ApieBundle&#45;&gt;Apie\\Common -->
<g id="edge8" class="edge">
<title>Apie\\ApieBundle&#45;&gt;Apie\\Common</title>
<path fill="none" stroke="#999999" d="M171.6549,-1172.6658C267.5813,-1179.5883 445.9739,-1192.462 536.3878,-1198.9867"/>
<polygon fill="#999999" stroke="#999999" points="536.3431,-1201.0889 542.4787,-1199.4263 536.6454,-1196.8998 536.3431,-1201.0889"/>
</g>
<!-- Symfony\\Component -->
<g id="node21" class="node">
<title>Symfony\\Component</title>
<path fill="#9999cc" stroke="#000000" d="M1257,-226C1257,-226 1137,-226 1137,-226 1131,-226 1125,-220 1125,-214 1125,-214 1125,-202 1125,-202 1125,-196 1131,-190 1137,-190 1137,-190 1257,-190 1257,-190 1263,-190 1269,-196 1269,-202 1269,-202 1269,-214 1269,-214 1269,-220 1263,-226 1257,-226"/>
<text text-anchor="middle" x="1197" y="-205.5" font-family="Times,serif" font-size="10.00" fill="#000033">Symfony\Component</text>
</g>
<!-- Apie\\ApieBundle&#45;&gt;Symfony\\Component -->
<g id="edge1" class="edge">
<title>Apie\\ApieBundle&#45;&gt;Symfony\\Component</title>
<path fill="none" stroke="#999999" d="M125.7779,-1149.9124C145.183,-1130.6659 175.7009,-1098.8027 198,-1068 350.4197,-857.4561 315.7433,-755.4005 486,-559 587.4948,-441.9201 624.7221,-417.8586 762,-346 879.3369,-284.5795 1028.9083,-244.5317 1118.5898,-224.1328"/>
<polygon fill="#999999" stroke="#999999" points="1119.286,-226.1286 1124.6757,-222.7578 1118.3604,-222.0318 1119.286,-226.1286"/>
</g>
<!-- Faker\\Generator -->
<g id="node22" class="node">
<title>Faker\\Generator</title>
<path fill="#9999cc" stroke="#000000" d="M1462,-1250C1462,-1250 1357,-1250 1357,-1250 1351,-1250 1345,-1244 1345,-1238 1345,-1238 1345,-1226 1345,-1226 1345,-1220 1351,-1214 1357,-1214 1357,-1214 1462,-1214 1462,-1214 1468,-1214 1474,-1220 1474,-1226 1474,-1226 1474,-1238 1474,-1238 1474,-1244 1468,-1250 1462,-1250"/>
<text text-anchor="middle" x="1409.5" y="-1229.5" font-family="Times,serif" font-size="10.00" fill="#000033">Faker\Generator</text>
</g>
<!-- Apie\\ApieBundle&#45;&gt;Faker\\Generator -->
<g id="edge9" class="edge">
<title>Apie\\ApieBundle&#45;&gt;Faker\\Generator</title>
<path fill="none" stroke="#999999" d="M129.7944,-1149.9814C151.1416,-1131.7358 182.0723,-1101.4938 198,-1068 280.0338,-895.4933 191.2689,-820.4407 262,-643 356.9144,-404.8913 335.6711,-170 592,-170 592,-170 592,-170 909.5,-170 950.7959,-170 1251.4401,-152.1632 1281,-181 1362.9619,-260.9567 1266.3205,-1119.9154 1337,-1210 1337.9946,-1211.2677 1339.0601,-1212.4644 1340.1873,-1213.5941"/>
<polygon fill="#999999" stroke="#999999" points="1338.9173,-1215.2728 1344.8221,-1217.6272 1341.6743,-1212.1043 1338.9173,-1215.2728"/>
</g>
<!-- Faker\\Factory -->
<g id="node23" class="node">
<title>Faker\\Factory</title>
<path fill="#9999cc" stroke="#000000" d="M1454.5,-1207C1454.5,-1207 1364.5,-1207 1364.5,-1207 1358.5,-1207 1352.5,-1201 1352.5,-1195 1352.5,-1195 1352.5,-1183 1352.5,-1183 1352.5,-1177 1358.5,-1171 1364.5,-1171 1364.5,-1171 1454.5,-1171 1454.5,-1171 1460.5,-1171 1466.5,-1177 1466.5,-1183 1466.5,-1183 1466.5,-1195 1466.5,-1195 1466.5,-1201 1460.5,-1207 1454.5,-1207"/>
<text text-anchor="middle" x="1409.5" y="-1186.5" font-family="Times,serif" font-size="10.00" fill="#000033">Faker\Factory</text>
</g>
<!-- Apie\\ApieBundle&#45;&gt;Faker\\Factory -->
<g id="edge10" class="edge">
<title>Apie\\ApieBundle&#45;&gt;Faker\\Factory</title>
<path fill="none" stroke="#999999" d="M130.7939,-1149.9013C152.5548,-1131.8145 183.4949,-1101.8788 198,-1068 277.1787,-883.0673 116.9027,-304.3419 262,-165 288.4586,-139.5909 555.3165,-155 592,-155 592,-155 592,-155 909.5,-155 1074.6709,-155 1162.4681,-49.9712 1281,-165 1359.5084,-241.1882 1279.2122,-1055.1088 1337,-1148 1341.8407,-1155.7812 1348.7279,-1162.2226 1356.3516,-1167.5105"/>
<polygon fill="#999999" stroke="#999999" points="1355.5525,-1169.4945 1361.7312,-1170.9894 1357.8333,-1165.9678 1355.5525,-1169.4945"/>
</g>
<!-- Apie\\Cms&#45;&gt;Apie\\Core -->
<g id="edge19" class="edge">
<title>Apie\\Cms&#45;&gt;Apie\\Core</title>
<path fill="none" stroke="#999999" d="M380.7552,-1216.1087C409.7103,-1218.9645 450.2824,-1222.5143 486,-1224 584.1728,-1228.0835 1047.2623,-1225.7234 1057,-1222 1110.0369,-1201.7202 1155.9454,-1151.2804 1179.7139,-1121.3515"/>
<polygon fill="#999999" stroke="#999999" points="1181.5669,-1122.3913 1183.6138,-1116.373 1178.2606,-1119.8013 1181.5669,-1122.3913"/>
</g>
<!-- Apie\\Cms&#45;&gt;Apie\\Common -->
<g id="edge18" class="edge">
<title>Apie\\Cms&#45;&gt;Apie\\Common</title>
<path fill="none" stroke="#999999" d="M380.5146,-1210.6135C422.0675,-1209.1176 488.6296,-1206.7213 535.974,-1205.0169"/>
<polygon fill="#999999" stroke="#999999" points="536.3103,-1207.1063 542.2308,-1204.7917 536.1591,-1202.909 536.3103,-1207.1063"/>
</g>
<!-- Apie\\Faker&#45;&gt;Apie\\Core -->
<g id="edge41" class="edge">
<title>Apie\\Faker&#45;&gt;Apie\\Core</title>
<path fill="none" stroke="#999999" d="M955.6918,-1119.8227C1008.5742,-1115.0402 1094.8086,-1107.2417 1148.5993,-1102.3771"/>
<polygon fill="#999999" stroke="#999999" points="1148.8837,-1104.4601 1154.6701,-1101.8281 1148.5053,-1100.2771 1148.8837,-1104.4601"/>
</g>
<!-- Apie\\Faker&#45;&gt;Faker\\Generator -->
<g id="edge42" class="edge">
<title>Apie\\Faker&#45;&gt;Faker\\Generator</title>
<path fill="none" stroke="#999999" d="M955.7913,-1127.912C988.9945,-1127.96 1032.1006,-1121.8646 1057,-1094 1150.9473,-988.8648 1008.9949,-557.1969 1113,-462 1140.539,-436.7933 1253.6337,-436.6059 1281,-462 1403.1864,-575.3807 1232.7786,-1079.9132 1337,-1210 1338.0075,-1211.2575 1339.0845,-1212.445 1340.2222,-1213.5664"/>
<polygon fill="#999999" stroke="#999999" points="1338.9705,-1215.2595 1344.892,-1217.5718 1341.7049,-1212.0715 1338.9705,-1215.2595"/>
</g>
<!-- RegRev\\RegRev -->
<g id="node37" class="node">
<title>RegRev\\RegRev</title>
<path fill="#9999cc" stroke="#000000" d="M1242,-799C1242,-799 1152,-799 1152,-799 1146,-799 1140,-793 1140,-787 1140,-787 1140,-775 1140,-775 1140,-769 1146,-763 1152,-763 1152,-763 1242,-763 1242,-763 1248,-763 1254,-769 1254,-775 1254,-775 1254,-787 1254,-787 1254,-793 1248,-799 1242,-799"/>
<text text-anchor="middle" x="1197" y="-778.5" font-family="Times,serif" font-size="10.00" fill="#000033">RegRev\RegRev</text>
</g>
<!-- Apie\\Faker&#45;&gt;RegRev\\RegRev -->
<g id="edge43" class="edge">
<title>Apie\\Faker&#45;&gt;RegRev\\RegRev</title>
<path fill="none" stroke="#999999" d="M955.8256,-1126.9464C988.3858,-1126.3913 1030.6725,-1119.9642 1057,-1094 1140.2347,-1011.9137 1047.1204,-933.5715 1113,-837 1122.7646,-822.6863 1137.5142,-811.0766 1151.9426,-802.2169"/>
<polygon fill="#999999" stroke="#999999" points="1153.1455,-803.9451 1157.234,-799.0774 1151.0023,-800.3331 1153.1455,-803.9451"/>
</g>
<!-- Apie\\RestApi&#45;&gt;Apie\\Core -->
<g id="edge55" class="edge">
<title>Apie\\RestApi&#45;&gt;Apie\\Core</title>
<path fill="none" stroke="#999999" d="M395.5793,-1144.5182C539.0948,-1150.8973 929.8971,-1165.7657 1057,-1145 1088.5222,-1139.85 1122.5186,-1128.5822 1149.1163,-1118.3704"/>
<polygon fill="#999999" stroke="#999999" points="1150.1889,-1120.2065 1155.0198,-1116.0746 1148.6666,-1116.2921 1150.1889,-1120.2065"/>
</g>
<!-- Apie\\RestApi&#45;&gt;Apie\\Common -->
<g id="edge56" class="edge">
<title>Apie\\RestApi&#45;&gt;Apie\\Common</title>
<path fill="none" stroke="#999999" d="M395.6313,-1155.086C437.0659,-1165.1961 494.2342,-1179.1451 536.204,-1189.3858"/>
<polygon fill="#999999" stroke="#999999" points="535.9554,-1191.4867 542.2823,-1190.8689 536.9511,-1187.4064 535.9554,-1191.4867"/>
</g>
<!-- Apie\\Console&#45;&gt;Apie\\Core -->
<g id="edge23" class="edge">
<title>Apie\\Console&#45;&gt;Apie\\Core</title>
<path fill="none" stroke="#999999" d="M395.7866,-1110.9124C515.4667,-1135.5947 812.5058,-1186.749 1057,-1146 1089.0617,-1140.6564 1123.6225,-1128.8731 1150.3836,-1118.3192"/>
<polygon fill="#999999" stroke="#999999" points="1151.1781,-1120.2633 1155.9721,-1116.0886 1149.6211,-1116.3626 1151.1781,-1120.2633"/>
</g>
<!-- Apie\\Console&#45;&gt;Symfony\\Component -->
<g id="edge24" class="edge">
<title>Apie\\Console&#45;&gt;Symfony\\Component</title>
<path fill="none" stroke="#999999" d="M395.8538,-1086.6778C405.7274,-1082.2325 415.0821,-1076.195 422,-1068 513.8713,-959.1675 408.6652,-873.6 486,-754 655.7823,-491.4277 839.9023,-568.0308 1057,-343 1088.1529,-310.7087 1080.6081,-290.0484 1113,-259 1124.9605,-247.5356 1139.934,-237.4303 1153.9137,-229.3026"/>
<polygon fill="#999999" stroke="#999999" points="1155.2414,-230.9634 1159.4189,-226.1719 1153.1651,-227.3125 1155.2414,-230.9634"/>
</g>
<!-- Apie\\Core&#45;&gt;Faker\\Generator -->
<g id="edge26" class="edge">
<title>Apie\\Core&#45;&gt;Faker\\Generator</title>
<path fill="none" stroke="#999999" d="M1214.8413,-1116.081C1239.9873,-1140.6164 1288.2519,-1184.3306 1337,-1210 1337.8002,-1210.4213 1338.6096,-1210.8359 1339.4273,-1211.2438"/>
<polygon fill="#999999" stroke="#999999" points="1338.6096,-1213.1799 1344.9322,-1213.839 1340.4006,-1209.3809 1338.6096,-1213.1799"/>
</g>
<!-- Ramsey\\Uuid -->
<g id="node29" class="node">
<title>Ramsey\\Uuid</title>
<path fill="#9999cc" stroke="#000000" d="M1447,-1116C1447,-1116 1372,-1116 1372,-1116 1366,-1116 1360,-1110 1360,-1104 1360,-1104 1360,-1092 1360,-1092 1360,-1086 1366,-1080 1372,-1080 1372,-1080 1447,-1080 1447,-1080 1453,-1080 1459,-1086 1459,-1092 1459,-1092 1459,-1104 1459,-1104 1459,-1110 1453,-1116 1447,-1116"/>
<text text-anchor="middle" x="1409.5" y="-1095.5" font-family="Times,serif" font-size="10.00" fill="#000033">Ramsey\Uuid</text>
</g>
<!-- Apie\\Core&#45;&gt;Ramsey\\Uuid -->
<g id="edge25" class="edge">
<title>Apie\\Core&#45;&gt;Ramsey\\Uuid</title>
<path fill="none" stroke="#999999" d="M1239.2372,-1098C1272.0754,-1098 1317.9195,-1098 1353.7656,-1098"/>
<polygon fill="#999999" stroke="#999999" points="1353.882,-1100.1001 1359.882,-1098 1353.882,-1095.9001 1353.882,-1100.1001"/>
</g>
<!-- Apie\\Serializer&#45;&gt;Apie\\Core -->
<g id="edge62" class="edge">
<title>Apie\\Serializer&#45;&gt;Apie\\Core</title>
<path fill="none" stroke="#999999" d="M974.0743,-1187.9489C1000.2575,-1184.3538 1030.5095,-1178.7245 1057,-1170 1095.0879,-1157.456 1135.5033,-1135.6409 1163.0677,-1119.3018"/>
<polygon fill="#999999" stroke="#999999" points="1164.3322,-1120.9925 1168.4047,-1116.1114 1162.1772,-1117.3875 1164.3322,-1120.9925"/>
</g>
<!-- Apie\\Serializer&#45;&gt;Symfony\\Component -->
<g id="edge64" class="edge">
<title>Apie\\Serializer&#45;&gt;Symfony\\Component</title>
<path fill="none" stroke="#999999" d="M974.1262,-1189.2176C1004.0885,-1183.46 1037.3425,-1171.3087 1057,-1146 1175.295,-993.6976 1026.8039,-452.5108 1113,-280 1123.3477,-259.2904 1142.5723,-242.1213 1160.021,-229.7496"/>
<polygon fill="#999999" stroke="#999999" points="1161.6183,-231.1993 1165.3673,-226.0655 1159.2351,-227.7408 1161.6183,-231.1993"/>
</g>
<!-- Psr\\Http -->
<g id="node41" class="node">
<title>Psr\\Http</title>
<path fill="#9999cc" stroke="#000000" d="M1223.5,-716C1223.5,-716 1170.5,-716 1170.5,-716 1164.5,-716 1158.5,-710 1158.5,-704 1158.5,-704 1158.5,-692 1158.5,-692 1158.5,-686 1164.5,-680 1170.5,-680 1170.5,-680 1223.5,-680 1223.5,-680 1229.5,-680 1235.5,-686 1235.5,-692 1235.5,-692 1235.5,-704 1235.5,-704 1235.5,-710 1229.5,-716 1223.5,-716"/>
<text text-anchor="middle" x="1197" y="-695.5" font-family="Times,serif" font-size="10.00" fill="#000033">Psr\Http</text>
</g>
<!-- Apie\\Serializer&#45;&gt;Psr\\Http -->
<g id="edge63" class="edge">
<title>Apie\\Serializer&#45;&gt;Psr\\Http</title>
<path fill="none" stroke="#999999" d="M974.0493,-1188.3979C1003.6164,-1182.4224 1036.5522,-1170.3239 1057,-1146 1170.2471,-1011.2858 1019.1665,-902.8896 1113,-754 1122.5712,-738.8129 1137.9296,-726.8143 1152.9123,-717.8837"/>
<polygon fill="#999999" stroke="#999999" points="1154.2452,-719.5401 1158.4039,-714.7321 1152.1546,-715.8973 1154.2452,-719.5401"/>
</g>
<!-- Apie\\Common&#45;&gt;Apie\\Core -->
<g id="edge20" class="edge">
<title>Apie\\Common&#45;&gt;Apie\\Core</title>
<path fill="none" stroke="#999999" d="M641.7901,-1207.4426C675.6522,-1210.2357 721.4905,-1213.572 762,-1215 827.5149,-1217.3094 995.3757,-1237.36 1057,-1215 1108.5107,-1196.3097 1154.3341,-1149.4526 1178.6348,-1121.0309"/>
<polygon fill="#999999" stroke="#999999" points="1180.3687,-1122.2323 1182.6331,-1116.2923 1177.1587,-1119.5237 1180.3687,-1122.2323"/>
</g>
<!-- Apie\\Common&#45;&gt;Apie\\Serializer -->
<g id="edge21" class="edge">
<title>Apie\\Common&#45;&gt;Apie\\Serializer</title>
<path fill="none" stroke="#999999" d="M641.6094,-1201.5938C694.5551,-1200.0929 778.8934,-1197.7022 838.7846,-1196.0045"/>
<polygon fill="#999999" stroke="#999999" points="838.9284,-1198.1014 844.8664,-1195.8321 838.8093,-1193.9031 838.9284,-1198.1014"/>
</g>
<!-- Apie\\ApiePhpstanRules -->
<g id="node9" class="node">
<title>Apie\\ApiePhpstanRules</title>
<path fill="#9999cc" stroke="#000000" d="M984.5,-925C984.5,-925 834.5,-925 834.5,-925 828.5,-925 822.5,-919 822.5,-913 822.5,-913 822.5,-901 822.5,-901 822.5,-895 828.5,-889 834.5,-889 834.5,-889 984.5,-889 984.5,-889 990.5,-889 996.5,-895 996.5,-901 996.5,-901 996.5,-913 996.5,-913 996.5,-919 990.5,-925 984.5,-925"/>
<text text-anchor="middle" x="909.5" y="-904.5" font-family="Times,serif" font-size="10.00" fill="#000033">Apie\ApiePhpstanRules</text>
</g>
<!-- Apie\\ApiePhpstanRules&#45;&gt;Apie\\Core -->
<g id="edge14" class="edge">
<title>Apie\\ApiePhpstanRules&#45;&gt;Apie\\Core</title>
<path fill="none" stroke="#999999" d="M996.8221,-909.4063C1017.5243,-912.7865 1038.846,-918.7614 1057,-929 1118.521,-963.697 1164.3563,-1036.7651 1184.9622,-1074.4363"/>
<polygon fill="#999999" stroke="#999999" points="1183.1207,-1075.4458 1187.8183,-1079.7288 1186.8169,-1073.4512 1183.1207,-1075.4458"/>
</g>
<!-- PHPStan\\Rules -->
<g id="node24" class="node">
<title>PHPStan\\Rules</title>
<path fill="#9999cc" stroke="#000000" d="M1242,-633C1242,-633 1152,-633 1152,-633 1146,-633 1140,-627 1140,-621 1140,-621 1140,-609 1140,-609 1140,-603 1146,-597 1152,-597 1152,-597 1242,-597 1242,-597 1248,-597 1254,-603 1254,-609 1254,-609 1254,-621 1254,-621 1254,-627 1248,-633 1242,-633"/>
<text text-anchor="middle" x="1197" y="-612.5" font-family="Times,serif" font-size="10.00" fill="#000033">PHPStan\Rules</text>
</g>
<!-- Apie\\ApiePhpstanRules&#45;&gt;PHPStan\\Rules -->
<g id="edge11" class="edge">
<title>Apie\\ApiePhpstanRules&#45;&gt;PHPStan\\Rules</title>
<path fill="none" stroke="#999999" d="M996.7084,-910.3994C1018.6029,-907.1499 1040.5258,-899.7863 1057,-885 1130.1652,-819.3309 1055.9268,-751.0515 1113,-671 1123.1493,-656.7644 1138.1427,-645.1203 1152.6642,-636.2095"/>
<polygon fill="#999999" stroke="#999999" points="1153.8967,-637.92 1157.9831,-633.0505 1151.752,-634.3089 1153.8967,-637.92"/>
</g>
<!-- PHPStan\\Analyser -->
<g id="node25" class="node">
<title>PHPStan\\Analyser</title>
<path fill="#9999cc" stroke="#000000" d="M1253.5,-590C1253.5,-590 1140.5,-590 1140.5,-590 1134.5,-590 1128.5,-584 1128.5,-578 1128.5,-578 1128.5,-566 1128.5,-566 1128.5,-560 1134.5,-554 1140.5,-554 1140.5,-554 1253.5,-554 1253.5,-554 1259.5,-554 1265.5,-560 1265.5,-566 1265.5,-566 1265.5,-578 1265.5,-578 1265.5,-584 1259.5,-590 1253.5,-590"/>
<text text-anchor="middle" x="1197" y="-569.5" font-family="Times,serif" font-size="10.00" fill="#000033">PHPStan\Analyser</text>
</g>
<!-- Apie\\ApiePhpstanRules&#45;&gt;PHPStan\\Analyser -->
<g id="edge13" class="edge">
<title>Apie\\ApiePhpstanRules&#45;&gt;PHPStan\\Analyser</title>
<path fill="none" stroke="#999999" d="M996.5995,-911.2224C1018.7532,-908.0367 1040.8344,-900.4996 1057,-885 1152.068,-793.8483 1022.9947,-690.1541 1113,-594 1115.8395,-590.9665 1119.0413,-588.3312 1122.4945,-586.0435"/>
<polygon fill="#999999" stroke="#999999" points="1124.0125,-587.586 1128.1118,-582.7274 1121.8774,-583.9692 1124.0125,-587.586"/>
</g>
<!-- PhpParser\\Node -->
<g id="node26" class="node">
<title>PhpParser\\Node</title>
<path fill="#9999cc" stroke="#000000" d="M1246,-507C1246,-507 1148,-507 1148,-507 1142,-507 1136,-501 1136,-495 1136,-495 1136,-483 1136,-483 1136,-477 1142,-471 1148,-471 1148,-471 1246,-471 1246,-471 1252,-471 1258,-477 1258,-483 1258,-483 1258,-495 1258,-495 1258,-501 1252,-507 1246,-507"/>
<text text-anchor="middle" x="1197" y="-486.5" font-family="Times,serif" font-size="10.00" fill="#000033">PhpParser\Node</text>
</g>
<!-- Apie\\ApiePhpstanRules&#45;&gt;PhpParser\\Node -->
<g id="edge12" class="edge">
<title>Apie\\ApiePhpstanRules&#45;&gt;PhpParser\\Node</title>
<path fill="none" stroke="#999999" d="M996.8754,-911.5063C1019.0309,-908.3225 1041.0442,-900.7155 1057,-885 1166.1101,-777.5337 1029.9683,-673.6847 1113,-545 1122.3096,-530.5718 1136.7957,-518.9853 1151.133,-510.1786"/>
<polygon fill="#999999" stroke="#999999" points="1152.3065,-511.9244 1156.3986,-507.0597 1150.166,-508.3107 1152.3065,-511.9244"/>
</g>
<!-- Apie\\CmsLayoutGraphite -->
<g id="node10" class="node">
<title>Apie\\CmsLayoutGraphite</title>
<path fill="#9999cc" stroke="#000000" d="M186,-1064C186,-1064 28,-1064 28,-1064 22,-1064 16,-1058 16,-1052 16,-1052 16,-1040 16,-1040 16,-1034 22,-1028 28,-1028 28,-1028 186,-1028 186,-1028 192,-1028 198,-1034 198,-1040 198,-1040 198,-1052 198,-1052 198,-1058 192,-1064 186,-1064"/>
<text text-anchor="middle" x="107" y="-1043.5" font-family="Times,serif" font-size="10.00" fill="#000033">Apie\CmsLayoutGraphite</text>
</g>
<!-- Apie\\HtmlBuilders -->
<g id="node11" class="node">
<title>Apie\\HtmlBuilders</title>
<path fill="#9999cc" stroke="#000000" d="M402,-1064C402,-1064 282,-1064 282,-1064 276,-1064 270,-1058 270,-1052 270,-1052 270,-1040 270,-1040 270,-1034 276,-1028 282,-1028 282,-1028 402,-1028 402,-1028 408,-1028 414,-1034 414,-1040 414,-1040 414,-1052 414,-1052 414,-1058 408,-1064 402,-1064"/>
<text text-anchor="middle" x="342" y="-1043.5" font-family="Times,serif" font-size="10.00" fill="#000033">Apie\HtmlBuilders</text>
</g>
<!-- Apie\\CmsLayoutGraphite&#45;&gt;Apie\\HtmlBuilders -->
<g id="edge16" class="edge">
<title>Apie\\CmsLayoutGraphite&#45;&gt;Apie\\HtmlBuilders</title>
<path fill="none" stroke="#999999" d="M198.1935,-1046C219.7998,-1046 242.6572,-1046 263.6355,-1046"/>
<polygon fill="#999999" stroke="#999999" points="263.7901,-1048.1001 269.7901,-1046 263.7901,-1043.9001 263.7901,-1048.1001"/>
</g>
<!-- Twig\\Extension -->
<g id="node27" class="node">
<title>Twig\\Extension</title>
<path fill="#9999cc" stroke="#000000" d="M391,-112C391,-112 293,-112 293,-112 287,-112 281,-106 281,-100 281,-100 281,-88 281,-88 281,-82 287,-76 293,-76 293,-76 391,-76 391,-76 397,-76 403,-82 403,-88 403,-88 403,-100 403,-100 403,-106 397,-112 391,-112"/>
<text text-anchor="middle" x="342" y="-91.5" font-family="Times,serif" font-size="10.00" fill="#000033">Twig\Extension</text>
</g>
<!-- Apie\\CmsLayoutGraphite&#45;&gt;Twig\\Extension -->
<g id="edge15" class="edge">
<title>Apie\\CmsLayoutGraphite&#45;&gt;Twig\\Extension</title>
<path fill="none" stroke="#999999" d="M108.2435,-1027.9279C116.2964,-914.8621 163.8466,-304.5979 262,-150 270.9847,-135.8484 284.963,-124.2747 298.7373,-115.3985"/>
<polygon fill="#999999" stroke="#999999" points="300.2102,-116.9558 304.1997,-112.0066 297.9946,-113.3878 300.2102,-116.9558"/>
</g>
<!-- Twig\\TwigFunction -->
<g id="node28" class="node">
<title>Twig\\TwigFunction</title>
<path fill="#9999cc" stroke="#000000" d="M402,-69C402,-69 282,-69 282,-69 276,-69 270,-63 270,-57 270,-57 270,-45 270,-45 270,-39 276,-33 282,-33 282,-33 402,-33 402,-33 408,-33 414,-39 414,-45 414,-45 414,-57 414,-57 414,-63 408,-69 402,-69"/>
<text text-anchor="middle" x="342" y="-48.5" font-family="Times,serif" font-size="10.00" fill="#000033">Twig\TwigFunction</text>
</g>
<!-- Apie\\CmsLayoutGraphite&#45;&gt;Twig\\TwigFunction -->
<g id="edge17" class="edge">
<title>Apie\\CmsLayoutGraphite&#45;&gt;Twig\\TwigFunction</title>
<path fill="none" stroke="#999999" d="M107.3021,-1027.8346C109.6746,-907.1651 128.9354,-221.6289 262,-73 262.8647,-72.0341 263.7675,-71.109 264.7047,-70.2229"/>
<polygon fill="#999999" stroke="#999999" points="266.3838,-71.5583 269.6591,-66.1101 263.7011,-68.3267 266.3838,-71.5583"/>
</g>
<!-- Apie\\HtmlBuilders&#45;&gt;Apie\\Core -->
<g id="edge50" class="edge">
<title>Apie\\HtmlBuilders&#45;&gt;Apie\\Core</title>
<path fill="none" stroke="#999999" d="M414.1951,-1045.2109C583.2046,-1043.5492 994.9765,-1040.644 1057,-1051 1088.3865,-1056.2406 1122.2463,-1067.4469 1148.8038,-1077.6027"/>
<polygon fill="#999999" stroke="#999999" points="1148.3464,-1079.6775 1154.6999,-1079.8859 1149.8631,-1075.7609 1148.3464,-1079.6775"/>
</g>
<!-- Apie\\Fixtures -->
<g id="node17" class="node">
<title>Apie\\Fixtures</title>
<path fill="#9999cc" stroke="#000000" d="M637,-1090C637,-1090 547,-1090 547,-1090 541,-1090 535,-1084 535,-1078 535,-1078 535,-1066 535,-1066 535,-1060 541,-1054 547,-1054 547,-1054 637,-1054 637,-1054 643,-1054 649,-1060 649,-1066 649,-1066 649,-1078 649,-1078 649,-1084 643,-1090 637,-1090"/>
<text text-anchor="middle" x="592" y="-1069.5" font-family="Times,serif" font-size="10.00" fill="#000033">Apie\Fixtures</text>
</g>
<!-- Apie\\HtmlBuilders&#45;&gt;Apie\\Fixtures -->
<g id="edge52" class="edge">
<title>Apie\\HtmlBuilders&#45;&gt;Apie\\Fixtures</title>
<path fill="none" stroke="#999999" d="M414.3104,-1053.5203C450.4221,-1057.2759 493.715,-1061.7784 528.5264,-1065.3987"/>
<polygon fill="#999999" stroke="#999999" points="528.739,-1067.5321 534.9241,-1066.0641 529.1735,-1063.3546 528.739,-1067.5321"/>
</g>
<!-- PHPUnit\\Framework -->
<g id="node38" class="node">
<title>PHPUnit\\Framework</title>
<path fill="#9999cc" stroke="#000000" d="M652,-799C652,-799 532,-799 532,-799 526,-799 520,-793 520,-787 520,-787 520,-775 520,-775 520,-769 526,-763 532,-763 532,-763 652,-763 652,-763 658,-763 664,-769 664,-775 664,-775 664,-787 664,-787 664,-793 658,-799 652,-799"/>
<text text-anchor="middle" x="592" y="-778.5" font-family="Times,serif" font-size="10.00" fill="#000033">PHPUnit\Framework</text>
</g>
<!-- Apie\\HtmlBuilders&#45;&gt;PHPUnit\\Framework -->
<g id="edge51" class="edge">
<title>Apie\\HtmlBuilders&#45;&gt;PHPUnit\\Framework</title>
<path fill="none" stroke="#999999" d="M350.6377,-1027.9007C370.0593,-988.7645 420.6343,-895.117 486,-837 502.0694,-822.7126 522.4324,-810.8365 541.0063,-801.7525"/>
<polygon fill="#999999" stroke="#999999" points="542.2016,-803.5086 546.7064,-799.0234 540.3878,-799.7204 542.2016,-803.5086"/>
</g>
<!-- Apie\\CompositeValueObjects -->
<g id="node12" class="node">
<title>Apie\\CompositeValueObjects</title>
<path fill="#9999cc" stroke="#000000" d="M1003.5,-1029C1003.5,-1029 815.5,-1029 815.5,-1029 809.5,-1029 803.5,-1023 803.5,-1017 803.5,-1017 803.5,-1005 803.5,-1005 803.5,-999 809.5,-993 815.5,-993 815.5,-993 1003.5,-993 1003.5,-993 1009.5,-993 1015.5,-999 1015.5,-1005 1015.5,-1005 1015.5,-1017 1015.5,-1017 1015.5,-1023 1009.5,-1029 1003.5,-1029"/>
<text text-anchor="middle" x="909.5" y="-1008.5" font-family="Times,serif" font-size="10.00" fill="#000033">Apie\CompositeValueObjects</text>
</g>
<!-- Apie\\CompositeValueObjects&#45;&gt;Apie\\Core -->
<g id="edge22" class="edge">
<title>Apie\\CompositeValueObjects&#45;&gt;Apie\\Core</title>
<path fill="none" stroke="#999999" d="M1015.8109,-1024.871C1029.794,-1027.692 1043.8318,-1031.0407 1057,-1035 1092.415,-1045.6484 1130.5665,-1063.2607 1158.0848,-1077.1601"/>
<polygon fill="#999999" stroke="#999999" points="1157.1429,-1079.0371 1163.4427,-1079.8873 1159.0481,-1075.294 1157.1429,-1079.0371"/>
</g>
<!-- Apie\\CountryAndPhoneNumber -->
<g id="node13" class="node">
<title>Apie\\CountryAndPhoneNumber</title>
<path fill="#9999cc" stroke="#000000" d="M686,-1038C686,-1038 498,-1038 498,-1038 492,-1038 486,-1032 486,-1026 486,-1026 486,-1014 486,-1014 486,-1008 492,-1002 498,-1002 498,-1002 686,-1002 686,-1002 692,-1002 698,-1008 698,-1014 698,-1014 698,-1026 698,-1026 698,-1032 692,-1038 686,-1038"/>
<text text-anchor="middle" x="592" y="-1017.5" font-family="Times,serif" font-size="10.00" fill="#000033">Apie\CountryAndPhoneNumber</text>
</g>
<!-- Apie\\CountryAndPhoneNumber&#45;&gt;Apie\\Core -->
<g id="edge28" class="edge">
<title>Apie\\CountryAndPhoneNumber&#45;&gt;Apie\\Core</title>
<path fill="none" stroke="#999999" d="M698.0702,-1027.9775C719.24,-1029.4314 741.3208,-1030.8498 762,-1032 827.5085,-1035.6436 992.7559,-1030.683 1057,-1044 1090.8169,-1051.0098 1127.1535,-1065.2408 1154.3313,-1077.3341"/>
<polygon fill="#999999" stroke="#999999" points="1153.6542,-1079.3322 1159.9876,-1079.8789 1155.3775,-1075.502 1153.6542,-1079.3322"/>
</g>
<!-- Apie\\CountryAndPhoneNumber&#45;&gt;Apie\\CompositeValueObjects -->
<g id="edge29" class="edge">
<title>Apie\\CountryAndPhoneNumber&#45;&gt;Apie\\CompositeValueObjects</title>
<path fill="none" stroke="#999999" d="M698.1643,-1016.9906C729.9374,-1016.09 764.8787,-1015.0995 797.0419,-1014.1878"/>
<polygon fill="#999999" stroke="#999999" points="797.4977,-1016.2758 803.4357,-1014.0065 797.3786,-1012.0775 797.4977,-1016.2758"/>
</g>
<!-- Apie\\CountryAndPhoneNumber&#45;&gt;Faker\\Generator -->
<g id="edge32" class="edge">
<title>Apie\\CountryAndPhoneNumber&#45;&gt;Faker\\Generator</title>
<path fill="none" stroke="#999999" d="M682.5552,-1038.273C688.2633,-1041.8122 693.5082,-1046.0142 698,-1051 804.1382,-1168.8125 640.2306,-1300.4259 762,-1402 812.3409,-1443.9919 992.4736,-1413.5703 1057,-1402 1161.5034,-1383.2614 1186.5837,-1367.5558 1281,-1319 1317.6117,-1300.1715 1356.3015,-1272.8217 1381.543,-1253.8327"/>
<polygon fill="#999999" stroke="#999999" points="1382.8903,-1255.4467 1386.4074,-1250.1513 1380.3558,-1252.0976 1382.8903,-1255.4467"/>
</g>
<!-- PrinsFrank\\Standards -->
<g id="node30" class="node">
<title>PrinsFrank\\Standards</title>
<path fill="#9999cc" stroke="#000000" d="M981,-1764C981,-1764 838,-1764 838,-1764 832,-1764 826,-1758 826,-1752 826,-1752 826,-1740 826,-1740 826,-1734 832,-1728 838,-1728 838,-1728 981,-1728 981,-1728 987,-1728 993,-1734 993,-1740 993,-1740 993,-1752 993,-1752 993,-1758 987,-1764 981,-1764"/>
<text text-anchor="middle" x="909.5" y="-1743.5" font-family="Times,serif" font-size="10.00" fill="#000033">PrinsFrank\Standards</text>
</g>
<!-- Apie\\CountryAndPhoneNumber&#45;&gt;PrinsFrank\\Standards -->
<g id="edge27" class="edge">
<title>Apie\\CountryAndPhoneNumber&#45;&gt;PrinsFrank\\Standards</title>
<path fill="none" stroke="#999999" d="M683.5107,-1038.1744C688.9217,-1041.7427 693.8437,-1045.9777 698,-1051 792.2295,-1164.8628 664.1528,-1602.2305 762,-1713 776.7678,-1729.7182 797.9921,-1738.9722 819.7566,-1743.8757"/>
<polygon fill="#999999" stroke="#999999" points="819.6038,-1745.9884 825.9047,-1745.1459 820.4537,-1741.8753 819.6038,-1745.9884"/>
</g>
<!-- libphonenumber\\PhoneNumberUtil -->
<g id="node31" class="node">
<title>libphonenumber\\PhoneNumberUtil</title>
<path fill="#9999cc" stroke="#000000" d="M1018.5,-1681C1018.5,-1681 800.5,-1681 800.5,-1681 794.5,-1681 788.5,-1675 788.5,-1669 788.5,-1669 788.5,-1657 788.5,-1657 788.5,-1651 794.5,-1645 800.5,-1645 800.5,-1645 1018.5,-1645 1018.5,-1645 1024.5,-1645 1030.5,-1651 1030.5,-1657 1030.5,-1657 1030.5,-1669 1030.5,-1669 1030.5,-1675 1024.5,-1681 1018.5,-1681"/>
<text text-anchor="middle" x="909.5" y="-1660.5" font-family="Times,serif" font-size="10.00" fill="#000033">libphonenumber\PhoneNumberUtil</text>
</g>
<!-- Apie\\CountryAndPhoneNumber&#45;&gt;libphonenumber\\PhoneNumberUtil -->
<g id="edge30" class="edge">
<title>Apie\\CountryAndPhoneNumber&#45;&gt;libphonenumber\\PhoneNumberUtil</title>
<path fill="none" stroke="#999999" d="M683.4447,-1038.2293C688.871,-1041.7849 693.8145,-1046.0021 698,-1051 867.3465,-1253.216 579.2612,-1450.7998 762,-1641 768.1213,-1647.3712 775.2315,-1652.4348 782.9584,-1656.4261"/>
<polygon fill="#999999" stroke="#999999" points="782.0819,-1658.3346 788.4016,-1659.0209 783.8892,-1654.5433 782.0819,-1658.3346"/>
</g>
<!-- libphonenumber\\PhoneNumberFormat -->
<g id="node32" class="node">
<title>libphonenumber\\PhoneNumberFormat</title>
<path fill="#9999cc" stroke="#000000" d="M1026,-1638C1026,-1638 793,-1638 793,-1638 787,-1638 781,-1632 781,-1626 781,-1626 781,-1614 781,-1614 781,-1608 787,-1602 793,-1602 793,-1602 1026,-1602 1026,-1602 1032,-1602 1038,-1608 1038,-1614 1038,-1614 1038,-1626 1038,-1626 1038,-1632 1032,-1638 1026,-1638"/>
<text text-anchor="middle" x="909.5" y="-1617.5" font-family="Times,serif" font-size="10.00" fill="#000033">libphonenumber\PhoneNumberFormat</text>
</g>
<!-- Apie\\CountryAndPhoneNumber&#45;&gt;libphonenumber\\PhoneNumberFormat -->
<g id="edge31" class="edge">
<title>Apie\\CountryAndPhoneNumber&#45;&gt;libphonenumber\\PhoneNumberFormat</title>
<path fill="none" stroke="#999999" d="M683.3973,-1038.2692C688.8346,-1041.8156 693.7935,-1046.0198 698,-1051 855.9421,-1237.993 591.677,-1422.2099 762,-1598 766.1015,-1602.2332 770.64,-1605.8874 775.5053,-1609.0322"/>
<polygon fill="#999999" stroke="#999999" points="774.6779,-1610.9835 780.9078,-1612.248 776.8262,-1607.3745 774.6779,-1610.9835"/>
</g>
<!-- libphonenumber\\PhoneNumber -->
<g id="node33" class="node">
<title>libphonenumber\\PhoneNumber</title>
<path fill="#9999cc" stroke="#000000" d="M1003.5,-1595C1003.5,-1595 815.5,-1595 815.5,-1595 809.5,-1595 803.5,-1589 803.5,-1583 803.5,-1583 803.5,-1571 803.5,-1571 803.5,-1565 809.5,-1559 815.5,-1559 815.5,-1559 1003.5,-1559 1003.5,-1559 1009.5,-1559 1015.5,-1565 1015.5,-1571 1015.5,-1571 1015.5,-1583 1015.5,-1583 1015.5,-1589 1009.5,-1595 1003.5,-1595"/>
<text text-anchor="middle" x="909.5" y="-1574.5" font-family="Times,serif" font-size="10.00" fill="#000033">libphonenumber\PhoneNumber</text>
</g>
<!-- Apie\\CountryAndPhoneNumber&#45;&gt;libphonenumber\\PhoneNumber -->
<g id="edge33" class="edge">
<title>Apie\\CountryAndPhoneNumber&#45;&gt;libphonenumber\\PhoneNumber</title>
<path fill="none" stroke="#999999" d="M682.8601,-1038.0057C688.4988,-1041.6058 693.6446,-1045.8946 698,-1051 844.5475,-1222.7816 604.0821,-1393.6091 762,-1555 771.9025,-1565.1203 784.3053,-1571.9207 797.6883,-1576.3578"/>
<polygon fill="#999999" stroke="#999999" points="797.1281,-1578.3823 803.4795,-1578.1175 798.3492,-1574.3637 797.1281,-1578.3823"/>
</g>
<!-- libphonenumber\\NumberParseException -->
<g id="node34" class="node">
<title>libphonenumber\\NumberParseException</title>
<path fill="#9999cc" stroke="#000000" d="M1037,-1552C1037,-1552 782,-1552 782,-1552 776,-1552 770,-1546 770,-1540 770,-1540 770,-1528 770,-1528 770,-1522 776,-1516 782,-1516 782,-1516 1037,-1516 1037,-1516 1043,-1516 1049,-1522 1049,-1528 1049,-1528 1049,-1540 1049,-1540 1049,-1546 1043,-1552 1037,-1552"/>
<text text-anchor="middle" x="909.5" y="-1531.5" font-family="Times,serif" font-size="10.00" fill="#000033">libphonenumber\NumberParseException</text>
</g>
<!-- Apie\\CountryAndPhoneNumber&#45;&gt;libphonenumber\\NumberParseException -->
<g id="edge34" class="edge">
<title>Apie\\CountryAndPhoneNumber&#45;&gt;libphonenumber\\NumberParseException</title>
<path fill="none" stroke="#999999" d="M682.7749,-1038.0789C688.433,-1041.6623 693.6065,-1045.9274 698,-1051 830.2562,-1203.7003 624.8952,-1352.6378 762,-1501 765.989,-1505.3166 770.4092,-1509.1304 775.1544,-1512.4964"/>
<polygon fill="#999999" stroke="#999999" points="774.2617,-1514.4234 780.4262,-1515.9758 776.5753,-1510.918 774.2617,-1514.4234"/>
</g>
<!-- Apie\\DateValueObjects -->
<g id="node14" class="node">
<title>Apie\\DateValueObjects</title>
<path fill="#9999cc" stroke="#000000" d="M667,-995C667,-995 517,-995 517,-995 511,-995 505,-989 505,-983 505,-983 505,-971 505,-971 505,-965 511,-959 517,-959 517,-959 667,-959 667,-959 673,-959 679,-965 679,-971 679,-971 679,-983 679,-983 679,-989 673,-995 667,-995"/>
<text text-anchor="middle" x="592" y="-974.5" font-family="Times,serif" font-size="10.00" fill="#000033">Apie\DateValueObjects</text>
</g>
<!-- Apie\\DateValueObjects&#45;&gt;Apie\\Core -->
<g id="edge35" class="edge">
<title>Apie\\DateValueObjects&#45;&gt;Apie\\Core</title>
<path fill="none" stroke="#999999" d="M679.0927,-978.0476C808.8311,-979.8076 1039.5753,-983.7869 1057,-990 1105.926,-1007.4453 1151.339,-1049.0133 1176.5076,-1075.1929"/>
<polygon fill="#999999" stroke="#999999" points="1175.0144,-1076.6702 1180.6692,-1079.5743 1178.0597,-1073.7777 1175.0144,-1076.6702"/>
</g>
<!-- Apie\\DateValueObjects&#45;&gt;Apie\\CompositeValueObjects -->
<g id="edge36" class="edge">
<title>Apie\\DateValueObjects&#45;&gt;Apie\\CompositeValueObjects</title>
<path fill="none" stroke="#999999" d="M679.1782,-986.3356C715.5979,-990.2357 758.3739,-994.8164 797.1124,-998.9648"/>
<polygon fill="#999999" stroke="#999999" points="797.1039,-1001.0758 803.2934,-999.6267 797.5512,-996.8997 797.1039,-1001.0758"/>
</g>
<!-- Apie\\DateValueObjects&#45;&gt;Faker\\Generator -->
<g id="edge37" class="edge">
<title>Apie\\DateValueObjects&#45;&gt;Faker\\Generator</title>
<path fill="none" stroke="#999999" d="M679.0602,-986.0833C686.0302,-989.3827 692.4925,-993.6103 698,-999 788.6167,-1087.6774 662.7995,-1198.0422 762,-1277 849.3954,-1346.5616 1189.7535,-1281.3954 1338.8612,-1248.4555"/>
<polygon fill="#999999" stroke="#999999" points="1339.5475,-1250.4544 1344.9503,-1247.1048 1338.6378,-1246.3541 1339.5475,-1250.4544"/>
</g>
<!-- Apie\\DateformatToRegex -->
<g id="node15" class="node">
<title>Apie\\DateformatToRegex</title>
<path fill="#9999cc" stroke="#000000" d="M988.5,-882C988.5,-882 830.5,-882 830.5,-882 824.5,-882 818.5,-876 818.5,-870 818.5,-870 818.5,-858 818.5,-858 818.5,-852 824.5,-846 830.5,-846 830.5,-846 988.5,-846 988.5,-846 994.5,-846 1000.5,-852 1000.5,-858 1000.5,-858 1000.5,-870 1000.5,-870 1000.5,-876 994.5,-882 988.5,-882"/>
<text text-anchor="middle" x="909.5" y="-861.5" font-family="Times,serif" font-size="10.00" fill="#000033">Apie\DateformatToRegex</text>
</g>
<!-- Apie\\DoctrineEntityConverter -->
<g id="node16" class="node">
<title>Apie\\DoctrineEntityConverter</title>
<path fill="#9999cc" stroke="#000000" d="M1011,-968C1011,-968 808,-968 808,-968 802,-968 796,-962 796,-956 796,-956 796,-944 796,-944 796,-938 802,-932 808,-932 808,-932 1011,-932 1011,-932 1017,-932 1023,-938 1023,-944 1023,-944 1023,-956 1023,-956 1023,-962 1017,-968 1011,-968"/>
<text text-anchor="middle" x="909.5" y="-947.5" font-family="Times,serif" font-size="10.00" fill="#000033">Apie\DoctrineEntityConverter</text>
</g>
<!-- Apie\\DoctrineEntityConverter&#45;&gt;Apie\\Core -->
<g id="edge38" class="edge">
<title>Apie\\DoctrineEntityConverter&#45;&gt;Apie\\Core</title>
<path fill="none" stroke="#999999" d="M1023.0459,-961.7295C1034.802,-964.9189 1046.3352,-968.939 1057,-974 1107.7441,-998.0807 1153.837,-1046.2395 1178.393,-1074.9387"/>
<polygon fill="#999999" stroke="#999999" points="1176.9564,-1076.492 1182.4353,-1079.7157 1180.1626,-1073.7789 1176.9564,-1076.492"/>
</g>
<!-- Nette\\PhpGenerator -->
<g id="node35" class="node">
<title>Nette\\PhpGenerator</title>
<path fill="#9999cc" stroke="#000000" d="M1261,-408C1261,-408 1133,-408 1133,-408 1127,-408 1121,-402 1121,-396 1121,-396 1121,-384 1121,-384 1121,-378 1127,-372 1133,-372 1133,-372 1261,-372 1261,-372 1267,-372 1273,-378 1273,-384 1273,-384 1273,-396 1273,-396 1273,-402 1267,-408 1261,-408"/>
<text text-anchor="middle" x="1197" y="-387.5" font-family="Times,serif" font-size="10.00" fill="#000033">Nette\PhpGenerator</text>
</g>
<!-- Apie\\DoctrineEntityConverter&#45;&gt;Nette\\PhpGenerator -->
<g id="edge39" class="edge">
<title>Apie\\DoctrineEntityConverter&#45;&gt;Nette\\PhpGenerator</title>
<path fill="none" stroke="#999999" d="M1023.0111,-948.9096C1035.7653,-944.4516 1047.5454,-937.7659 1057,-928 1132.0034,-850.5265 1056.7087,-537.9725 1113,-446 1121.8823,-431.4876 1136.1073,-419.9288 1150.3458,-411.1705"/>
<polygon fill="#999999" stroke="#999999" points="1151.4892,-412.9341 1155.5823,-408.0702 1149.3494,-409.32 1151.4892,-412.9341"/>
</g>
<!-- Doctrine\\ORM -->
<g id="node36" class="node">
<title>Doctrine\\ORM</title>
<path fill="#9999cc" stroke="#000000" d="M1238.5,-325C1238.5,-325 1155.5,-325 1155.5,-325 1149.5,-325 1143.5,-319 1143.5,-313 1143.5,-313 1143.5,-301 1143.5,-301 1143.5,-295 1149.5,-289 1155.5,-289 1155.5,-289 1238.5,-289 1238.5,-289 1244.5,-289 1250.5,-295 1250.5,-301 1250.5,-301 1250.5,-313 1250.5,-313 1250.5,-319 1244.5,-325 1238.5,-325"/>
<text text-anchor="middle" x="1197" y="-304.5" font-family="Times,serif" font-size="10.00" fill="#000033">Doctrine\ORM</text>
</g>
<!-- Apie\\DoctrineEntityConverter&#45;&gt;Doctrine\\ORM -->
<g id="edge40" class="edge">
<title>Apie\\DoctrineEntityConverter&#45;&gt;Doctrine\\ORM</title>
<path fill="none" stroke="#999999" d="M1023.1679,-949.0601C1035.8968,-944.5778 1047.6282,-937.8453 1057,-928 1143.9916,-836.6133 1048.0453,-471.1663 1113,-363 1121.6792,-348.547 1135.6949,-337.0491 1149.8117,-328.3261"/>
<polygon fill="#999999" stroke="#999999" points="1150.923,-330.1086 1155.0076,-325.2375 1148.7769,-326.4982 1150.923,-330.1086"/>
</g>
<!-- Apie\\Fixtures&#45;&gt;Apie\\Faker -->
<g id="edge47" class="edge">
<title>Apie\\Fixtures&#45;&gt;Apie\\Faker</title>
<path fill="none" stroke="#999999" d="M649.0499,-1081.4248C682.0482,-1086.8691 724.3638,-1093.8386 762,-1100 793.5394,-1105.1633 828.8783,-1110.9145 857.0576,-1115.4924"/>
<polygon fill="#999999" stroke="#999999" points="857.0645,-1117.6209 863.3236,-1116.5102 857.7379,-1113.4753 857.0645,-1117.6209"/>
</g>
<!-- Apie\\Fixtures&#45;&gt;Apie\\Core -->
<g id="edge44" class="edge">
<title>Apie\\Fixtures&#45;&gt;Apie\\Core</title>
<path fill="none" stroke="#999999" d="M649.291,-1080.6911C682.1848,-1085.2758 724.3177,-1090.4639 762,-1093 902.2743,-1102.4407 1068.5527,-1100.7955 1148.8478,-1099.1949"/>
<polygon fill="#999999" stroke="#999999" points="1148.9905,-1101.2925 1154.9463,-1099.0701 1148.9045,-1097.0934 1148.9905,-1101.2925"/>
</g>
<!-- Apie\\Fixtures&#45;&gt;Apie\\CompositeValueObjects -->
<g id="edge45" class="edge">
<title>Apie\\Fixtures&#45;&gt;Apie\\CompositeValueObjects</title>
<path fill="none" stroke="#999999" d="M649.1293,-1061.024C693.74,-1052.4531 756.821,-1040.3336 809.7192,-1030.1705"/>
<polygon fill="#999999" stroke="#999999" points="810.2922,-1032.1989 815.7882,-1029.0045 809.4997,-1028.0743 810.2922,-1032.1989"/>
</g>
<!-- Apie\\TextValueObjects -->
<g id="node18" class="node">
<title>Apie\\TextValueObjects</title>
<path fill="#9999cc" stroke="#000000" d="M984.5,-1090C984.5,-1090 834.5,-1090 834.5,-1090 828.5,-1090 822.5,-1084 822.5,-1078 822.5,-1078 822.5,-1066 822.5,-1066 822.5,-1060 828.5,-1054 834.5,-1054 834.5,-1054 984.5,-1054 984.5,-1054 990.5,-1054 996.5,-1060 996.5,-1066 996.5,-1066 996.5,-1078 996.5,-1078 996.5,-1084 990.5,-1090 984.5,-1090"/>
<text text-anchor="middle" x="909.5" y="-1069.5" font-family="Times,serif" font-size="10.00" fill="#000033">Apie\TextValueObjects</text>
</g>
<!-- Apie\\Fixtures&#45;&gt;Apie\\TextValueObjects -->
<g id="edge49" class="edge">
<title>Apie\\Fixtures&#45;&gt;Apie\\TextValueObjects</title>
<path fill="none" stroke="#999999" d="M649.1293,-1072C695.5451,-1072 761.956,-1072 816.0884,-1072"/>
<polygon fill="#999999" stroke="#999999" points="816.2906,-1074.1001 822.2906,-1072 816.2906,-1069.9001 816.2906,-1074.1001"/>
</g>
<!-- Apie\\Fixtures&#45;&gt;Faker\\Generator -->
<g id="edge46" class="edge">
<title>Apie\\Fixtures&#45;&gt;Faker\\Generator</title>
<path fill="none" stroke="#999999" d="M612.1475,-1090.282C634.5726,-1111.2 671.1806,-1147.0871 698,-1182 731.5249,-1225.642 714.0735,-1260.9521 762,-1288 859.0417,-1342.7667 1191.7738,-1279.6902 1338.7457,-1248.0096"/>
<polygon fill="#999999" stroke="#999999" points="1339.329,-1250.0321 1344.7492,-1246.7107 1338.4408,-1245.9271 1339.329,-1250.0321"/>
</g>
<!-- Apie\\Fixtures&#45;&gt;Faker\\Factory -->
<g id="edge48" class="edge">
<title>Apie\\Fixtures&#45;&gt;Faker\\Factory</title>
<path fill="none" stroke="#999999" d="M611.3999,-1090.1773C633.472,-1111.2885 670.0708,-1147.6259 698,-1182 729.8714,-1221.2261 717.3228,-1252.3691 762,-1276 819.9489,-1306.6506 991.9237,-1283.912 1057,-1276 1112.6629,-1269.2325 1261.209,-1229.852 1346.6522,-1206.4571"/>
<polygon fill="#999999" stroke="#999999" points="1347.2088,-1208.482 1352.4401,-1204.8703 1346.0983,-1204.4315 1347.2088,-1208.482"/>
</g>
<!-- Apie\\TextValueObjects&#45;&gt;Apie\\Core -->
<g id="edge65" class="edge">
<title>Apie\\TextValueObjects&#45;&gt;Apie\\Core</title>
<path fill="none" stroke="#999999" d="M996.5397,-1079.8714C1046.3724,-1084.378 1107.0337,-1089.8639 1148.4867,-1093.6127"/>
<polygon fill="#999999" stroke="#999999" points="1148.55,-1095.7269 1154.7148,-1094.1759 1148.9283,-1091.544 1148.55,-1095.7269"/>
</g>
<!-- Apie\\TextValueObjects&#45;&gt;Faker\\Generator -->
<g id="edge66" class="edge">
<title>Apie\\TextValueObjects&#45;&gt;Faker\\Generator</title>
<path fill="none" stroke="#999999" d="M996.6801,-1067.0123C1019.5172,-1061.3706 1041.9349,-1051.1322 1057,-1033 1164.2305,-903.9383 990.0296,-394.1648 1113,-280 1140.3601,-254.5991 1253.8196,-254.407 1281,-280 1431.7357,-421.9321 1208.7291,-1047.4806 1337,-1210 1337.9983,-1211.2648 1339.067,-1212.459 1340.1972,-1213.5863"/>
<polygon fill="#999999" stroke="#999999" points="1338.9324,-1215.2691 1344.842,-1217.6115 1341.683,-1212.0951 1338.9324,-1215.2691"/>
</g>
<!-- Apie\\RegexValueObjects -->
<g id="node19" class="node">
<title>Apie\\RegexValueObjects</title>
<path fill="#9999cc" stroke="#000000" d="M988.5,-1273C988.5,-1273 830.5,-1273 830.5,-1273 824.5,-1273 818.5,-1267 818.5,-1261 818.5,-1261 818.5,-1249 818.5,-1249 818.5,-1243 824.5,-1237 830.5,-1237 830.5,-1237 988.5,-1237 988.5,-1237 994.5,-1237 1000.5,-1243 1000.5,-1249 1000.5,-1249 1000.5,-1261 1000.5,-1261 1000.5,-1267 994.5,-1273 988.5,-1273"/>
<text text-anchor="middle" x="909.5" y="-1252.5" font-family="Times,serif" font-size="10.00" fill="#000033">Apie\RegexValueObjects</text>
</g>
<!-- Apie\\RegexValueObjects&#45;&gt;Apie\\Core -->
<g id="edge53" class="edge">
<title>Apie\\RegexValueObjects&#45;&gt;Apie\\Core</title>
<path fill="none" stroke="#999999" d="M1000.6848,-1248.8683C1019.9563,-1245.213 1039.6851,-1239.5901 1057,-1231 1109.805,-1204.8029 1156.1168,-1151.8511 1179.9448,-1121.2544"/>
<polygon fill="#999999" stroke="#999999" points="1181.8563,-1122.2139 1183.8514,-1116.1782 1178.5278,-1119.6523 1181.8563,-1122.2139"/>
</g>
<!-- Apie\\RegexValueObjects&#45;&gt;Faker\\Generator -->
<g id="edge54" class="edge">
<title>Apie\\RegexValueObjects&#45;&gt;Faker\\Generator</title>
<path fill="none" stroke="#999999" d="M1000.6263,-1250.8082C1097.9616,-1246.3308 1250.1595,-1239.3297 1338.8258,-1235.251"/>
<polygon fill="#999999" stroke="#999999" points="1338.9385,-1237.3481 1344.8356,-1234.9746 1338.7455,-1233.1526 1338.9385,-1237.3481"/>
</g>
<!-- Apie\\SchemaGenerator -->
<g id="node20" class="node">
<title>Apie\\SchemaGenerator</title>
<path fill="#9999cc" stroke="#000000" d="M663.5,-952C663.5,-952 520.5,-952 520.5,-952 514.5,-952 508.5,-946 508.5,-940 508.5,-940 508.5,-928 508.5,-928 508.5,-922 514.5,-916 520.5,-916 520.5,-916 663.5,-916 663.5,-916 669.5,-916 675.5,-922 675.5,-928 675.5,-928 675.5,-940 675.5,-940 675.5,-946 669.5,-952 663.5,-952"/>
<text text-anchor="middle" x="592" y="-931.5" font-family="Times,serif" font-size="10.00" fill="#000033">Apie\SchemaGenerator</text>
</g>
<!-- Apie\\SchemaGenerator&#45;&gt;Apie\\Core -->
<g id="edge59" class="edge">
<title>Apie\\SchemaGenerator&#45;&gt;Apie\\Core</title>
<path fill="none" stroke="#999999" d="M675.6538,-951.1541C683.215,-952.7674 690.7508,-954.3985 698,-956 726.5274,-962.3024 733.0391,-967.1533 762,-971 794.5111,-975.3183 1026.3641,-969.2929 1057,-981 1108.1866,-1000.5603 1154.1239,-1047.1116 1178.5326,-1075.2435"/>
<polygon fill="#999999" stroke="#999999" points="1177.051,-1076.742 1182.5495,-1079.9322 1180.2405,-1074.0094 1177.051,-1076.742"/>
</g>
<!-- Apie\\SchemaGenerator&#45;&gt;Apie\\CompositeValueObjects -->
<g id="edge58" class="edge">
<title>Apie\\SchemaGenerator&#45;&gt;Apie\\CompositeValueObjects</title>
<path fill="none" stroke="#999999" d="M675.5612,-950.3067C683.178,-952.105 690.7501,-954.0102 698,-956 727.0054,-963.961 733.057,-969.815 762,-978 779.1279,-982.8437 797.5348,-987.4374 815.3404,-991.5736"/>
<polygon fill="#999999" stroke="#999999" points="815.0348,-993.6581 821.3531,-992.9584 815.9775,-989.5653 815.0348,-993.6581"/>
</g>
<!-- Apie\\SchemaGenerator&#45;&gt;Apie\\DateformatToRegex -->
<g id="edge60" class="edge">
<title>Apie\\SchemaGenerator&#45;&gt;Apie\\DateformatToRegex</title>
<path fill="none" stroke="#999999" d="M648.9887,-915.9508C681.7848,-906.0582 723.9208,-894.181 762,-886 778.1194,-882.5369 795.3462,-879.4354 812.132,-876.7299"/>
<polygon fill="#999999" stroke="#999999" points="812.6972,-878.7665 818.2934,-875.7511 812.0382,-874.6185 812.6972,-878.7665"/>
</g>
<!-- cebe\\openapi -->
<g id="node39" class="node">
<title>cebe\\openapi</title>
<path fill="#9999cc" stroke="#000000" d="M951,-1469C951,-1469 868,-1469 868,-1469 862,-1469 856,-1463 856,-1457 856,-1457 856,-1445 856,-1445 856,-1439 862,-1433 868,-1433 868,-1433 951,-1433 951,-1433 957,-1433 963,-1439 963,-1445 963,-1445 963,-1457 963,-1457 963,-1463 957,-1469 951,-1469"/>
<text text-anchor="middle" x="909.5" y="-1448.5" font-family="Times,serif" font-size="10.00" fill="#000033">cebe\openapi</text>
</g>
<!-- Apie\\SchemaGenerator&#45;&gt;cebe\\openapi -->
<g id="edge57" class="edge">
<title>Apie\\SchemaGenerator&#45;&gt;cebe\\openapi</title>
<path fill="none" stroke="#999999" d="M675.7243,-940.8378C684.0759,-944.4419 691.7576,-949.3573 698,-956 835.1346,-1101.9289 633.5622,-1248.3612 762,-1402 783.4982,-1427.7164 818.8619,-1440.0131 849.5733,-1445.8584"/>
<polygon fill="#999999" stroke="#999999" points="849.3723,-1447.9556 855.6481,-1446.9435 850.1109,-1443.8211 849.3723,-1447.9556"/>
</g>
<!-- League\\OpenAPIValidation -->
<g id="node40" class="node">
<title>League\\OpenAPIValidation</title>
<path fill="#9999cc" stroke="#000000" d="M996,-1370C996,-1370 823,-1370 823,-1370 817,-1370 811,-1364 811,-1358 811,-1358 811,-1346 811,-1346 811,-1340 817,-1334 823,-1334 823,-1334 996,-1334 996,-1334 1002,-1334 1008,-1340 1008,-1346 1008,-1346 1008,-1358 1008,-1358 1008,-1364 1002,-1370 996,-1370"/>
<text text-anchor="middle" x="909.5" y="-1349.5" font-family="Times,serif" font-size="10.00" fill="#000033">League\OpenAPIValidation</text>
</g>
<!-- Apie\\SchemaGenerator&#45;&gt;League\\OpenAPIValidation -->
<g id="edge61" class="edge">
<title>Apie\\SchemaGenerator&#45;&gt;League\\OpenAPIValidation</title>
<path fill="none" stroke="#999999" d="M675.7318,-941.1897C684.0285,-944.7404 691.6955,-949.547 698,-956 808.2038,-1068.7992 657.798,-1186.6341 762,-1305 773.4671,-1318.0258 788.5333,-1327.4707 804.6535,-1334.3125"/>
<polygon fill="#999999" stroke="#999999" points="804.2852,-1336.4277 810.6355,-1336.7172 805.8518,-1332.5308 804.2852,-1336.4277"/>
</g>
</g>
</svg>
