<?xml version="1.0" encoding="UTF-8" standalone="no"?>
<!DOCTYPE svg PUBLIC "-//W3C//DTD SVG 1.1//EN"
 "http://www.w3.org/Graphics/SVG/1.1/DTD/svg11.dtd">
<!-- Generated by graphviz version 2.40.1 (0)
 -->
<!-- Title: G Pages: 1 -->
<svg width="2133pt" height="1163pt"
 viewBox="0.00 0.00 2133.00 1163.00" xmlns="http://www.w3.org/2000/svg" xmlns:xlink="http://www.w3.org/1999/xlink">
<g id="graph0" class="graph" transform="scale(1 1) rotate(0) translate(4 1159)">
<title>G</title>
<polygon fill="#ffffff" stroke="transparent" points="-4,4 -4,-1159 2129,-1159 2129,4 -4,4"/>
<text text-anchor="middle" x="1062.5" y="-6.6" font-family="Times,serif" font-size="8.00" fill="#000000">PhpDependencyAnalysis by Marco Muths v2.0.2</text>
<g id="clust1" class="cluster">
<title>cluster_0</title>
<path fill="#ccccff" stroke="#000033" d="M20,-530C20,-530 2105,-530 2105,-530 2111,-530 2117,-536 2117,-542 2117,-542 2117,-1135 2117,-1135 2117,-1141 2111,-1147 2105,-1147 2105,-1147 20,-1147 20,-1147 14,-1147 8,-1141 8,-1135 8,-1135 8,-542 8,-542 8,-536 14,-530 20,-530"/>
<text text-anchor="middle" x="31.5" y="-1131.8" font-family="Times,serif" font-size="14.00" fill="#000033">Apie</text>
</g>
<g id="clust2" class="cluster">
<title>cluster_1</title>
<path fill="#ccccff" stroke="#000033" d="M1924,-25C1924,-25 2060,-25 2060,-25 2066,-25 2072,-31 2072,-37 2072,-37 2072,-131 2072,-131 2072,-137 2066,-143 2060,-143 2060,-143 1924,-143 1924,-143 1918,-143 1912,-137 1912,-131 1912,-131 1912,-37 1912,-37 1912,-31 1918,-25 1924,-25"/>
<text text-anchor="middle" x="1946.5" y="-127.8" font-family="Times,serif" font-size="14.00" fill="#000033">Symfony</text>
</g>
<g id="clust3" class="cluster">
<title>cluster_2</title>
<path fill="#ccccff" stroke="#000033" d="M1640,-110C1640,-110 1799,-110 1799,-110 1805,-110 1811,-116 1811,-122 1811,-122 1811,-216 1811,-216 1811,-222 1805,-228 1799,-228 1799,-228 1640,-228 1640,-228 1634,-228 1628,-222 1628,-216 1628,-216 1628,-122 1628,-122 1628,-116 1634,-110 1640,-110"/>
<text text-anchor="middle" x="1674" y="-212.8" font-family="Times,serif" font-size="14.00" fill="#000033">Illuminate</text>
</g>
<g id="clust4" class="cluster">
<title>cluster_3</title>
<path fill="#ccccff" stroke="#000033" d="M662,-183C662,-183 798,-183 798,-183 804,-183 810,-189 810,-195 810,-195 810,-289 810,-289 810,-295 804,-301 798,-301 798,-301 662,-301 662,-301 656,-301 650,-295 650,-289 650,-289 650,-195 650,-195 650,-189 656,-183 662,-183"/>
<text text-anchor="middle" x="673.5" y="-285.8" font-family="Times,serif" font-size="14.00" fill="#000033">Twig</text>
</g>
<g id="clust5" class="cluster">
<title>cluster_4</title>
<path fill="#ccccff" stroke="#000033" d="M1685,-394C1685,-394 1754,-394 1754,-394 1760,-394 1766,-400 1766,-406 1766,-406 1766,-457 1766,-457 1766,-463 1760,-469 1754,-469 1754,-469 1685,-469 1685,-469 1679,-469 1673,-463 1673,-457 1673,-457 1673,-406 1673,-406 1673,-400 1679,-394 1685,-394"/>
<text text-anchor="middle" x="1711.5" y="-453.8" font-family="Times,serif" font-size="14.00" fill="#000033">external</text>
</g>
<g id="clust6" class="cluster">
<title>cluster_5</title>
<path fill="#ccccff" stroke="#000033" d="M1446,-447C1446,-447 1560,-447 1560,-447 1566,-447 1572,-453 1572,-459 1572,-459 1572,-510 1572,-510 1572,-516 1566,-522 1560,-522 1560,-522 1446,-522 1446,-522 1440,-522 1434,-516 1434,-510 1434,-510 1434,-459 1434,-459 1434,-453 1440,-447 1446,-447"/>
<text text-anchor="middle" x="1495" y="-506.8" font-family="Times,serif" font-size="14.00" fill="#000033">libphonenumber</text>
</g>
<g id="clust7" class="cluster">
<title>cluster_6</title>
<path fill="#ccccff" stroke="#000033" d="M1453.5,-333C1453.5,-333 1552.5,-333 1552.5,-333 1558.5,-333 1564.5,-339 1564.5,-345 1564.5,-345 1564.5,-396 1564.5,-396 1564.5,-402 1558.5,-408 1552.5,-408 1552.5,-408 1453.5,-408 1453.5,-408 1447.5,-408 1441.5,-402 1441.5,-396 1441.5,-396 1441.5,-345 1441.5,-345 1441.5,-339 1447.5,-333 1453.5,-333"/>
<text text-anchor="middle" x="1480" y="-392.8" font-family="Times,serif" font-size="14.00" fill="#000033">Doctrine</text>
</g>
<!-- Apie\\ApieBundle -->
<g id="node1" class="node">
<title>Apie\\ApieBundle</title>
<path fill="#9999cc" stroke="#000000" d="M137,-859C137,-859 32,-859 32,-859 26,-859 20,-853 20,-847 20,-847 20,-835 20,-835 20,-829 26,-823 32,-823 32,-823 137,-823 137,-823 143,-823 149,-829 149,-835 149,-835 149,-847 149,-847 149,-853 143,-859 137,-859"/>
<text text-anchor="middle" x="84.5" y="-838.5" font-family="Times,serif" font-size="10.00" fill="#000033">Apie\ApieBundle</text>
</g>
<!-- Apie\\Common -->
<g id="node2" class="node">
<title>Apie\\Common</title>
<path fill="#9999cc" stroke="#000000" d="M1025,-963C1025,-963 950,-963 950,-963 944,-963 938,-957 938,-951 938,-951 938,-939 938,-939 938,-933 944,-927 950,-927 950,-927 1025,-927 1025,-927 1031,-927 1037,-933 1037,-939 1037,-939 1037,-951 1037,-951 1037,-957 1031,-963 1025,-963"/>
<text text-anchor="middle" x="987.5" y="-942.5" font-family="Times,serif" font-size="10.00" fill="#000033">Apie\Common</text>
</g>
<!-- Apie\\ApieBundle&#45;&gt;Apie\\Common -->
<g id="edge2" class="edge">
<title>Apie\\ApieBundle&#45;&gt;Apie\\Common</title>
<path fill="none" stroke="#999999" d="M102.435,-859.265C127.3348,-883.188 174.9888,-923.9695 225,-940 258.4854,-950.7334 761.7601,-947.0929 931.832,-945.5457"/>
<polygon fill="#999999" stroke="#999999" points="932.0026,-947.6443 937.9831,-945.4893 931.964,-943.4445 932.0026,-947.6443"/>
</g>
<!-- Apie\\Core -->
<g id="node3" class="node">
<title>Apie\\Core</title>
<path fill="#9999cc" stroke="#000000" d="M1533,-885C1533,-885 1473,-885 1473,-885 1467,-885 1461,-879 1461,-873 1461,-873 1461,-861 1461,-861 1461,-855 1467,-849 1473,-849 1473,-849 1533,-849 1533,-849 1539,-849 1545,-855 1545,-861 1545,-861 1545,-873 1545,-873 1545,-879 1539,-885 1533,-885"/>
<text text-anchor="middle" x="1503" y="-864.5" font-family="Times,serif" font-size="10.00" fill="#000033">Apie\Core</text>
</g>
<!-- Apie\\ApieBundle&#45;&gt;Apie\\Core -->
<g id="edge3" class="edge">
<title>Apie\\ApieBundle&#45;&gt;Apie\\Core</title>
<path fill="none" stroke="#999999" d="M149.3036,-831.3898C224.8961,-821.0284 353.7182,-806 465,-806 465,-806 465,-806 987.5,-806 1072.5073,-806 1286.7865,-793.629 1370,-811 1403.3141,-817.9544 1438.7209,-833.2956 1464.6198,-846.1652"/>
<polygon fill="#999999" stroke="#999999" points="1463.694,-848.0502 1469.9978,-848.87 1465.5811,-844.298 1463.694,-848.0502"/>
</g>
<!-- Apie\\Cms -->
<g id="node4" class="node">
<title>Apie\\Cms</title>
<path fill="#9999cc" stroke="#000000" d="M290,-937C290,-937 237,-937 237,-937 231,-937 225,-931 225,-925 225,-925 225,-913 225,-913 225,-907 231,-901 237,-901 237,-901 290,-901 290,-901 296,-901 302,-907 302,-913 302,-913 302,-925 302,-925 302,-931 296,-937 290,-937"/>
<text text-anchor="middle" x="263.5" y="-916.5" font-family="Times,serif" font-size="10.00" fill="#000033">Apie\Cms</text>
</g>
<!-- Apie\\ApieBundle&#45;&gt;Apie\\Cms -->
<g id="edge4" class="edge">
<title>Apie\\ApieBundle&#45;&gt;Apie\\Cms</title>
<path fill="none" stroke="#999999" d="M126.0161,-859.0908C153.998,-871.2841 190.8644,-887.3487 219.3766,-899.7731"/>
<polygon fill="#999999" stroke="#999999" points="218.6232,-901.7354 224.9626,-902.2072 220.301,-897.8851 218.6232,-901.7354"/>
</g>
<!-- Apie\\CmsApiDropdownOption -->
<g id="node5" class="node">
<title>Apie\\CmsApiDropdownOption</title>
<path fill="#9999cc" stroke="#000000" d="M820,-998C820,-998 640,-998 640,-998 634,-998 628,-992 628,-986 628,-986 628,-974 628,-974 628,-968 634,-962 640,-962 640,-962 820,-962 820,-962 826,-962 832,-968 832,-974 832,-974 832,-986 832,-986 832,-992 826,-998 820,-998"/>
<text text-anchor="middle" x="730" y="-977.5" font-family="Times,serif" font-size="10.00" fill="#000033">Apie\CmsApiDropdownOption</text>
</g>
<!-- Apie\\ApieBundle&#45;&gt;Apie\\CmsApiDropdownOption -->
<g id="edge5" class="edge">
<title>Apie\\ApieBundle&#45;&gt;Apie\\CmsApiDropdownOption</title>
<path fill="none" stroke="#999999" d="M101.4827,-859.2484C126.0064,-884.2082 174.0173,-928.0542 225,-947 261.087,-960.4104 484.4742,-970.9265 621.7775,-976.2254"/>
<polygon fill="#999999" stroke="#999999" points="621.7669,-978.3264 627.843,-976.4583 621.928,-974.1295 621.7669,-978.3264"/>
</g>
<!-- Apie\\Faker -->
<g id="node6" class="node">
<title>Apie\\Faker</title>
<path fill="#9999cc" stroke="#000000" d="M1290.5,-574C1290.5,-574 1222.5,-574 1222.5,-574 1216.5,-574 1210.5,-568 1210.5,-562 1210.5,-562 1210.5,-550 1210.5,-550 1210.5,-544 1216.5,-538 1222.5,-538 1222.5,-538 1290.5,-538 1290.5,-538 1296.5,-538 1302.5,-544 1302.5,-550 1302.5,-550 1302.5,-562 1302.5,-562 1302.5,-568 1296.5,-574 1290.5,-574"/>
<text text-anchor="middle" x="1256.5" y="-553.5" font-family="Times,serif" font-size="10.00" fill="#000033">Apie\Faker</text>
</g>
<!-- Apie\\ApieBundle&#45;&gt;Apie\\Faker -->
<g id="edge6" class="edge">
<title>Apie\\ApieBundle&#45;&gt;Apie\\Faker</title>
<path fill="none" stroke="#999999" d="M104.1852,-822.782C157.7101,-775.2265 312.1577,-651 465,-651 465,-651 465,-651 730,-651 753.7721,-651 1076.3136,-590.2297 1204.5035,-565.8978"/>
<polygon fill="#999999" stroke="#999999" points="1204.9559,-567.9495 1210.4589,-564.7671 1204.1724,-563.8232 1204.9559,-567.9495"/>
</g>
<!-- Apie\\RestApi -->
<g id="node7" class="node">
<title>Apie\\RestApi</title>
<path fill="#9999cc" stroke="#000000" d="M771.5,-1041C771.5,-1041 688.5,-1041 688.5,-1041 682.5,-1041 676.5,-1035 676.5,-1029 676.5,-1029 676.5,-1017 676.5,-1017 676.5,-1011 682.5,-1005 688.5,-1005 688.5,-1005 771.5,-1005 771.5,-1005 777.5,-1005 783.5,-1011 783.5,-1017 783.5,-1017 783.5,-1029 783.5,-1029 783.5,-1035 777.5,-1041 771.5,-1041"/>
<text text-anchor="middle" x="730" y="-1020.5" font-family="Times,serif" font-size="10.00" fill="#000033">Apie\RestApi</text>
</g>
<!-- Apie\\ApieBundle&#45;&gt;Apie\\RestApi -->
<g id="edge7" class="edge">
<title>Apie\\ApieBundle&#45;&gt;Apie\\RestApi</title>
<path fill="none" stroke="#999999" d="M100.613,-859.0729C124.8113,-884.9046 173.2482,-931.718 225,-954 304.0479,-988.0344 554.5346,-1010.1851 670.2883,-1018.8615"/>
<polygon fill="#999999" stroke="#999999" points="670.2312,-1020.9629 676.3706,-1019.3143 670.5431,-1016.7745 670.2312,-1020.9629"/>
</g>
<!-- Apie\\Console -->
<g id="node8" class="node">
<title>Apie\\Console</title>
<path fill="#9999cc" stroke="#000000" d="M506.5,-859C506.5,-859 423.5,-859 423.5,-859 417.5,-859 411.5,-853 411.5,-847 411.5,-847 411.5,-835 411.5,-835 411.5,-829 417.5,-823 423.5,-823 423.5,-823 506.5,-823 506.5,-823 512.5,-823 518.5,-829 518.5,-835 518.5,-835 518.5,-847 518.5,-847 518.5,-853 512.5,-859 506.5,-859"/>
<text text-anchor="middle" x="465" y="-838.5" font-family="Times,serif" font-size="10.00" fill="#000033">Apie\Console</text>
</g>
<!-- Apie\\ApieBundle&#45;&gt;Apie\\Console -->
<g id="edge8" class="edge">
<title>Apie\\ApieBundle&#45;&gt;Apie\\Console</title>
<path fill="none" stroke="#ff0099" stroke-width="2" d="M149.0466,-839.261C219.9501,-838.5716 333.0162,-838.5798 402.9223,-839.2855"/>
<polygon fill="#ff0099" stroke="#ff0099" stroke-width="2" points="403.198,-842.0885 411.2278,-839.375 403.2585,-836.4888 403.198,-842.0885"/>
</g>
<!-- Symfony\\Component -->
<g id="node25" class="node">
<title>Symfony\\Component</title>
<path fill="#9999cc" stroke="#000000" d="M2052,-112C2052,-112 1932,-112 1932,-112 1926,-112 1920,-106 1920,-100 1920,-100 1920,-88 1920,-88 1920,-82 1926,-76 1932,-76 1932,-76 2052,-76 2052,-76 2058,-76 2064,-82 2064,-88 2064,-88 2064,-100 2064,-100 2064,-106 2058,-112 2052,-112"/>
<text text-anchor="middle" x="1992" y="-91.5" font-family="Times,serif" font-size="10.00" fill="#000033">Symfony\Component</text>
</g>
<!-- Apie\\ApieBundle&#45;&gt;Symfony\\Component -->
<g id="edge1" class="edge">
<title>Apie\\ApieBundle&#45;&gt;Symfony\\Component</title>
<path fill="none" stroke="#999999" d="M85.1296,-822.6835C89.1158,-718.2033 114.3585,-198.5796 225,-95 264.2176,-58.2855 411.2787,-66 465,-66 465,-66 465,-66 1503,-66 1639.9351,-66 1674.3815,-64.6943 1811,-74 1844.7103,-76.2962 1881.8203,-80.1609 1913.616,-83.8844"/>
<polygon fill="#999999" stroke="#999999" points="1913.6968,-86.0084 1919.9017,-84.6266 1914.1894,-81.8374 1913.6968,-86.0084"/>
</g>
<!-- Symfony\\Bundle -->
<g id="node26" class="node">
<title>Symfony\\Bundle</title>
<path fill="#9999cc" stroke="#000000" d="M2041,-69C2041,-69 1943,-69 1943,-69 1937,-69 1931,-63 1931,-57 1931,-57 1931,-45 1931,-45 1931,-39 1937,-33 1943,-33 1943,-33 2041,-33 2041,-33 2047,-33 2053,-39 2053,-45 2053,-45 2053,-57 2053,-57 2053,-63 2047,-69 2041,-69"/>
<text text-anchor="middle" x="1992" y="-48.5" font-family="Times,serif" font-size="10.00" fill="#000033">Symfony\Bundle</text>
</g>
<!-- Apie\\ApieBundle&#45;&gt;Symfony\\Bundle -->
<g id="edge9" class="edge">
<title>Apie\\ApieBundle&#45;&gt;Symfony\\Bundle</title>
<path fill="none" stroke="#999999" d="M84.9307,-822.6729C87.8473,-715.787 108.2997,-174.0304 225,-69 304.5073,2.5567 358.0338,-51 465,-51 465,-51 465,-51 1503,-51 1653.5678,-51 1830.2139,-51 1924.5367,-51"/>
<polygon fill="#999999" stroke="#999999" points="1924.6294,-53.1001 1930.6294,-51 1924.6293,-48.9001 1924.6294,-53.1001"/>
</g>
<!-- Apie\\Common&#45;&gt;Apie\\Core -->
<g id="edge28" class="edge">
<title>Apie\\Common&#45;&gt;Apie\\Core</title>
<path fill="none" stroke="#ff0099" stroke-width="2" d="M1037.317,-930.2533C1048.4943,-927.1625 1060.2292,-923.7145 1071,-920 1103.9364,-908.6414 1109.1101,-897.0811 1143,-889 1241.3239,-865.5544 1269.1817,-882.2773 1370,-875 1397.302,-873.0293 1427.731,-870.5347 1452.586,-868.7144"/>
<polygon fill="#ff0099" stroke="#ff0099" stroke-width="2" points="1453.0102,-871.4912 1460.7887,-868.1247 1452.6085,-865.9057 1453.0102,-871.4912"/>
</g>
<!-- Apie\\Common&#45;&gt;Apie\\Faker -->
<g id="edge32" class="edge">
<title>Apie\\Common&#45;&gt;Apie\\Faker</title>
<path fill="none" stroke="#ff0099" stroke-width="2" d="M1037.3178,-941.1493C1049.7871,-937.9004 1062.1231,-932.3497 1071,-923 1178.8492,-809.4057 1031.4528,-687.9651 1143,-578 1158.5263,-562.6939 1181.3111,-556.416 1202.3992,-554.2604"/>
<polygon fill="#ff0099" stroke="#ff0099" stroke-width="2" points="1202.6269,-557.0513 1210.3798,-553.6259 1202.183,-551.4689 1202.6269,-557.0513"/>
</g>
<!-- Apie\\ServiceProviderGenerator -->
<g id="node9" class="node">
<title>Apie\\ServiceProviderGenerator</title>
<path fill="#9999cc" stroke="#000000" d="M2097,-1092C2097,-1092 1887,-1092 1887,-1092 1881,-1092 1875,-1086 1875,-1080 1875,-1080 1875,-1068 1875,-1068 1875,-1062 1881,-1056 1887,-1056 1887,-1056 2097,-1056 2097,-1056 2103,-1056 2109,-1062 2109,-1068 2109,-1068 2109,-1080 2109,-1080 2109,-1086 2103,-1092 2097,-1092"/>
<text text-anchor="middle" x="1992" y="-1071.5" font-family="Times,serif" font-size="10.00" fill="#000033">Apie\ServiceProviderGenerator</text>
</g>
<!-- Apie\\Common&#45;&gt;Apie\\ServiceProviderGenerator -->
<g id="edge27" class="edge">
<title>Apie\\Common&#45;&gt;Apie\\ServiceProviderGenerator</title>
<path fill="none" stroke="#999999" d="M1037.193,-959.0674C1067.5343,-967.1744 1107.2443,-976.9305 1143,-983 1242.9321,-999.9633 1269.1813,-994.523 1370,-1005 1543.0913,-1022.9875 1743.0757,-1045.4774 1868.5424,-1059.7942"/>
<polygon fill="#999999" stroke="#999999" points="1868.633,-1061.9181 1874.8325,-1060.5123 1869.1094,-1057.7452 1868.633,-1061.9181"/>
</g>
<!-- Apie\\Serializer -->
<g id="node10" class="node">
<title>Apie\\Serializer</title>
<path fill="#9999cc" stroke="#000000" d="M1772,-1000C1772,-1000 1667,-1000 1667,-1000 1661,-1000 1655,-994 1655,-988 1655,-988 1655,-976 1655,-976 1655,-970 1661,-964 1667,-964 1667,-964 1772,-964 1772,-964 1778,-964 1784,-970 1784,-976 1784,-976 1784,-988 1784,-988 1784,-994 1778,-1000 1772,-1000"/>
<text text-anchor="middle" x="1719.5" y="-979.5" font-family="Times,serif" font-size="10.00" fill="#000033">Apie\Serializer</text>
</g>
<!-- Apie\\Common&#45;&gt;Apie\\Serializer -->
<g id="edge29" class="edge">
<title>Apie\\Common&#45;&gt;Apie\\Serializer</title>
<path fill="none" stroke="#ff0099" stroke-width="2" d="M1037.2361,-954.3403C1067.5928,-960.6444 1107.304,-968.3693 1143,-972 1323.4547,-990.3544 1537.3057,-986.2312 1646.8498,-983.32"/>
<polygon fill="#ff0099" stroke="#ff0099" stroke-width="2" points="1646.954,-986.1183 1654.8757,-983.1041 1646.8033,-980.5204 1646.954,-986.1183"/>
</g>
<!-- Apie\\Common&#45;&gt;Symfony\\Component -->
<g id="edge30" class="edge">
<title>Apie\\Common&#45;&gt;Symfony\\Component</title>
<path fill="none" stroke="#999999" d="M1037.0506,-941.9179C1049.8239,-938.7108 1062.3833,-932.9895 1071,-923 1165.9222,-812.9547 1037.9745,-373.4482 1143,-273 1169.8776,-247.2938 1776.1057,-241.8684 1811,-229 1876.9055,-204.6952 1939.2273,-148.274 1970.6931,-116.6039"/>
<polygon fill="#999999" stroke="#999999" points="1972.3965,-117.867 1975.1085,-112.1176 1969.403,-114.9209 1972.3965,-117.867"/>
</g>
<!-- Illuminate\\Support -->
<g id="node27" class="node">
<title>Illuminate\\Support</title>
<path fill="#9999cc" stroke="#000000" d="M1783.5,-197C1783.5,-197 1655.5,-197 1655.5,-197 1649.5,-197 1643.5,-191 1643.5,-185 1643.5,-185 1643.5,-173 1643.5,-173 1643.5,-167 1649.5,-161 1655.5,-161 1655.5,-161 1783.5,-161 1783.5,-161 1789.5,-161 1795.5,-167 1795.5,-173 1795.5,-173 1795.5,-185 1795.5,-185 1795.5,-191 1789.5,-197 1783.5,-197"/>
<text text-anchor="middle" x="1719.5" y="-176.5" font-family="Times,serif" font-size="10.00" fill="#000033">Illuminate\Support</text>
</g>
<!-- Apie\\Common&#45;&gt;Illuminate\\Support -->
<g id="edge26" class="edge">
<title>Apie\\Common&#45;&gt;Illuminate\\Support</title>
<path fill="none" stroke="#999999" d="M1037.0686,-941.9334C1049.8422,-938.7266 1062.3973,-933.0015 1071,-923 1265.435,-696.9506 934.8428,-469.4804 1143,-256 1151.5748,-247.206 1480.3119,-207.2794 1637.4524,-188.6396"/>
<polygon fill="#999999" stroke="#999999" points="1637.717,-190.7231 1643.428,-187.9313 1637.2225,-186.5523 1637.717,-190.7231"/>
</g>
<!-- external -->
<g id="node31" class="node">
<title>external</title>
<path fill="#9999cc" stroke="#000000" d="M1746,-438C1746,-438 1693,-438 1693,-438 1687,-438 1681,-432 1681,-426 1681,-426 1681,-414 1681,-414 1681,-408 1687,-402 1693,-402 1693,-402 1746,-402 1746,-402 1752,-402 1758,-408 1758,-414 1758,-414 1758,-426 1758,-426 1758,-432 1752,-438 1746,-438"/>
<text text-anchor="middle" x="1719.5" y="-417.5" font-family="Times,serif" font-size="10.00" fill="#000033">external</text>
</g>
<!-- Apie\\Common&#45;&gt;external -->
<g id="edge31" class="edge">
<title>Apie\\Common&#45;&gt;external</title>
<path fill="none" stroke="#999999" d="M1037.0189,-941.8905C1049.7917,-938.6829 1062.3588,-932.9682 1071,-923 1253.286,-712.7208 940.0484,-491.4105 1143,-301 1177.7836,-268.3658 1527.5102,-268.8086 1572,-286 1629.5896,-308.2534 1678.5636,-364.5957 1702.9494,-396.6879"/>
<polygon fill="#999999" stroke="#999999" points="1701.3695,-398.0814 1706.6496,-401.6213 1704.7295,-395.5613 1701.3695,-398.0814"/>
</g>
<!-- Apie\\Core&#45;&gt;Apie\\Common -->
<g id="edge42" class="edge">
<title>Apie\\Core&#45;&gt;Apie\\Common</title>
<path fill="none" stroke="#ff0099" stroke-width="2" d="M1460.7887,-874.1759C1434.6506,-876.964 1400.3883,-879.8065 1370,-882 1269.1817,-889.2773 1241.3239,-872.5544 1143,-896 1109.1101,-904.0811 1103.9364,-915.6414 1071,-927 1062.7536,-929.8439 1053.942,-932.5316 1045.2483,-934.9402"/>
<polygon fill="#ff0099" stroke="#ff0099" stroke-width="2" points="1044.317,-932.291 1037.317,-937.0701 1045.7695,-937.6993 1044.317,-932.291"/>
</g>
<!-- Apie\\Core&#45;&gt;Apie\\ServiceProviderGenerator -->
<g id="edge41" class="edge">
<title>Apie\\Core&#45;&gt;Apie\\ServiceProviderGenerator</title>
<path fill="none" stroke="#999999" d="M1545.1111,-876.1442C1605.6253,-890.1024 1719.9183,-919.5408 1811,-961 1867.7195,-986.818 1928.0548,-1027.5005 1962.7608,-1052.3627"/>
<polygon fill="#999999" stroke="#999999" points="1961.5955,-1054.1114 1967.692,-1055.9125 1964.0493,-1050.7027 1961.5955,-1054.1114"/>
</g>
<!-- Apie\\Core&#45;&gt;Apie\\Serializer -->
<g id="edge43" class="edge">
<title>Apie\\Core&#45;&gt;Apie\\Serializer</title>
<path fill="none" stroke="#ff0099" stroke-width="2" d="M1540.2177,-885.0219C1579.5979,-905.2755 1641.433,-938.115 1681.2137,-959.8981"/>
<polygon fill="#ff0099" stroke="#ff0099" stroke-width="2" points="1680.0147,-962.434 1688.3746,-963.8312 1682.7107,-957.5257 1680.0147,-962.434"/>
</g>
<!-- Apie\\Core&#45;&gt;Illuminate\\Support -->
<g id="edge40" class="edge">
<title>Apie\\Core&#45;&gt;Illuminate\\Support</title>
<path fill="none" stroke="#999999" d="M1506.8267,-848.6328C1520.3445,-784.7759 1568.268,-566.8517 1628,-393 1652.3398,-322.1582 1689.4104,-241.6962 1708.01,-202.696"/>
<polygon fill="#999999" stroke="#999999" points="1709.921,-203.5676 1710.6165,-197.2488 1706.1324,-201.7547 1709.921,-203.5676"/>
</g>
<!-- Apie\\Core&#45;&gt;external -->
<g id="edge44" class="edge">
<title>Apie\\Core&#45;&gt;external</title>
<path fill="none" stroke="#999999" d="M1512.6246,-848.6933C1526.8753,-821.1078 1553.8547,-766.9976 1572,-719 1603.1313,-636.6522 1586.3756,-606.574 1628,-529 1645.8861,-495.6663 1675.1073,-463.2156 1695.7071,-442.5152"/>
<polygon fill="#999999" stroke="#999999" points="1697.1917,-444.0004 1699.9648,-438.2802 1694.2298,-441.0226 1697.1917,-444.0004"/>
</g>
<!-- Apie\\Cms&#45;&gt;Apie\\Common -->
<g id="edge22" class="edge">
<title>Apie\\Cms&#45;&gt;Apie\\Common</title>
<path fill="none" stroke="#999999" d="M302.1694,-920.3887C422.4279,-924.7074 790.2218,-937.9154 931.4559,-942.9874"/>
<polygon fill="#999999" stroke="#999999" points="931.5315,-945.0913 937.603,-943.2081 931.6823,-940.894 931.5315,-945.0913"/>
</g>
<!-- Apie\\Cms&#45;&gt;Apie\\Core -->
<g id="edge21" class="edge">
<title>Apie\\Cms&#45;&gt;Apie\\Core</title>
<path fill="none" stroke="#999999" d="M296.7264,-900.8435C318.1057,-890.1906 346.8714,-877.7284 374,-872 451.4119,-855.6539 650.8811,-867 730,-867 730,-867 730,-867 987.5,-867 1159.4107,-867 1363.5691,-867 1454.7951,-867"/>
<polygon fill="#999999" stroke="#999999" points="1454.9028,-869.1001 1460.9028,-867 1454.9027,-864.9001 1454.9028,-869.1001"/>
</g>
<!-- Apie\\Cms&#45;&gt;Apie\\ServiceProviderGenerator -->
<g id="edge19" class="edge">
<title>Apie\\Cms&#45;&gt;Apie\\ServiceProviderGenerator</title>
<path fill="none" stroke="#999999" d="M301.081,-937.1079C366.1112,-967.6452 504.5311,-1029.1607 628,-1061 899.4812,-1131.0078 976.1375,-1115 1256.5,-1115 1256.5,-1115 1256.5,-1115 1503,-1115 1640.0108,-1115 1674.6444,-1115.3826 1811,-1102 1834.1926,-1099.7238 1858.9404,-1096.456 1882.4521,-1092.9509"/>
<polygon fill="#999999" stroke="#999999" points="1882.7809,-1095.0252 1888.4014,-1092.0552 1882.1555,-1090.872 1882.7809,-1095.0252"/>
</g>
<!-- Apie\\CmsLayoutGraphite -->
<g id="node11" class="node">
<title>Apie\\CmsLayoutGraphite</title>
<path fill="#9999cc" stroke="#000000" d="M544,-911C544,-911 386,-911 386,-911 380,-911 374,-905 374,-899 374,-899 374,-887 374,-887 374,-881 380,-875 386,-875 386,-875 544,-875 544,-875 550,-875 556,-881 556,-887 556,-887 556,-899 556,-899 556,-905 550,-911 544,-911"/>
<text text-anchor="middle" x="465" y="-890.5" font-family="Times,serif" font-size="10.00" fill="#000033">Apie\CmsLayoutGraphite</text>
</g>
<!-- Apie\\Cms&#45;&gt;Apie\\CmsLayoutGraphite -->
<g id="edge23" class="edge">
<title>Apie\\Cms&#45;&gt;Apie\\CmsLayoutGraphite</title>
<path fill="none" stroke="#999999" d="M302.3512,-913.9869C321.0379,-911.5758 344.3629,-908.5661 367.4625,-905.5855"/>
<polygon fill="#999999" stroke="#999999" points="367.9644,-907.6382 373.6463,-904.7876 367.4268,-903.4728 367.9644,-907.6382"/>
</g>
<!-- Apie\\HtmlBuilders -->
<g id="node12" class="node">
<title>Apie\\HtmlBuilders</title>
<path fill="#9999cc" stroke="#000000" d="M790,-920C790,-920 670,-920 670,-920 664,-920 658,-914 658,-908 658,-908 658,-896 658,-896 658,-890 664,-884 670,-884 670,-884 790,-884 790,-884 796,-884 802,-890 802,-896 802,-896 802,-908 802,-908 802,-914 796,-920 790,-920"/>
<text text-anchor="middle" x="730" y="-899.5" font-family="Times,serif" font-size="10.00" fill="#000033">Apie\HtmlBuilders</text>
</g>
<!-- Apie\\Cms&#45;&gt;Apie\\HtmlBuilders -->
<g id="edge20" class="edge">
<title>Apie\\Cms&#45;&gt;Apie\\HtmlBuilders</title>
<path fill="none" stroke="#999999" d="M302.3167,-918.9751C358.3562,-918.794 465.1722,-917.9057 556,-914 587.2087,-912.658 621.5206,-910.4489 651.3666,-908.2895"/>
<polygon fill="#999999" stroke="#999999" points="651.8338,-910.3611 657.6649,-907.8298 651.528,-906.1722 651.8338,-910.3611"/>
</g>
<!-- Apie\\Cms&#45;&gt;Illuminate\\Support -->
<g id="edge18" class="edge">
<title>Apie\\Cms&#45;&gt;Illuminate\\Support</title>
<path fill="none" stroke="#999999" d="M265.1077,-900.9471C276.6847,-782.9088 357.8316,-126 730,-126 730,-126 730,-126 1256.5,-126 1390.4929,-126 1544.8914,-148.1814 1637.2152,-163.8446"/>
<polygon fill="#999999" stroke="#999999" points="1636.9381,-165.9276 1643.2058,-164.8666 1637.6444,-161.7874 1636.9381,-165.9276"/>
</g>
<!-- Apie\\CmsApiDropdownOption&#45;&gt;Apie\\Common -->
<g id="edge13" class="edge">
<title>Apie\\CmsApiDropdownOption&#45;&gt;Apie\\Common</title>
<path fill="none" stroke="#999999" d="M832.1407,-966.1168C866.0931,-961.5019 902.627,-956.5361 931.7316,-952.5802"/>
<polygon fill="#999999" stroke="#999999" points="932.1633,-954.6409 937.8258,-951.7518 931.5976,-950.4792 932.1633,-954.6409"/>
</g>
<!-- Apie\\CmsApiDropdownOption&#45;&gt;Apie\\Core -->
<g id="edge12" class="edge">
<title>Apie\\CmsApiDropdownOption&#45;&gt;Apie\\Core</title>
<path fill="none" stroke="#999999" d="M832.1304,-979.3058C924.5171,-978.1071 1049.3327,-974.848 1071,-966 1110.9116,-949.7018 1103.2581,-917.7077 1143,-901 1189.5905,-881.4131 1319.7403,-892.3184 1370,-887 1398.2684,-884.0087 1429.7282,-879.3395 1454.9513,-875.2647"/>
<polygon fill="#999999" stroke="#999999" points="1455.3081,-877.3343 1460.8926,-874.2973 1454.633,-873.1889 1455.3081,-877.3343"/>
</g>
<!-- Apie\\CmsApiDropdownOption&#45;&gt;Apie\\ServiceProviderGenerator -->
<g id="edge11" class="edge">
<title>Apie\\CmsApiDropdownOption&#45;&gt;Apie\\ServiceProviderGenerator</title>
<path fill="none" stroke="#999999" d="M822.0018,-998.0728C825.4093,-999.3007 828.7532,-1000.6081 832,-1002 867.5763,-1017.2513 867.7903,-1037.3204 904,-1051 1004.1473,-1088.8345 1036.1528,-1074.3203 1143,-1081 1439.3104,-1099.5242 1514.1666,-1086.7377 1811,-1081 1829.5024,-1080.6424 1849.0628,-1080.0792 1868.217,-1079.424"/>
<polygon fill="#999999" stroke="#999999" points="1868.7719,-1081.5061 1874.6951,-1079.1984 1868.6256,-1077.3086 1868.7719,-1081.5061"/>
</g>
<!-- Apie\\CmsApiDropdownOption&#45;&gt;Apie\\Serializer -->
<g id="edge14" class="edge">
<title>Apie\\CmsApiDropdownOption&#45;&gt;Apie\\Serializer</title>
<path fill="none" stroke="#999999" d="M832.0731,-982.0881C990.4744,-985.0211 1305.0555,-989.6189 1572,-986 1597.0304,-985.6607 1624.4434,-984.9976 1648.7731,-984.3073"/>
<polygon fill="#999999" stroke="#999999" points="1648.9517,-986.4031 1654.8888,-984.1314 1648.8309,-982.2049 1648.9517,-986.4031"/>
</g>
<!-- Apie\\CmsApiDropdownOption&#45;&gt;Illuminate\\Support -->
<g id="edge10" class="edge">
<title>Apie\\CmsApiDropdownOption&#45;&gt;Illuminate\\Support</title>
<path fill="none" stroke="#999999" d="M784.5124,-961.9841C802.4864,-953.3201 820.7387,-941.0145 832,-924 919.8945,-791.2024 788.9378,-321.0969 904,-211 925.3084,-190.6111 1404.5233,-181.9369 1434,-181 1502.4741,-178.8236 1580.2305,-178.4142 1637.2867,-178.4983"/>
<polygon fill="#999999" stroke="#999999" points="1637.4359,-180.5985 1643.4397,-178.5094 1637.4435,-176.3985 1637.4359,-180.5985"/>
</g>
<!-- Apie\\Faker&#45;&gt;Apie\\Core -->
<g id="edge54" class="edge">
<title>Apie\\Faker&#45;&gt;Apie\\Core</title>
<path fill="none" stroke="#ff0099" stroke-width="2" d="M1302.7749,-554.0904C1325.6615,-555.6012 1352.135,-561.3997 1370,-578 1449.6129,-651.9767 1373.5082,-723.7143 1434,-814 1441.8718,-825.7489 1453.2148,-835.993 1464.4371,-844.2616"/>
<polygon fill="#ff0099" stroke="#ff0099" stroke-width="2" points="1462.8533,-846.571 1471.0035,-848.8982 1466.0835,-841.9964 1462.8533,-846.571"/>
</g>
<!-- Apie\\Faker&#45;&gt;Apie\\ServiceProviderGenerator -->
<g id="edge56" class="edge">
<title>Apie\\Faker&#45;&gt;Apie\\ServiceProviderGenerator</title>
<path fill="none" stroke="#999999" d="M1302.5841,-560.3332C1323.7574,-563.4695 1348.8132,-568.8394 1370,-578 1591.7981,-673.8995 1626.3203,-740.1651 1811,-896 1872.5712,-947.9545 1938.4965,-1016.4669 1971.1662,-1051.4026"/>
<polygon fill="#999999" stroke="#999999" points="1969.7337,-1052.9456 1975.3621,-1055.9006 1972.8049,-1050.0807 1969.7337,-1052.9456"/>
</g>
<!-- Apie\\Faker&#45;&gt;Illuminate\\Support -->
<g id="edge55" class="edge">
<title>Apie\\Faker&#45;&gt;Illuminate\\Support</title>
<path fill="none" stroke="#999999" d="M1302.8047,-552.3935C1387.8632,-545.597 1561.3171,-530.8707 1572,-523 1572.4382,-522.6772 1675.6134,-281.5797 1709.1224,-203.258"/>
<polygon fill="#999999" stroke="#999999" points="1711.167,-203.8177 1711.5964,-197.4753 1707.3056,-202.1656 1711.167,-203.8177"/>
</g>
<!-- Apie\\Faker&#45;&gt;external -->
<g id="edge57" class="edge">
<title>Apie\\Faker&#45;&gt;external</title>
<path fill="none" stroke="#999999" d="M1302.7475,-562.6132C1365.9241,-569.7146 1481.6685,-575.7522 1572,-541 1625.7691,-520.314 1674.5644,-471.8791 1700.3227,-442.9525"/>
<polygon fill="#999999" stroke="#999999" points="1702.1723,-444.0293 1704.5583,-438.1372 1699.0187,-441.2553 1702.1723,-444.0293"/>
</g>
<!-- Apie\\RestApi&#45;&gt;Apie\\Common -->
<g id="edge88" class="edge">
<title>Apie\\RestApi&#45;&gt;Apie\\Common</title>
<path fill="none" stroke="#999999" d="M783.5366,-1012.8541C799.2586,-1009.4981 816.4138,-1005.4659 832,-1001 867.428,-990.8489 906.4481,-976.7878 936.5383,-965.2951"/>
<polygon fill="#999999" stroke="#999999" points="937.5843,-967.1431 942.4336,-963.0327 936.0795,-963.2219 937.5843,-967.1431"/>
</g>
<!-- Apie\\RestApi&#45;&gt;Apie\\Core -->
<g id="edge83" class="edge">
<title>Apie\\RestApi&#45;&gt;Apie\\Core</title>
<path fill="none" stroke="#999999" d="M783.6551,-1016.8678C873.1217,-1006.3852 1045.5222,-984.9935 1071,-973 1110.0054,-954.6385 1103.1851,-924.533 1143,-908 1189.6526,-888.6276 1319.9363,-902.7362 1370,-896 1398.4053,-892.178 1429.7462,-885.4688 1454.8664,-879.4658"/>
<polygon fill="#999999" stroke="#999999" points="1455.4436,-881.4868 1460.7833,-878.0375 1454.458,-877.4041 1455.4436,-881.4868"/>
</g>
<!-- Apie\\RestApi&#45;&gt;Apie\\ServiceProviderGenerator -->
<g id="edge85" class="edge">
<title>Apie\\RestApi&#45;&gt;Apie\\ServiceProviderGenerator</title>
<path fill="none" stroke="#999999" d="M783.8055,-1040.3679C832.5957,-1056.0606 897.8245,-1076.8762 904,-1078 1058.3592,-1106.0889 1099.6059,-1097 1256.5,-1097 1256.5,-1097 1256.5,-1097 1503,-1097 1639.9242,-1097 1674.2862,-1097.588 1811,-1090 1829.6968,-1088.9623 1849.4545,-1087.5455 1868.7759,-1085.9814"/>
<polygon fill="#999999" stroke="#999999" points="1868.948,-1088.0744 1874.7565,-1085.4915 1868.6051,-1083.8884 1868.948,-1088.0744"/>
</g>
<!-- Apie\\RestApi&#45;&gt;Apie\\Serializer -->
<g id="edge87" class="edge">
<title>Apie\\RestApi&#45;&gt;Apie\\Serializer</title>
<path fill="none" stroke="#999999" d="M783.5356,-1031.4201C817.8663,-1036.41 863.4422,-1042.2758 904,-1045 1110.6474,-1058.8804 1163.7617,-1066.0151 1370,-1047 1467.5382,-1038.007 1578.4675,-1015.1818 1648.695,-999.1317"/>
<polygon fill="#999999" stroke="#999999" points="1649.5631,-1001.0871 1654.9409,-997.6975 1648.6231,-996.9936 1649.5631,-1001.0871"/>
</g>
<!-- Apie\\SchemaGenerator -->
<g id="node23" class="node">
<title>Apie\\SchemaGenerator</title>
<path fill="#9999cc" stroke="#000000" d="M1059,-1041C1059,-1041 916,-1041 916,-1041 910,-1041 904,-1035 904,-1029 904,-1029 904,-1017 904,-1017 904,-1011 910,-1005 916,-1005 916,-1005 1059,-1005 1059,-1005 1065,-1005 1071,-1011 1071,-1017 1071,-1017 1071,-1029 1071,-1029 1071,-1035 1065,-1041 1059,-1041"/>
<text text-anchor="middle" x="987.5" y="-1020.5" font-family="Times,serif" font-size="10.00" fill="#000033">Apie\SchemaGenerator</text>
</g>
<!-- Apie\\RestApi&#45;&gt;Apie\\SchemaGenerator -->
<g id="edge86" class="edge">
<title>Apie\\RestApi&#45;&gt;Apie\\SchemaGenerator</title>
<path fill="none" stroke="#999999" d="M783.667,-1023C816.6856,-1023 859.8313,-1023 897.9214,-1023"/>
<polygon fill="#999999" stroke="#999999" points="897.9889,-1025.1001 903.9888,-1023 897.9888,-1020.9001 897.9889,-1025.1001"/>
</g>
<!-- Apie\\RestApi&#45;&gt;Illuminate\\Support -->
<g id="edge84" class="edge">
<title>Apie\\RestApi&#45;&gt;Illuminate\\Support</title>
<path fill="none" stroke="#999999" d="M783.716,-1021.9883C800.9736,-1019.1138 818.9742,-1013.0626 832,-1001 914.3337,-924.7546 864.6596,-864.093 904,-759 993.8797,-518.8974 936.8628,-386.4305 1143,-234 1181.8458,-205.275 1487.3523,-188.6794 1637.1908,-182.1923"/>
<polygon fill="#999999" stroke="#999999" points="1637.4266,-184.2842 1643.3308,-181.9284 1637.2462,-180.0881 1637.4266,-184.2842"/>
</g>
<!-- Apie\\Console&#45;&gt;Apie\\ApieBundle -->
<g id="edge37" class="edge">
<title>Apie\\Console&#45;&gt;Apie\\ApieBundle</title>
<path fill="none" stroke="#ff0099" stroke-width="2" d="M411.2278,-843.1667C344.8369,-844.1853 231.628,-844.2701 157.4448,-843.421"/>
<polygon fill="#ff0099" stroke="#ff0099" stroke-width="2" points="157.0802,-840.6164 149.0466,-843.3187 157.0119,-846.216 157.0802,-840.6164"/>
</g>
<!-- Apie\\Console&#45;&gt;Apie\\Common -->
<g id="edge36" class="edge">
<title>Apie\\Console&#45;&gt;Apie\\Common</title>
<path fill="none" stroke="#999999" d="M518.5584,-844.0857C605.9464,-849.5803 775.16,-862.2698 832,-881 867.1854,-892.5945 869.7756,-908.8179 904,-923 912.8311,-926.6595 922.4434,-929.8609 931.8998,-932.6053"/>
<polygon fill="#999999" stroke="#999999" points="931.4146,-934.6503 937.7593,-934.2551 932.553,-930.6075 931.4146,-934.6503"/>
</g>
<!-- Apie\\Console&#45;&gt;Apie\\Core -->
<g id="edge38" class="edge">
<title>Apie\\Console&#45;&gt;Apie\\Core</title>
<path fill="none" stroke="#999999" d="M518.6216,-842.3431C699.0549,-846.8626 1282.5021,-861.4769 1454.7175,-865.7906"/>
<polygon fill="#999999" stroke="#999999" points="1454.8615,-867.8948 1460.9122,-865.9458 1454.9667,-863.6961 1454.8615,-867.8948"/>
</g>
<!-- Apie\\Console&#45;&gt;Apie\\ServiceProviderGenerator -->
<g id="edge35" class="edge">
<title>Apie\\Console&#45;&gt;Apie\\ServiceProviderGenerator</title>
<path fill="none" stroke="#999999" d="M518.7016,-851.0398C532.1311,-855.6308 545.6428,-862.3052 556,-872 616.8017,-928.9127 562.1473,-994.0165 628,-1045 664.2063,-1073.0311 786.8968,-1066.1043 832,-1074 864.1974,-1079.6365 871.5753,-1084.8666 904,-1089 1059.5897,-1108.834 1099.6512,-1106 1256.5,-1106 1256.5,-1106 1256.5,-1106 1503,-1106 1639.9762,-1106 1674.4151,-1105.3459 1811,-1095 1829.7243,-1093.5817 1849.4968,-1091.6921 1868.8246,-1089.6259"/>
<polygon fill="#999999" stroke="#999999" points="1869.0674,-1091.712 1874.807,-1088.9794 1868.616,-1087.5363 1869.0674,-1091.712"/>
</g>
<!-- Apie\\Console&#45;&gt;Symfony\\Component -->
<g id="edge39" class="edge">
<title>Apie\\Console&#45;&gt;Symfony\\Component</title>
<path fill="none" stroke="#999999" d="M467.9508,-822.9153C482.0419,-738.8953 545.2357,-387.9218 628,-321 663.4039,-292.373 794.5634,-327.9121 832,-302 892.1464,-260.3692 843.2197,-194.6998 904,-154 1068.6853,-43.723 1692.6884,-73.7738 1913.7678,-88.3143"/>
<polygon fill="#999999" stroke="#999999" points="1913.7461,-90.4174 1919.8718,-88.7186 1914.0238,-86.2265 1913.7461,-90.4174"/>
</g>
<!-- Apie\\Console&#45;&gt;Illuminate\\Support -->
<g id="edge34" class="edge">
<title>Apie\\Console&#45;&gt;Illuminate\\Support</title>
<path fill="none" stroke="#999999" d="M479.5267,-822.7683C531.4091,-757.1706 710.9132,-526.0299 832,-318 869.6038,-253.3958 841.0236,-206.2707 904,-166 935.2662,-146.0066 1534.9562,-158.7481 1572,-161 1593.3011,-162.2949 1616.2374,-164.6325 1637.5279,-167.2036"/>
<polygon fill="#999999" stroke="#999999" points="1637.2755,-169.2883 1643.4865,-167.9343 1637.7868,-165.1195 1637.2755,-169.2883"/>
</g>
<!-- Apie\\Serializer&#45;&gt;Apie\\Common -->
<g id="edge97" class="edge">
<title>Apie\\Serializer&#45;&gt;Apie\\Common</title>
<path fill="none" stroke="#ff0099" stroke-width="2" d="M1654.8757,-987.4301C1548.0299,-993.0108 1327.9706,-997.8137 1143,-979 1110.3717,-975.6813 1074.3886,-968.9419 1045.2612,-962.2854"/>
<polygon fill="#ff0099" stroke="#ff0099" stroke-width="2" points="1045.663,-959.504 1037.2361,-960.413 1044.3906,-964.9576 1045.663,-959.504"/>
</g>
<!-- Apie\\Serializer&#45;&gt;Apie\\Core -->
<g id="edge94" class="edge">
<title>Apie\\Serializer&#45;&gt;Apie\\Core</title>
<path fill="none" stroke="#ff0099" stroke-width="2" d="M1680.8878,-963.8506C1641.0782,-943.5678 1579.4357,-910.814 1540.1654,-889.07"/>
<polygon fill="#ff0099" stroke="#ff0099" stroke-width="2" points="1541.456,-886.584 1533.1034,-885.1436 1538.7347,-891.4783 1541.456,-886.584"/>
</g>
<!-- Apie\\Serializer&#45;&gt;Apie\\ServiceProviderGenerator -->
<g id="edge99" class="edge">
<title>Apie\\Serializer&#45;&gt;Apie\\ServiceProviderGenerator</title>
<path fill="none" stroke="#999999" d="M1773.0121,-1000.0665C1819.0358,-1015.6047 1885.3299,-1037.9866 1932.904,-1054.0483"/>
<polygon fill="#999999" stroke="#999999" points="1932.2538,-1056.0452 1938.6103,-1055.9749 1933.5973,-1052.0659 1932.2538,-1056.0452"/>
</g>
<!-- Apie\\Serializer&#45;&gt;Symfony\\Component -->
<g id="edge96" class="edge">
<title>Apie\\Serializer&#45;&gt;Symfony\\Component</title>
<path fill="none" stroke="#999999" d="M1725.0668,-963.8595C1759.6903,-851.0312 1945.3627,-245.9777 1984.6816,-117.8487"/>
<polygon fill="#999999" stroke="#999999" points="1986.6894,-118.4638 1986.4421,-112.1117 1982.6742,-117.2316 1986.6894,-118.4638"/>
</g>
<!-- Apie\\Serializer&#45;&gt;Illuminate\\Support -->
<g id="edge98" class="edge">
<title>Apie\\Serializer&#45;&gt;Illuminate\\Support</title>
<path fill="none" stroke="#999999" d="M1665.6507,-963.9883C1641.0097,-952.7364 1614.1904,-935.527 1600,-910.5 1571.8308,-860.8193 1585.804,-451.8187 1600,-396.5 1619.8322,-319.218 1673.5039,-239.9312 1701.6796,-201.9803"/>
<polygon fill="#999999" stroke="#999999" points="1703.4014,-203.1844 1705.3151,-197.1224 1700.0388,-200.6679 1703.4014,-203.1844"/>
</g>
<!-- Apie\\Serializer&#45;&gt;external -->
<g id="edge95" class="edge">
<title>Apie\\Serializer&#45;&gt;external</title>
<path fill="none" stroke="#999999" d="M1719.5,-963.9412C1719.5,-790.7186 1719.5,-617.496 1719.5,-444.2734"/>
<polygon fill="#999999" stroke="#999999" points="1721.6001,-444.1113 1719.5,-438.1113 1717.4001,-444.1114 1721.6001,-444.1113"/>
</g>
<!-- Apie\\CmsLayoutGraphite&#45;&gt;Apie\\HtmlBuilders -->
<g id="edge16" class="edge">
<title>Apie\\CmsLayoutGraphite&#45;&gt;Apie\\HtmlBuilders</title>
<path fill="none" stroke="#999999" d="M556.198,-896.0973C587.228,-897.1511 621.6158,-898.319 651.5584,-899.3359"/>
<polygon fill="#999999" stroke="#999999" points="651.8096,-901.4456 657.8775,-899.5506 651.9523,-897.248 651.8096,-901.4456"/>
</g>
<!-- Twig\\Extension -->
<g id="node29" class="node">
<title>Twig\\Extension</title>
<path fill="#9999cc" stroke="#000000" d="M779,-270C779,-270 681,-270 681,-270 675,-270 669,-264 669,-258 669,-258 669,-246 669,-246 669,-240 675,-234 681,-234 681,-234 779,-234 779,-234 785,-234 791,-240 791,-246 791,-246 791,-258 791,-258 791,-264 785,-270 779,-270"/>
<text text-anchor="middle" x="730" y="-249.5" font-family="Times,serif" font-size="10.00" fill="#000033">Twig\Extension</text>
</g>
<!-- Apie\\CmsLayoutGraphite&#45;&gt;Twig\\Extension -->
<g id="edge15" class="edge">
<title>Apie\\CmsLayoutGraphite&#45;&gt;Twig\\Extension</title>
<path fill="none" stroke="#999999" d="M541.8118,-874.7474C547.0582,-871.4575 551.8848,-867.5769 556,-863 657.5308,-750.0786 585.659,-674.8321 628,-529 655.7485,-433.4279 700.0925,-323.458 719.8869,-275.929"/>
<polygon fill="#999999" stroke="#999999" points="721.9137,-276.5251 722.2888,-270.1792 718.0383,-274.9061 721.9137,-276.5251"/>
</g>
<!-- Twig\\TwigFunction -->
<g id="node30" class="node">
<title>Twig\\TwigFunction</title>
<path fill="#9999cc" stroke="#000000" d="M790,-227C790,-227 670,-227 670,-227 664,-227 658,-221 658,-215 658,-215 658,-203 658,-203 658,-197 664,-191 670,-191 670,-191 790,-191 790,-191 796,-191 802,-197 802,-203 802,-203 802,-215 802,-215 802,-221 796,-227 790,-227"/>
<text text-anchor="middle" x="730" y="-206.5" font-family="Times,serif" font-size="10.00" fill="#000033">Twig\TwigFunction</text>
</g>
<!-- Apie\\CmsLayoutGraphite&#45;&gt;Twig\\TwigFunction -->
<g id="edge17" class="edge">
<title>Apie\\CmsLayoutGraphite&#45;&gt;Twig\\TwigFunction</title>
<path fill="none" stroke="#999999" d="M542.7347,-874.9058C547.7052,-871.578 552.221,-867.6457 556,-863 734.3981,-643.6904 438.2325,-440.5492 628,-231 634.5959,-223.7165 642.976,-218.5318 652.088,-214.8836"/>
<polygon fill="#999999" stroke="#999999" points="652.9157,-216.8175 657.8466,-212.8055 651.49,-212.8668 652.9157,-216.8175"/>
</g>
<!-- Apie\\HtmlBuilders&#45;&gt;Apie\\Common -->
<g id="edge67" class="edge">
<title>Apie\\HtmlBuilders&#45;&gt;Apie\\Common</title>
<path fill="none" stroke="#999999" d="M802.0705,-914.0351C843.1681,-920.898 893.8923,-929.3684 931.8942,-935.7144"/>
<polygon fill="#999999" stroke="#999999" points="931.6166,-937.797 937.8806,-936.714 932.3085,-933.6544 931.6166,-937.797"/>
</g>
<!-- Apie\\HtmlBuilders&#45;&gt;Apie\\Core -->
<g id="edge63" class="edge">
<title>Apie\\HtmlBuilders&#45;&gt;Apie\\Core</title>
<path fill="none" stroke="#999999" d="M802.231,-891.6956C833.4605,-887.652 870.464,-883.41 904,-881 958.1304,-877.1101 1322.0601,-870.2588 1454.7302,-867.8592"/>
<polygon fill="#999999" stroke="#999999" points="1454.9097,-869.9564 1460.8708,-867.7483 1454.8339,-865.7571 1454.9097,-869.9564"/>
</g>
<!-- Apie\\HtmlBuilders&#45;&gt;Apie\\ServiceProviderGenerator -->
<g id="edge66" class="edge">
<title>Apie\\HtmlBuilders&#45;&gt;Apie\\ServiceProviderGenerator</title>
<path fill="none" stroke="#999999" d="M769.8634,-920.068C789.6204,-930.0359 813.2071,-943.5273 832,-959 870.2215,-990.4687 859.663,-1021.9683 904,-1044 909.9541,-1046.9587 1136.36,-1056.6597 1143,-1057 1272.3132,-1063.6274 1304.5824,-1066.8873 1434,-1071 1520.189,-1073.739 1541.77,-1073.3333 1628,-1074 1708.0503,-1074.6189 1798.0061,-1074.6253 1868.4633,-1074.4738"/>
<polygon fill="#999999" stroke="#999999" points="1868.7934,-1076.5732 1874.7887,-1074.4597 1868.7839,-1072.3732 1868.7934,-1076.5732"/>
</g>
<!-- Apie\\TypeConverter -->
<g id="node21" class="node">
<title>Apie\\TypeConverter</title>
<path fill="#9999cc" stroke="#000000" d="M1051.5,-920C1051.5,-920 923.5,-920 923.5,-920 917.5,-920 911.5,-914 911.5,-908 911.5,-908 911.5,-896 911.5,-896 911.5,-890 917.5,-884 923.5,-884 923.5,-884 1051.5,-884 1051.5,-884 1057.5,-884 1063.5,-890 1063.5,-896 1063.5,-896 1063.5,-908 1063.5,-908 1063.5,-914 1057.5,-920 1051.5,-920"/>
<text text-anchor="middle" x="987.5" y="-899.5" font-family="Times,serif" font-size="10.00" fill="#000033">Apie\TypeConverter</text>
</g>
<!-- Apie\\HtmlBuilders&#45;&gt;Apie\\TypeConverter -->
<g id="edge64" class="edge">
<title>Apie\\HtmlBuilders&#45;&gt;Apie\\TypeConverter</title>
<path fill="none" stroke="#999999" d="M802.0705,-902C834.1457,-902 872.0847,-902 905.2629,-902"/>
<polygon fill="#999999" stroke="#999999" points="905.4001,-904.1001 911.4001,-902 905.4,-899.9001 905.4001,-904.1001"/>
</g>
<!-- Apie\\HtmlBuilders&#45;&gt;Illuminate\\Support -->
<g id="edge65" class="edge">
<title>Apie\\HtmlBuilders&#45;&gt;Illuminate\\Support</title>
<path fill="none" stroke="#999999" d="M733.1693,-883.7637C751.7871,-777.613 848.0285,-242.464 904,-196 961.1664,-148.5442 1497.7747,-162.7354 1572,-166 1593.1541,-166.9304 1615.9654,-168.6079 1637.1775,-170.4555"/>
<polygon fill="#999999" stroke="#999999" points="1637.2476,-172.5698 1643.4094,-171.007 1637.6179,-168.3861 1637.2476,-172.5698"/>
</g>
<!-- Apie\\CommonValueObjects -->
<g id="node13" class="node">
<title>Apie\\CommonValueObjects</title>
<path fill="#9999cc" stroke="#000000" d="M1339,-789C1339,-789 1174,-789 1174,-789 1168,-789 1162,-783 1162,-777 1162,-777 1162,-765 1162,-765 1162,-759 1168,-753 1174,-753 1174,-753 1339,-753 1339,-753 1345,-753 1351,-759 1351,-765 1351,-765 1351,-777 1351,-777 1351,-783 1345,-789 1339,-789"/>
<text text-anchor="middle" x="1256.5" y="-768.5" font-family="Times,serif" font-size="10.00" fill="#000033">Apie\CommonValueObjects</text>
</g>
<!-- Apie\\CommonValueObjects&#45;&gt;Apie\\Core -->
<g id="edge24" class="edge">
<title>Apie\\CommonValueObjects&#45;&gt;Apie\\Core</title>
<path fill="none" stroke="#999999" d="M1351.2288,-788.861C1357.6405,-790.7334 1363.9508,-792.7762 1370,-795 1405.7769,-808.1522 1443.7476,-829.5417 1469.9186,-845.5965"/>
<polygon fill="#999999" stroke="#999999" points="1469.1115,-847.5665 1475.3191,-848.9365 1471.3208,-843.9945 1469.1115,-847.5665"/>
</g>
<!-- Apie\\CommonValueObjects&#45;&gt;external -->
<g id="edge25" class="edge">
<title>Apie\\CommonValueObjects&#45;&gt;external</title>
<path fill="none" stroke="#999999" d="M1351.1174,-756.2764C1357.6208,-754.1672 1363.977,-751.7561 1370,-749 1473.8928,-701.4593 1489.3028,-668.8353 1572,-590 1598.9058,-564.3507 1667.2941,-482.9226 1700.6408,-442.7964"/>
<polygon fill="#999999" stroke="#999999" points="1702.3113,-444.0719 1704.5286,-438.1142 1699.08,-441.3888 1702.3113,-444.0719"/>
</g>
<!-- Apie\\CompositeValueObjects -->
<g id="node14" class="node">
<title>Apie\\CompositeValueObjects</title>
<path fill="#9999cc" stroke="#000000" d="M1350.5,-850C1350.5,-850 1162.5,-850 1162.5,-850 1156.5,-850 1150.5,-844 1150.5,-838 1150.5,-838 1150.5,-826 1150.5,-826 1150.5,-820 1156.5,-814 1162.5,-814 1162.5,-814 1350.5,-814 1350.5,-814 1356.5,-814 1362.5,-820 1362.5,-826 1362.5,-826 1362.5,-838 1362.5,-838 1362.5,-844 1356.5,-850 1350.5,-850"/>
<text text-anchor="middle" x="1256.5" y="-829.5" font-family="Times,serif" font-size="10.00" fill="#000033">Apie\CompositeValueObjects</text>
</g>
<!-- Apie\\CompositeValueObjects&#45;&gt;Apie\\Core -->
<g id="edge33" class="edge">
<title>Apie\\CompositeValueObjects&#45;&gt;Apie\\Core</title>
<path fill="none" stroke="#999999" d="M1362.8267,-847.0971C1394.7942,-851.6361 1428.3098,-856.3949 1454.5504,-860.1207"/>
<polygon fill="#999999" stroke="#999999" points="1454.4809,-862.2319 1460.7166,-860.9963 1455.0714,-858.0736 1454.4809,-862.2319"/>
</g>
<!-- Apie\\CountryAndPhoneNumber -->
<g id="node15" class="node">
<title>Apie\\CountryAndPhoneNumber</title>
<path fill="#9999cc" stroke="#000000" d="M1350.5,-660C1350.5,-660 1162.5,-660 1162.5,-660 1156.5,-660 1150.5,-654 1150.5,-648 1150.5,-648 1150.5,-636 1150.5,-636 1150.5,-630 1156.5,-624 1162.5,-624 1162.5,-624 1350.5,-624 1350.5,-624 1356.5,-624 1362.5,-630 1362.5,-636 1362.5,-636 1362.5,-648 1362.5,-648 1362.5,-654 1356.5,-660 1350.5,-660"/>
<text text-anchor="middle" x="1256.5" y="-639.5" font-family="Times,serif" font-size="10.00" fill="#000033">Apie\CountryAndPhoneNumber</text>
</g>
<!-- Apie\\CountryAndPhoneNumber&#45;&gt;Apie\\Core -->
<g id="edge46" class="edge">
<title>Apie\\CountryAndPhoneNumber&#45;&gt;Apie\\Core</title>
<path fill="none" stroke="#999999" d="M1362.6498,-658.7521C1365.2007,-660.3623 1367.658,-662.1081 1370,-664 1426.3828,-709.5468 1389.5868,-756.72 1434,-814 1443.3136,-826.0118 1455.9661,-836.7693 1467.8936,-845.4027"/>
<polygon fill="#999999" stroke="#999999" points="1466.8361,-847.2266 1472.9492,-848.9702 1469.2576,-843.795 1466.8361,-847.2266"/>
</g>
<!-- Apie\\CountryAndPhoneNumber&#45;&gt;external -->
<g id="edge45" class="edge">
<title>Apie\\CountryAndPhoneNumber&#45;&gt;external</title>
<path fill="none" stroke="#999999" d="M1362.7701,-628.5349C1426.6678,-617.0194 1507.7782,-596.1561 1572,-559 1625.7725,-527.8894 1675.5317,-473.5767 1701.237,-442.8628"/>
<polygon fill="#999999" stroke="#999999" points="1702.9378,-444.1017 1705.1529,-438.1432 1699.7055,-441.4198 1702.9378,-444.1017"/>
</g>
<!-- libphonenumber -->
<g id="node32" class="node">
<title>libphonenumber</title>
<path fill="#9999cc" stroke="#000000" d="M1552,-491C1552,-491 1454,-491 1454,-491 1448,-491 1442,-485 1442,-479 1442,-479 1442,-467 1442,-467 1442,-461 1448,-455 1454,-455 1454,-455 1552,-455 1552,-455 1558,-455 1564,-461 1564,-467 1564,-467 1564,-479 1564,-479 1564,-485 1558,-491 1552,-491"/>
<text text-anchor="middle" x="1503" y="-470.5" font-family="Times,serif" font-size="10.00" fill="#000033">libphonenumber</text>
</g>
<!-- Apie\\CountryAndPhoneNumber&#45;&gt;libphonenumber -->
<g id="edge47" class="edge">
<title>Apie\\CountryAndPhoneNumber&#45;&gt;libphonenumber</title>
<path fill="none" stroke="#999999" d="M1362.6955,-624.2849C1365.2012,-622.9535 1367.6413,-621.5274 1370,-620 1411.5033,-593.124 1400.2607,-565.1455 1434,-529 1445.5242,-516.6539 1459.8094,-504.6268 1472.3871,-494.9034"/>
<polygon fill="#999999" stroke="#999999" points="1473.7996,-496.4671 1477.2952,-491.1576 1471.2515,-493.1283 1473.7996,-496.4671"/>
</g>
<!-- Apie\\DateValueObjects -->
<g id="node16" class="node">
<title>Apie\\DateValueObjects</title>
<path fill="#9999cc" stroke="#000000" d="M1331.5,-965C1331.5,-965 1181.5,-965 1181.5,-965 1175.5,-965 1169.5,-959 1169.5,-953 1169.5,-953 1169.5,-941 1169.5,-941 1169.5,-935 1175.5,-929 1181.5,-929 1181.5,-929 1331.5,-929 1331.5,-929 1337.5,-929 1343.5,-935 1343.5,-941 1343.5,-941 1343.5,-953 1343.5,-953 1343.5,-959 1337.5,-965 1331.5,-965"/>
<text text-anchor="middle" x="1256.5" y="-944.5" font-family="Times,serif" font-size="10.00" fill="#000033">Apie\DateValueObjects</text>
</g>
<!-- Apie\\DateValueObjects&#45;&gt;Apie\\Core -->
<g id="edge48" class="edge">
<title>Apie\\DateValueObjects&#45;&gt;Apie\\Core</title>
<path fill="none" stroke="#999999" d="M1343.6947,-930.3313C1352.6403,-928.0949 1361.543,-925.6481 1370,-923 1400.7855,-913.3603 1434.2492,-899.2506 1459.9087,-887.6061"/>
<polygon fill="#999999" stroke="#999999" points="1461.0075,-889.4129 1465.5922,-885.0094 1459.2621,-885.5928 1461.0075,-889.4129"/>
</g>
<!-- Apie\\DateValueObjects&#45;&gt;Apie\\Serializer -->
<g id="edge50" class="edge">
<title>Apie\\DateValueObjects&#45;&gt;Apie\\Serializer</title>
<path fill="none" stroke="#999999" d="M1343.5868,-953.5832C1431.7935,-960.2511 1566.5724,-970.4396 1648.5129,-976.6338"/>
<polygon fill="#999999" stroke="#999999" points="1648.6665,-978.7513 1654.8078,-977.1097 1648.9832,-974.5633 1648.6665,-978.7513"/>
</g>
<!-- Apie\\DateValueObjects&#45;&gt;external -->
<g id="edge49" class="edge">
<title>Apie\\DateValueObjects&#45;&gt;external</title>
<path fill="none" stroke="#999999" d="M1289.7901,-928.9427C1316.0225,-912.866 1351.2039,-886.8303 1370,-854 1461.1981,-694.7085 1300.0751,-571.5189 1434,-446 1451.1531,-429.9235 1598.4999,-423.4149 1674.5205,-421.1082"/>
<polygon fill="#999999" stroke="#999999" points="1674.8231,-423.2002 1680.7583,-420.9235 1674.6987,-419.0021 1674.8231,-423.2002"/>
</g>
<!-- Apie\\DateformatToRegex -->
<g id="node17" class="node">
<title>Apie\\DateformatToRegex</title>
<path fill="#9999cc" stroke="#000000" d="M1335.5,-1044C1335.5,-1044 1177.5,-1044 1177.5,-1044 1171.5,-1044 1165.5,-1038 1165.5,-1032 1165.5,-1032 1165.5,-1020 1165.5,-1020 1165.5,-1014 1171.5,-1008 1177.5,-1008 1177.5,-1008 1335.5,-1008 1335.5,-1008 1341.5,-1008 1347.5,-1014 1347.5,-1020 1347.5,-1020 1347.5,-1032 1347.5,-1032 1347.5,-1038 1341.5,-1044 1335.5,-1044"/>
<text text-anchor="middle" x="1256.5" y="-1023.5" font-family="Times,serif" font-size="10.00" fill="#000033">Apie\DateformatToRegex</text>
</g>
<!-- Apie\\DoctrineEntityConverter -->
<g id="node18" class="node">
<title>Apie\\DoctrineEntityConverter</title>
<path fill="#9999cc" stroke="#000000" d="M1358,-617C1358,-617 1155,-617 1155,-617 1149,-617 1143,-611 1143,-605 1143,-605 1143,-593 1143,-593 1143,-587 1149,-581 1155,-581 1155,-581 1358,-581 1358,-581 1364,-581 1370,-587 1370,-593 1370,-593 1370,-605 1370,-605 1370,-611 1364,-617 1358,-617"/>
<text text-anchor="middle" x="1256.5" y="-596.5" font-family="Times,serif" font-size="10.00" fill="#000033">Apie\DoctrineEntityConverter</text>
</g>
<!-- Apie\\DoctrineEntityConverter&#45;&gt;Apie\\Core -->
<g id="edge51" class="edge">
<title>Apie\\DoctrineEntityConverter&#45;&gt;Apie\\Core</title>
<path fill="none" stroke="#999999" d="M1365.3175,-617.2313C1366.9293,-618.4199 1368.4924,-619.675 1370,-621 1437.88,-680.6592 1381.6386,-740.3441 1434,-814 1442.6535,-826.1728 1454.9156,-836.8488 1466.7078,-845.3684"/>
<polygon fill="#999999" stroke="#999999" points="1465.6031,-847.1586 1471.7209,-848.8857 1468.0154,-843.7205 1465.6031,-847.1586"/>
</g>
<!-- Apie\\DoctrineEntityConverter&#45;&gt;external -->
<g id="edge52" class="edge">
<title>Apie\\DoctrineEntityConverter&#45;&gt;external</title>
<path fill="none" stroke="#999999" d="M1364.6562,-580.9133C1366.4933,-579.6841 1368.2774,-578.3811 1370,-577 1425.5944,-532.4265 1375.0925,-470.0929 1434,-430 1471.959,-404.1648 1604.3653,-410.4707 1674.7358,-415.9388"/>
<polygon fill="#999999" stroke="#999999" points="1674.7861,-418.0493 1680.9335,-416.4307 1675.1185,-413.8624 1674.7861,-418.0493"/>
</g>
<!-- Doctrine\\ORM -->
<g id="node33" class="node">
<title>Doctrine\\ORM</title>
<path fill="#9999cc" stroke="#000000" d="M1544.5,-377C1544.5,-377 1461.5,-377 1461.5,-377 1455.5,-377 1449.5,-371 1449.5,-365 1449.5,-365 1449.5,-353 1449.5,-353 1449.5,-347 1455.5,-341 1461.5,-341 1461.5,-341 1544.5,-341 1544.5,-341 1550.5,-341 1556.5,-347 1556.5,-353 1556.5,-353 1556.5,-365 1556.5,-365 1556.5,-371 1550.5,-377 1544.5,-377"/>
<text text-anchor="middle" x="1503" y="-356.5" font-family="Times,serif" font-size="10.00" fill="#000033">Doctrine\ORM</text>
</g>
<!-- Apie\\DoctrineEntityConverter&#45;&gt;Doctrine\\ORM -->
<g id="edge53" class="edge">
<title>Apie\\DoctrineEntityConverter&#45;&gt;Doctrine\\ORM</title>
<path fill="none" stroke="#999999" d="M1364.7221,-580.9941C1366.5392,-579.7404 1368.3014,-578.4105 1370,-577 1429.5576,-527.5432 1388.2267,-477.4331 1434,-415 1443.5832,-401.9288 1456.9209,-390.1551 1469.3178,-380.8152"/>
<polygon fill="#999999" stroke="#999999" points="1470.606,-382.4746 1474.1939,-377.2271 1468.1167,-379.0918 1470.606,-382.4746"/>
</g>
<!-- Apie\\Fixtures -->
<g id="node19" class="node">
<title>Apie\\Fixtures</title>
<path fill="#9999cc" stroke="#000000" d="M1032.5,-798C1032.5,-798 942.5,-798 942.5,-798 936.5,-798 930.5,-792 930.5,-786 930.5,-786 930.5,-774 930.5,-774 930.5,-768 936.5,-762 942.5,-762 942.5,-762 1032.5,-762 1032.5,-762 1038.5,-762 1044.5,-768 1044.5,-774 1044.5,-774 1044.5,-786 1044.5,-786 1044.5,-792 1038.5,-798 1032.5,-798"/>
<text text-anchor="middle" x="987.5" y="-777.5" font-family="Times,serif" font-size="10.00" fill="#000033">Apie\Fixtures</text>
</g>
<!-- Apie\\Fixtures&#45;&gt;Apie\\Core -->
<g id="edge58" class="edge">
<title>Apie\\Fixtures&#45;&gt;Apie\\Core</title>
<path fill="none" stroke="#999999" d="M1044.7111,-784.7478C1074.0806,-787.1007 1110.4412,-789.8834 1143,-792 1193.4085,-795.2769 1321.0256,-791.6202 1370,-804 1405.151,-812.8855 1442.1993,-831.2783 1468.2406,-845.9079"/>
<polygon fill="#999999" stroke="#999999" points="1467.3716,-847.8295 1473.6258,-848.9678 1469.4465,-844.1778 1467.3716,-847.8295"/>
</g>
<!-- Apie\\Fixtures&#45;&gt;Apie\\Faker -->
<g id="edge62" class="edge">
<title>Apie\\Fixtures&#45;&gt;Apie\\Faker</title>
<path fill="none" stroke="#999999" d="M1044.5562,-771.13C1054.1924,-767.6299 1063.4906,-762.763 1071,-756 1134.412,-698.8906 1077.1259,-632.251 1143,-578 1159.9925,-564.0057 1183.257,-557.9643 1204.3006,-555.6299"/>
<polygon fill="#999999" stroke="#999999" points="1204.6857,-557.7029 1210.4593,-555.0429 1204.2871,-553.5218 1204.6857,-557.7029"/>
</g>
<!-- Apie\\Fixtures&#45;&gt;Apie\\Serializer -->
<g id="edge60" class="edge">
<title>Apie\\Fixtures&#45;&gt;Apie\\Serializer</title>
<path fill="none" stroke="#999999" d="M1002.3931,-798.018C1041.2714,-845.0525 1142.846,-967.9252 1143,-968 1154.2149,-973.4452 1497.1658,-978.8946 1648.6963,-981.0435"/>
<polygon fill="#999999" stroke="#999999" points="1648.8568,-983.1459 1654.8859,-981.1309 1648.9162,-978.9463 1648.8568,-983.1459"/>
</g>
<!-- Apie\\TextValueObjects -->
<g id="node20" class="node">
<title>Apie\\TextValueObjects</title>
<path fill="#9999cc" stroke="#000000" d="M1331.5,-746C1331.5,-746 1181.5,-746 1181.5,-746 1175.5,-746 1169.5,-740 1169.5,-734 1169.5,-734 1169.5,-722 1169.5,-722 1169.5,-716 1175.5,-710 1181.5,-710 1181.5,-710 1331.5,-710 1331.5,-710 1337.5,-710 1343.5,-716 1343.5,-722 1343.5,-722 1343.5,-734 1343.5,-734 1343.5,-740 1337.5,-746 1331.5,-746"/>
<text text-anchor="middle" x="1256.5" y="-725.5" font-family="Times,serif" font-size="10.00" fill="#000033">Apie\TextValueObjects</text>
</g>
<!-- Apie\\Fixtures&#45;&gt;Apie\\TextValueObjects -->
<g id="edge59" class="edge">
<title>Apie\\Fixtures&#45;&gt;Apie\\TextValueObjects</title>
<path fill="none" stroke="#999999" d="M1044.548,-768.9721C1078.9501,-762.3219 1123.6073,-753.6893 1163.0538,-746.064"/>
<polygon fill="#999999" stroke="#999999" points="1163.8452,-748.0499 1169.3376,-744.8492 1163.048,-743.9263 1163.8452,-748.0499"/>
</g>
<!-- Apie\\Fixtures&#45;&gt;external -->
<g id="edge61" class="edge">
<title>Apie\\Fixtures&#45;&gt;external</title>
<path fill="none" stroke="#999999" d="M990.1547,-761.8591C1002.7704,-678.3981 1059.5386,-332.7718 1143,-271 1219.6284,-214.2855 1484.016,-234.2948 1572,-271 1633.2236,-296.5413 1682.0315,-361.2326 1705.0721,-396.3861"/>
<polygon fill="#999999" stroke="#999999" points="1703.5267,-397.8639 1708.5467,-401.7639 1707.0544,-395.5847 1703.5267,-397.8639"/>
</g>
<!-- Apie\\TextValueObjects&#45;&gt;Apie\\Core -->
<g id="edge100" class="edge">
<title>Apie\\TextValueObjects&#45;&gt;Apie\\Core</title>
<path fill="none" stroke="#999999" d="M1343.5669,-739.287C1352.7655,-742.1061 1361.758,-745.6205 1370,-750 1405.5229,-768.8758 1403.7627,-787.4693 1434,-814 1446.3291,-824.8177 1460.6132,-835.9939 1472.9756,-845.2783"/>
<polygon fill="#999999" stroke="#999999" points="1471.7236,-846.9643 1477.7881,-848.8703 1474.2359,-843.5985 1471.7236,-846.9643"/>
</g>
<!-- Apie\\TextValueObjects&#45;&gt;external -->
<g id="edge101" class="edge">
<title>Apie\\TextValueObjects&#45;&gt;external</title>
<path fill="none" stroke="#999999" d="M1343.6682,-722.6759C1353.5112,-718.901 1362.6311,-713.5326 1370,-706 1487.9279,-585.4515 1305.0897,-440.7246 1434,-332 1457.4422,-312.2286 1542.4359,-323.8509 1572,-332 1618.2767,-344.7557 1664.6785,-376.2667 1692.7491,-397.9012"/>
<polygon fill="#999999" stroke="#999999" points="1691.7502,-399.7853 1697.773,-401.8191 1694.3331,-396.4733 1691.7502,-399.7853"/>
</g>
<!-- Apie\\LaravelApie -->
<g id="node22" class="node">
<title>Apie\\LaravelApie</title>
<path fill="#9999cc" stroke="#000000" d="M141,-990C141,-990 28,-990 28,-990 22,-990 16,-984 16,-978 16,-978 16,-966 16,-966 16,-960 22,-954 28,-954 28,-954 141,-954 141,-954 147,-954 153,-960 153,-966 153,-966 153,-978 153,-978 153,-984 147,-990 141,-990"/>
<text text-anchor="middle" x="84.5" y="-969.5" font-family="Times,serif" font-size="10.00" fill="#000033">Apie\LaravelApie</text>
</g>
<!-- Apie\\LaravelApie&#45;&gt;Apie\\Common -->
<g id="edge69" class="edge">
<title>Apie\\LaravelApie&#45;&gt;Apie\\Common</title>
<path fill="none" stroke="#999999" d="M153.1129,-969.9485C325.338,-964.7989 773.3815,-951.4022 931.3607,-946.6786"/>
<polygon fill="#999999" stroke="#999999" points="931.8269,-948.7657 937.7615,-946.4872 931.7014,-944.5675 931.8269,-948.7657"/>
</g>
<!-- Apie\\LaravelApie&#45;&gt;Apie\\Core -->
<g id="edge73" class="edge">
<title>Apie\\LaravelApie&#45;&gt;Apie\\Core</title>
<path fill="none" stroke="#999999" d="M127.5671,-990.0924C197.1927,-1017.6558 339.3798,-1067 465,-1067 465,-1067 465,-1067 730,-1067 805.9353,-1067 1006.0874,-1084.4021 1071,-1045 1123.843,-1012.9242 1089.9717,-957.7684 1143,-926 1164.6668,-913.0197 1345.2274,-918.925 1370,-914 1399.2414,-908.1865 1430.7489,-897.2734 1455.7543,-887.4255"/>
<polygon fill="#999999" stroke="#999999" points="1456.842,-889.2527 1461.6383,-885.0808 1455.2872,-885.3511 1456.842,-889.2527"/>
</g>
<!-- Apie\\LaravelApie&#45;&gt;Apie\\Cms -->
<g id="edge79" class="edge">
<title>Apie\\LaravelApie&#45;&gt;Apie\\Cms</title>
<path fill="none" stroke="#999999" d="M145.351,-953.9827C169.541,-946.8203 196.8523,-938.7337 219.1183,-932.1409"/>
<polygon fill="#999999" stroke="#999999" points="219.804,-934.1281 224.9609,-930.411 218.6115,-930.1009 219.804,-934.1281"/>
</g>
<!-- Apie\\LaravelApie&#45;&gt;Apie\\CmsApiDropdownOption -->
<g id="edge72" class="edge">
<title>Apie\\LaravelApie&#45;&gt;Apie\\CmsApiDropdownOption</title>
<path fill="none" stroke="#999999" d="M153.1031,-973.0089C175.9709,-973.3365 201.583,-973.6942 225,-974 361.8913,-975.7875 519.6585,-977.6266 621.9123,-978.7893"/>
<polygon fill="#999999" stroke="#999999" points="621.9329,-980.8896 627.9564,-978.858 621.9807,-976.6899 621.9329,-980.8896"/>
</g>
<!-- Apie\\LaravelApie&#45;&gt;Apie\\Faker -->
<g id="edge77" class="edge">
<title>Apie\\LaravelApie&#45;&gt;Apie\\Faker</title>
<path fill="none" stroke="#999999" d="M106.692,-953.7542C133.4426,-932.4347 180.3816,-897.1366 225,-874 287.5302,-841.5753 307.1715,-842.2562 374,-820 681.2019,-717.6913 766.2923,-717.514 1071,-608 1103.6236,-596.2749 1109.812,-588.0168 1143,-578 1162.7649,-572.0346 1184.9703,-567.3112 1204.4641,-563.7949"/>
<polygon fill="#999999" stroke="#999999" points="1204.8781,-565.8544 1210.4212,-562.7424 1204.1473,-561.7185 1204.8781,-565.8544"/>
</g>
<!-- Apie\\LaravelApie&#45;&gt;Apie\\RestApi -->
<g id="edge75" class="edge">
<title>Apie\\LaravelApie&#45;&gt;Apie\\RestApi</title>
<path fill="none" stroke="#999999" d="M153.2196,-985.0445C211.6875,-995.517 298.0205,-1009.5073 374,-1016 477.7331,-1024.8643 599.057,-1025.095 669.9303,-1024.2153"/>
<polygon fill="#999999" stroke="#999999" points="670.2358,-1026.3115 676.2077,-1024.1328 670.1806,-1022.1119 670.2358,-1026.3115"/>
</g>
<!-- Apie\\LaravelApie&#45;&gt;Apie\\Console -->
<g id="edge74" class="edge">
<title>Apie\\LaravelApie&#45;&gt;Apie\\Console</title>
<path fill="none" stroke="#999999" d="M113.6346,-953.8634C141.3693,-937.283 184.7341,-913.1091 225,-898 284.7209,-875.5907 356.1913,-859.9625 405.5228,-850.8105"/>
<polygon fill="#999999" stroke="#999999" points="405.9047,-852.8755 411.4268,-849.7264 405.1462,-848.7446 405.9047,-852.8755"/>
</g>
<!-- Apie\\LaravelApie&#45;&gt;Apie\\Serializer -->
<g id="edge71" class="edge">
<title>Apie\\LaravelApie&#45;&gt;Apie\\Serializer</title>
<path fill="none" stroke="#999999" d="M118.2765,-990.0106C146.2105,-1004.258 187.2751,-1023.7318 225,-1036 328.5302,-1069.6683 356.1329,-1085 465,-1085 465,-1085 465,-1085 730,-1085 1105.049,-1085 1205.6505,-1109.3104 1572,-1029 1603.2496,-1022.1495 1637.3283,-1011.5082 1664.849,-1002.0824"/>
<polygon fill="#999999" stroke="#999999" points="1665.632,-1004.0338 1670.6187,-1000.0913 1664.2618,-1000.0636 1665.632,-1004.0338"/>
</g>
<!-- Apie\\LaravelApie&#45;&gt;Apie\\HtmlBuilders -->
<g id="edge70" class="edge">
<title>Apie\\LaravelApie&#45;&gt;Apie\\HtmlBuilders</title>
<path fill="none" stroke="#999999" d="M153.274,-964.5419C274.3096,-951.4165 524.5978,-924.2744 651.9273,-910.4664"/>
<polygon fill="#999999" stroke="#999999" points="652.1581,-912.5538 657.8967,-909.8191 651.7052,-908.3783 652.1581,-912.5538"/>
</g>
<!-- Apie\\LaravelApie&#45;&gt;Apie\\SchemaGenerator -->
<g id="edge76" class="edge">
<title>Apie\\LaravelApie&#45;&gt;Apie\\SchemaGenerator</title>
<path fill="none" stroke="#999999" d="M153.1737,-989.1387C175.9325,-994.4171 201.4616,-999.909 225,-1004 491.3698,-1050.2949 562.2458,-1062.1326 832,-1044 853.3662,-1042.5638 876.2729,-1040.0295 897.7593,-1037.2069"/>
<polygon fill="#999999" stroke="#999999" points="898.1099,-1039.2789 903.7795,-1036.4038 897.5545,-1035.1157 898.1099,-1039.2789"/>
</g>
<!-- Apie\\LaravelApie&#45;&gt;Illuminate\\Support -->
<g id="edge68" class="edge">
<title>Apie\\LaravelApie&#45;&gt;Illuminate\\Support</title>
<path fill="none" stroke="#999999" d="M99.6873,-953.6646C115.8683,-933.0217 140.7973,-897.8004 153,-863 246.546,-596.2197 62.9794,-462.672 225,-231 293.347,-133.2712 345.743,-111 465,-111 465,-111 465,-111 1256.5,-111 1397.1273,-111 1434.9213,-103.6075 1572,-135 1598.0658,-140.9694 1602.4947,-148.9662 1628,-157 1631.1167,-157.9817 1634.3048,-158.9443 1637.5343,-159.8848"/>
<polygon fill="#999999" stroke="#999999" points="1637.0395,-161.9273 1643.3854,-161.5531 1638.1912,-157.8883 1637.0395,-161.9273"/>
</g>
<!-- Illuminate\\Contracts -->
<g id="node28" class="node">
<title>Illuminate\\Contracts</title>
<path fill="#9999cc" stroke="#000000" d="M1791,-154C1791,-154 1648,-154 1648,-154 1642,-154 1636,-148 1636,-142 1636,-142 1636,-130 1636,-130 1636,-124 1642,-118 1648,-118 1648,-118 1791,-118 1791,-118 1797,-118 1803,-124 1803,-130 1803,-130 1803,-142 1803,-142 1803,-148 1797,-154 1791,-154"/>
<text text-anchor="middle" x="1719.5" y="-133.5" font-family="Times,serif" font-size="10.00" fill="#000033">Illuminate\Contracts</text>
</g>
<!-- Apie\\LaravelApie&#45;&gt;Illuminate\\Contracts -->
<g id="edge80" class="edge">
<title>Apie\\LaravelApie&#45;&gt;Illuminate\\Contracts</title>
<path fill="none" stroke="#999999" d="M99.7736,-953.6946C116.0303,-933.0779 141.025,-897.8794 153,-863 204.8553,-711.9612 120.8195,-269.0293 225,-148 296.2021,-65.2826 355.8583,-96 465,-96 465,-96 465,-96 1256.5,-96 1396.8806,-96 1432.4328,-95.91 1572,-111 1590.6758,-113.0192 1610.572,-115.8929 1629.5083,-118.9771"/>
<polygon fill="#999999" stroke="#999999" points="1629.6284,-121.1252 1635.8903,-120.0302 1630.3123,-116.9813 1629.6284,-121.1252"/>
</g>
<!-- Apie\\LaravelApie&#45;&gt;external -->
<g id="edge78" class="edge">
<title>Apie\\LaravelApie&#45;&gt;external</title>
<path fill="none" stroke="#999999" d="M96.9264,-953.9451C111.2977,-932.6911 135.2519,-896.089 153,-863 312.4661,-565.6964 127.6295,-171 465,-171 465,-171 465,-171 987.5,-171 1249.1341,-171 1342.4429,-115.4774 1572,-241 1638.3392,-277.2745 1686.7137,-356.6326 1707.7882,-396.3598"/>
<polygon fill="#999999" stroke="#999999" points="1706.0567,-397.5804 1710.6984,-401.9238 1709.7783,-395.6338 1706.0567,-397.5804"/>
</g>
<!-- Apie\\SchemaGenerator&#45;&gt;Apie\\Core -->
<g id="edge92" class="edge">
<title>Apie\\SchemaGenerator&#45;&gt;Apie\\Core</title>
<path fill="none" stroke="#999999" d="M1029.8868,-1004.8405C1043.4405,-998.3447 1058.2313,-990.5057 1071,-982 1106.388,-958.4269 1103.6758,-935.1742 1143,-919 1189.7411,-899.7752 1320.1878,-913.5479 1370,-905 1398.5947,-900.0931 1429.8216,-891.3543 1454.8277,-883.4932"/>
<polygon fill="#999999" stroke="#999999" points="1455.6349,-885.4403 1460.7173,-881.622 1454.363,-881.4375 1455.6349,-885.4403"/>
</g>
<!-- Apie\\SchemaGenerator&#45;&gt;Apie\\ServiceProviderGenerator -->
<g id="edge91" class="edge">
<title>Apie\\SchemaGenerator&#45;&gt;Apie\\ServiceProviderGenerator</title>
<path fill="none" stroke="#999999" d="M1071.1754,-1038.4803C1094.361,-1042.2158 1119.5909,-1045.7692 1143,-1048 1400.2617,-1072.5165 1703.1597,-1075.6512 1868.6552,-1075.1893"/>
<polygon fill="#999999" stroke="#999999" points="1868.9773,-1077.2885 1874.9707,-1075.1698 1868.9642,-1073.0885 1868.9773,-1077.2885"/>
</g>
<!-- Apie\\SchemaGenerator&#45;&gt;Apie\\DateformatToRegex -->
<g id="edge93" class="edge">
<title>Apie\\SchemaGenerator&#45;&gt;Apie\\DateformatToRegex</title>
<path fill="none" stroke="#999999" d="M1071.1387,-1023.9328C1099.0724,-1024.2443 1130.4385,-1024.5941 1159.3131,-1024.9161"/>
<polygon fill="#999999" stroke="#999999" points="1159.4117,-1027.0173 1165.4347,-1024.9844 1159.4586,-1022.8175 1159.4117,-1027.0173"/>
</g>
<!-- Apie\\SchemaGenerator&#45;&gt;Illuminate\\Support -->
<g id="edge90" class="edge">
<title>Apie\\SchemaGenerator&#45;&gt;Illuminate\\Support</title>
<path fill="none" stroke="#999999" d="M1028.7058,-1004.8956C1044.5173,-995.8259 1061.1213,-983.2601 1071,-967 1219.852,-721.9923 954.7244,-542.1897 1143,-326 1159.4503,-307.1107 1482.0581,-232.4275 1637.3429,-197.3637"/>
<polygon fill="#999999" stroke="#999999" points="1637.8586,-199.4002 1643.2491,-196.0309 1636.934,-195.3032 1637.8586,-199.4002"/>
</g>
<!-- Apie\\SchemaGenerator&#45;&gt;external -->
<g id="edge89" class="edge">
<title>Apie\\SchemaGenerator&#45;&gt;external</title>
<path fill="none" stroke="#999999" d="M1027.8477,-1004.8795C1043.7174,-995.7466 1060.597,-983.1378 1071,-967 1176.4629,-803.3981 1044.3568,-702.802 1143,-535 1226.8237,-392.4075 1277.8727,-357.6194 1434,-303 1491.8929,-282.7468 1514.0822,-282.8183 1572,-303 1625.3948,-321.6056 1673.9807,-368.4925 1699.8748,-396.9424"/>
<polygon fill="#999999" stroke="#999999" points="1698.565,-398.6267 1704.1375,-401.6858 1701.689,-395.8194 1698.565,-398.6267"/>
</g>
<!-- Apie\\RegexValueObjects -->
<g id="node24" class="node">
<title>Apie\\RegexValueObjects</title>
<path fill="#9999cc" stroke="#000000" d="M1335.5,-703C1335.5,-703 1177.5,-703 1177.5,-703 1171.5,-703 1165.5,-697 1165.5,-691 1165.5,-691 1165.5,-679 1165.5,-679 1165.5,-673 1171.5,-667 1177.5,-667 1177.5,-667 1335.5,-667 1335.5,-667 1341.5,-667 1347.5,-673 1347.5,-679 1347.5,-679 1347.5,-691 1347.5,-691 1347.5,-697 1341.5,-703 1335.5,-703"/>
<text text-anchor="middle" x="1256.5" y="-682.5" font-family="Times,serif" font-size="10.00" fill="#000033">Apie\RegexValueObjects</text>
</g>
<!-- Apie\\RegexValueObjects&#45;&gt;Apie\\Core -->
<g id="edge81" class="edge">
<title>Apie\\RegexValueObjects&#45;&gt;Apie\\Core</title>
<path fill="none" stroke="#999999" d="M1347.6552,-695.3796C1355.5888,-698.407 1363.1802,-702.2172 1370,-707 1415.3683,-738.8173 1397.1532,-772.6124 1434,-814 1444.2827,-825.5499 1457.3758,-836.3379 1469.3872,-845.1264"/>
<polygon fill="#999999" stroke="#999999" points="1468.3587,-846.9732 1474.4574,-848.7669 1470.8084,-843.5616 1468.3587,-846.9732"/>
</g>
<!-- Apie\\RegexValueObjects&#45;&gt;external -->
<g id="edge82" class="edge">
<title>Apie\\RegexValueObjects&#45;&gt;external</title>
<path fill="none" stroke="#999999" d="M1347.7547,-677.8755C1356.0127,-674.2556 1363.6423,-669.4156 1370,-663 1480.3869,-551.6074 1313.4713,-416.3315 1434,-316 1457.5693,-296.3803 1542.7678,-306.7306 1572,-316 1622.2565,-331.9361 1670.171,-371.8538 1697.1101,-397.3427"/>
<polygon fill="#999999" stroke="#999999" points="1695.7851,-398.9814 1701.5713,-401.614 1698.6898,-395.9477 1695.7851,-398.9814"/>
</g>
</g>
</svg>
