<?xml version="1.0" encoding="UTF-8" standalone="no"?>
<!DOCTYPE svg PUBLIC "-//W3C//DTD SVG 1.1//EN"
 "http://www.w3.org/Graphics/SVG/1.1/DTD/svg11.dtd">
<!-- Generated by graphviz version 2.40.1 (0)
 -->
<!-- Title: G Pages: 1 -->
<svg width="855pt" height="530pt"
 viewBox="0.00 0.00 855.00 530.00" xmlns="http://www.w3.org/2000/svg" xmlns:xlink="http://www.w3.org/1999/xlink">
<g id="graph0" class="graph" transform="scale(1 1) rotate(0) translate(4 526)">
<title>G</title>
<polygon fill="#ffffff" stroke="transparent" points="-4,4 -4,-526 851,-526 851,4 -4,4"/>
<text text-anchor="middle" x="423.5" y="-6.6" font-family="Times,serif" font-size="8.00" fill="#000000">PhpDependencyAnalysis by Marco Muths v2.0.2</text>
<g id="clust1" class="cluster">
<title>cluster_0</title>
<path fill="#ccccff" stroke="#000033" d="M20,-317C20,-317 827,-317 827,-317 833,-317 839,-323 839,-329 839,-329 839,-502 839,-502 839,-508 833,-514 827,-514 827,-514 20,-514 20,-514 14,-514 8,-508 8,-502 8,-502 8,-329 8,-329 8,-323 14,-317 20,-317"/>
<text text-anchor="middle" x="31.5" y="-498.8" font-family="Times,serif" font-size="14.00" fill="#000033">Apie</text>
</g>
<g id="clust2" class="cluster">
<title>cluster_1</title>
<path fill="#ccccff" stroke="#000033" d="M523.5,-234C523.5,-234 614.5,-234 614.5,-234 620.5,-234 626.5,-240 626.5,-246 626.5,-246 626.5,-297 626.5,-297 626.5,-303 620.5,-309 614.5,-309 614.5,-309 523.5,-309 523.5,-309 517.5,-309 511.5,-303 511.5,-297 511.5,-297 511.5,-246 511.5,-246 511.5,-240 517.5,-234 523.5,-234"/>
<text text-anchor="middle" x="542.5" y="-293.8" font-family="Times,serif" font-size="14.00" fill="#000033">Ramsey</text>
</g>
<g id="clust3" class="cluster">
<title>cluster_2</title>
<path fill="#ccccff" stroke="#000033" d="M508.5,-25C508.5,-25 629.5,-25 629.5,-25 635.5,-25 641.5,-31 641.5,-37 641.5,-37 641.5,-131 641.5,-131 641.5,-137 635.5,-143 629.5,-143 629.5,-143 508.5,-143 508.5,-143 502.5,-143 496.5,-137 496.5,-131 496.5,-131 496.5,-37 496.5,-37 496.5,-31 502.5,-25 508.5,-25"/>
<text text-anchor="middle" x="523.5" y="-127.8" font-family="Times,serif" font-size="14.00" fill="#000033">Faker</text>
</g>
<g id="clust4" class="cluster">
<title>cluster_3</title>
<path fill="#ccccff" stroke="#000033" d="M519.5,-151C519.5,-151 618.5,-151 618.5,-151 624.5,-151 630.5,-157 630.5,-163 630.5,-163 630.5,-214 630.5,-214 630.5,-220 624.5,-226 618.5,-226 618.5,-226 519.5,-226 519.5,-226 513.5,-226 507.5,-220 507.5,-214 507.5,-214 507.5,-163 507.5,-163 507.5,-157 513.5,-151 519.5,-151"/>
<text text-anchor="middle" x="531" y="-210.8" font-family="Times,serif" font-size="14.00" fill="#000033">cebe</text>
</g>
<!-- Apie\\CommonValueObjects -->
<g id="node1" class="node">
<title>Apie\\CommonValueObjects</title>
<path fill="#9999cc" stroke="#000000" d="M379,-465C379,-465 214,-465 214,-465 208,-465 202,-459 202,-453 202,-453 202,-441 202,-441 202,-435 208,-429 214,-429 214,-429 379,-429 379,-429 385,-429 391,-435 391,-441 391,-441 391,-453 391,-453 391,-459 385,-465 379,-465"/>
<text text-anchor="middle" x="296.5" y="-444.5" font-family="Times,serif" font-size="10.00" fill="#000033">Apie\CommonValueObjects</text>
</g>
<!-- Apie\\Core -->
<g id="node2" class="node">
<title>Apie\\Core</title>
<path fill="#9999cc" stroke="#000000" d="M819,-443C819,-443 759,-443 759,-443 753,-443 747,-437 747,-431 747,-431 747,-419 747,-419 747,-413 753,-407 759,-407 759,-407 819,-407 819,-407 825,-407 831,-413 831,-419 831,-419 831,-431 831,-431 831,-437 825,-443 819,-443"/>
<text text-anchor="middle" x="789" y="-422.5" font-family="Times,serif" font-size="10.00" fill="#000033">Apie\Core</text>
</g>
<!-- Apie\\CommonValueObjects&#45;&gt;Apie\\Core -->
<g id="edge1" class="edge">
<title>Apie\\CommonValueObjects&#45;&gt;Apie\\Core</title>
<path fill="none" stroke="#999999" d="M391.3741,-464.5024C468.397,-475.7881 579.5004,-485.4122 675,-468 699.1572,-463.5955 724.8471,-454.3436 745.7124,-445.5462"/>
<polygon fill="#999999" stroke="#999999" points="746.7765,-447.3749 751.4642,-443.0813 745.1221,-443.5145 746.7765,-447.3749"/>
</g>
<!-- Apie\\CompositeValueObjects -->
<g id="node3" class="node">
<title>Apie\\CompositeValueObjects</title>
<path fill="#9999cc" stroke="#000000" d="M663,-422C663,-422 475,-422 475,-422 469,-422 463,-416 463,-410 463,-410 463,-398 463,-398 463,-392 469,-386 475,-386 475,-386 663,-386 663,-386 669,-386 675,-392 675,-398 675,-398 675,-410 675,-410 675,-416 669,-422 663,-422"/>
<text text-anchor="middle" x="569" y="-401.5" font-family="Times,serif" font-size="10.00" fill="#000033">Apie\CompositeValueObjects</text>
</g>
<!-- Apie\\CommonValueObjects&#45;&gt;Apie\\CompositeValueObjects -->
<g id="edge4" class="edge">
<title>Apie\\CommonValueObjects&#45;&gt;Apie\\CompositeValueObjects</title>
<path fill="none" stroke="#999999" d="M391.0425,-432.0814C412.2594,-428.7334 434.9697,-425.1497 456.8262,-421.7008"/>
<polygon fill="#999999" stroke="#999999" points="457.367,-423.7416 462.9663,-420.7319 456.7122,-419.5929 457.367,-423.7416"/>
</g>
<!-- Apie\\DateValueObjects -->
<g id="node4" class="node">
<title>Apie\\DateValueObjects</title>
<path fill="#9999cc" stroke="#000000" d="M644,-465C644,-465 494,-465 494,-465 488,-465 482,-459 482,-453 482,-453 482,-441 482,-441 482,-435 488,-429 494,-429 494,-429 644,-429 644,-429 650,-429 656,-435 656,-441 656,-441 656,-453 656,-453 656,-459 650,-465 644,-465"/>
<text text-anchor="middle" x="569" y="-444.5" font-family="Times,serif" font-size="10.00" fill="#000033">Apie\DateValueObjects</text>
</g>
<!-- Apie\\CommonValueObjects&#45;&gt;Apie\\DateValueObjects -->
<g id="edge5" class="edge">
<title>Apie\\CommonValueObjects&#45;&gt;Apie\\DateValueObjects</title>
<path fill="none" stroke="#999999" d="M391.0425,-447C418.4815,-447 448.418,-447 475.7756,-447"/>
<polygon fill="#999999" stroke="#999999" points="475.9364,-449.1001 481.9363,-447 475.9363,-444.9001 475.9364,-449.1001"/>
</g>
<!-- Ramsey\\Uuid -->
<g id="node9" class="node">
<title>Ramsey\\Uuid</title>
<path fill="#9999cc" stroke="#000000" d="M606.5,-278C606.5,-278 531.5,-278 531.5,-278 525.5,-278 519.5,-272 519.5,-266 519.5,-266 519.5,-254 519.5,-254 519.5,-248 525.5,-242 531.5,-242 531.5,-242 606.5,-242 606.5,-242 612.5,-242 618.5,-248 618.5,-254 618.5,-254 618.5,-266 618.5,-266 618.5,-272 612.5,-278 606.5,-278"/>
<text text-anchor="middle" x="569" y="-257.5" font-family="Times,serif" font-size="10.00" fill="#000033">Ramsey\Uuid</text>
</g>
<!-- Apie\\CommonValueObjects&#45;&gt;Ramsey\\Uuid -->
<g id="edge2" class="edge">
<title>Apie\\CommonValueObjects&#45;&gt;Ramsey\\Uuid</title>
<path fill="none" stroke="#999999" d="M341.9423,-428.9083C358.2595,-421.2809 376.2564,-411.4863 391,-400 429.7888,-369.7807 424.5843,-346.6922 463,-316 480.315,-302.1662 501.5654,-290.1518 520.4815,-280.8368"/>
<polygon fill="#999999" stroke="#999999" points="521.7853,-282.5387 526.2702,-278.0336 519.9547,-278.7587 521.7853,-282.5387"/>
</g>
<!-- Faker\\Generator -->
<g id="node10" class="node">
<title>Faker\\Generator</title>
<path fill="#9999cc" stroke="#000000" d="M621.5,-112C621.5,-112 516.5,-112 516.5,-112 510.5,-112 504.5,-106 504.5,-100 504.5,-100 504.5,-88 504.5,-88 504.5,-82 510.5,-76 516.5,-76 516.5,-76 621.5,-76 621.5,-76 627.5,-76 633.5,-82 633.5,-88 633.5,-88 633.5,-100 633.5,-100 633.5,-106 627.5,-112 621.5,-112"/>
<text text-anchor="middle" x="569" y="-91.5" font-family="Times,serif" font-size="10.00" fill="#000033">Faker\Generator</text>
</g>
<!-- Apie\\CommonValueObjects&#45;&gt;Faker\\Generator -->
<g id="edge3" class="edge">
<title>Apie\\CommonValueObjects&#45;&gt;Faker\\Generator</title>
<path fill="none" stroke="#999999" d="M351.839,-428.8458C366.2833,-421.8106 380.676,-412.3862 391,-400 465.0318,-311.1801 390.0619,-239.7202 463,-150 475.2674,-134.9101 492.7009,-123.3753 509.8951,-114.8107"/>
<polygon fill="#999999" stroke="#999999" points="511.2093,-116.5093 515.7093,-112.0193 509.3914,-112.7231 511.2093,-116.5093"/>
</g>
<!-- Apie\\CompositeValueObjects&#45;&gt;Apie\\Core -->
<g id="edge6" class="edge">
<title>Apie\\CompositeValueObjects&#45;&gt;Apie\\Core</title>
<path fill="none" stroke="#999999" d="M675.1335,-414.1309C698.136,-416.3266 721.3643,-418.5439 740.7881,-420.398"/>
<polygon fill="#999999" stroke="#999999" points="740.7834,-422.507 746.9558,-420.9867 741.1825,-418.326 740.7834,-422.507"/>
</g>
<!-- Apie\\DateValueObjects&#45;&gt;Apie\\Core -->
<g id="edge7" class="edge">
<title>Apie\\DateValueObjects&#45;&gt;Apie\\Core</title>
<path fill="none" stroke="#999999" d="M656.2658,-438.2734C685.0202,-435.398 715.9418,-432.3058 740.6998,-429.83"/>
<polygon fill="#999999" stroke="#999999" points="741.0951,-431.9011 746.8563,-429.2144 740.6771,-427.7219 741.0951,-431.9011"/>
</g>
<!-- Apie\\DateformatToRegex -->
<g id="node5" class="node">
<title>Apie\\DateformatToRegex</title>
<path fill="#9999cc" stroke="#000000" d="M648,-370C648,-370 490,-370 490,-370 484,-370 478,-364 478,-358 478,-358 478,-346 478,-346 478,-340 484,-334 490,-334 490,-334 648,-334 648,-334 654,-334 660,-340 660,-346 660,-346 660,-358 660,-358 660,-364 654,-370 648,-370"/>
<text text-anchor="middle" x="569" y="-349.5" font-family="Times,serif" font-size="10.00" fill="#000033">Apie\DateformatToRegex</text>
</g>
<!-- Apie\\Faker -->
<g id="node6" class="node">
<title>Apie\\Faker</title>
<path fill="#9999cc" stroke="#000000" d="M107,-465C107,-465 39,-465 39,-465 33,-465 27,-459 27,-453 27,-453 27,-441 27,-441 27,-435 33,-429 39,-429 39,-429 107,-429 107,-429 113,-429 119,-435 119,-441 119,-441 119,-453 119,-453 119,-459 113,-465 107,-465"/>
<text text-anchor="middle" x="73" y="-444.5" font-family="Times,serif" font-size="10.00" fill="#000033">Apie\Faker</text>
</g>
<!-- Apie\\Faker&#45;&gt;Apie\\CommonValueObjects -->
<g id="edge11" class="edge">
<title>Apie\\Faker&#45;&gt;Apie\\CommonValueObjects</title>
<path fill="none" stroke="#999999" d="M119.0383,-447C141.2542,-447 168.8439,-447 195.5965,-447"/>
<polygon fill="#999999" stroke="#999999" points="195.6495,-449.1001 201.6494,-447 195.6494,-444.9001 195.6495,-449.1001"/>
</g>
<!-- Apie\\Faker&#45;&gt;Apie\\Core -->
<g id="edge10" class="edge">
<title>Apie\\Faker&#45;&gt;Apie\\Core</title>
<path fill="none" stroke="#999999" d="M119.2988,-456.7358C221.0561,-476.4732 471.3384,-515.9154 675,-474 701.536,-468.5386 729.512,-456.6178 751.1092,-445.902"/>
<polygon fill="#999999" stroke="#999999" points="752.3279,-447.6395 756.7407,-443.0636 750.4375,-443.8889 752.3279,-447.6395"/>
</g>
<!-- Apie\\Faker&#45;&gt;Faker\\Generator -->
<g id="edge9" class="edge">
<title>Apie\\Faker&#45;&gt;Faker\\Generator</title>
<path fill="none" stroke="#999999" d="M119.1877,-430.9875C122.9372,-429.1464 126.5905,-427.1499 130,-425 167.2318,-401.5229 168.7259,-385.8135 202,-357 313.9228,-260.0811 339.0187,-230.9236 463,-150 482.7547,-137.106 505.7954,-124.6521 525.34,-114.7762"/>
<polygon fill="#999999" stroke="#999999" points="526.3324,-116.6278 530.7543,-112.0608 524.4495,-112.8735 526.3324,-116.6278"/>
</g>
<!-- Faker\\Provider -->
<g id="node11" class="node">
<title>Faker\\Provider</title>
<path fill="#9999cc" stroke="#000000" d="M618,-69C618,-69 520,-69 520,-69 514,-69 508,-63 508,-57 508,-57 508,-45 508,-45 508,-39 514,-33 520,-33 520,-33 618,-33 618,-33 624,-33 630,-39 630,-45 630,-45 630,-57 630,-57 630,-63 624,-69 618,-69"/>
<text text-anchor="middle" x="569" y="-48.5" font-family="Times,serif" font-size="10.00" fill="#000033">Faker\Provider</text>
</g>
<!-- Apie\\Faker&#45;&gt;Faker\\Provider -->
<g id="edge8" class="edge">
<title>Apie\\Faker&#45;&gt;Faker\\Provider</title>
<path fill="none" stroke="#999999" d="M119.2212,-433.5495C123.1881,-431.1461 126.8729,-428.3204 130,-425 202.2754,-348.2579 132.9074,-278.6197 202,-199 279.4556,-109.743 418.5245,-73.614 501.4326,-59.5154"/>
<polygon fill="#999999" stroke="#999999" points="502.2214,-61.5131 507.7959,-58.4578 501.5328,-57.37 502.2214,-61.5131"/>
</g>
<!-- Apie\\Fixtures -->
<g id="node7" class="node">
<title>Apie\\Fixtures</title>
<path fill="#9999cc" stroke="#000000" d="M118,-422C118,-422 28,-422 28,-422 22,-422 16,-416 16,-410 16,-410 16,-398 16,-398 16,-392 22,-386 28,-386 28,-386 118,-386 118,-386 124,-386 130,-392 130,-398 130,-398 130,-410 130,-410 130,-416 124,-422 118,-422"/>
<text text-anchor="middle" x="73" y="-401.5" font-family="Times,serif" font-size="10.00" fill="#000033">Apie\Fixtures</text>
</g>
<!-- Apie\\Fixtures&#45;&gt;Apie\\CommonValueObjects -->
<g id="edge13" class="edge">
<title>Apie\\Fixtures&#45;&gt;Apie\\CommonValueObjects</title>
<path fill="none" stroke="#999999" d="M130.2666,-415.0177C150.5687,-418.9237 174.0474,-423.4409 196.8464,-427.8273"/>
<polygon fill="#999999" stroke="#999999" points="196.6508,-429.9281 202.9395,-428.9995 197.4443,-425.8037 196.6508,-429.9281"/>
</g>
<!-- Apie\\Fixtures&#45;&gt;Apie\\Core -->
<g id="edge12" class="edge">
<title>Apie\\Fixtures&#45;&gt;Apie\\Core</title>
<path fill="none" stroke="#999999" d="M114.3216,-385.9433C139.2483,-375.8135 171.9059,-363.8669 202,-357 304.6318,-333.5812 575.925,-295.4209 675,-331 714.2186,-345.0839 749.5675,-379.1435 770.1662,-402.1567"/>
<polygon fill="#999999" stroke="#999999" points="768.7923,-403.774 774.3339,-406.8886 771.9441,-400.998 768.7923,-403.774"/>
</g>
<!-- Apie\\Fixtures&#45;&gt;Apie\\CompositeValueObjects -->
<g id="edge14" class="edge">
<title>Apie\\Fixtures&#45;&gt;Apie\\CompositeValueObjects</title>
<path fill="none" stroke="#999999" d="M130.3821,-404C209.8898,-404 355.2183,-404 456.7184,-404"/>
<polygon fill="#999999" stroke="#999999" points="456.7311,-406.1001 462.7311,-404 456.7311,-401.9001 456.7311,-406.1001"/>
</g>
<!-- Apie\\SchemaGenerator -->
<g id="node8" class="node">
<title>Apie\\SchemaGenerator</title>
<path fill="#9999cc" stroke="#000000" d="M368,-396C368,-396 225,-396 225,-396 219,-396 213,-390 213,-384 213,-384 213,-372 213,-372 213,-366 219,-360 225,-360 225,-360 368,-360 368,-360 374,-360 380,-366 380,-372 380,-372 380,-384 380,-384 380,-390 374,-396 368,-396"/>
<text text-anchor="middle" x="296.5" y="-375.5" font-family="Times,serif" font-size="10.00" fill="#000033">Apie\SchemaGenerator</text>
</g>
<!-- Apie\\SchemaGenerator&#45;&gt;Apie\\Core -->
<g id="edge17" class="edge">
<title>Apie\\SchemaGenerator&#45;&gt;Apie\\Core</title>
<path fill="none" stroke="#999999" d="M380.2657,-375.8115C474.2413,-373.9394 620.6393,-372.9338 675,-383 698.6018,-387.3704 723.7476,-396.1549 744.4007,-404.5654"/>
<polygon fill="#999999" stroke="#999999" points="743.7547,-406.5707 750.1018,-406.9237 745.3602,-402.6896 743.7547,-406.5707"/>
</g>
<!-- Apie\\SchemaGenerator&#45;&gt;Apie\\CompositeValueObjects -->
<g id="edge16" class="edge">
<title>Apie\\SchemaGenerator&#45;&gt;Apie\\CompositeValueObjects</title>
<path fill="none" stroke="#999999" d="M380.1109,-385.9776C404.299,-388.2854 431.1025,-390.8428 456.7364,-393.2886"/>
<polygon fill="#999999" stroke="#999999" points="456.7047,-395.395 462.8771,-393.8745 457.1037,-391.214 456.7047,-395.395"/>
</g>
<!-- Apie\\SchemaGenerator&#45;&gt;Apie\\DateformatToRegex -->
<g id="edge18" class="edge">
<title>Apie\\SchemaGenerator&#45;&gt;Apie\\DateformatToRegex</title>
<path fill="none" stroke="#999999" d="M380.1109,-370.0224C409.031,-367.2631 441.69,-364.147 471.6184,-361.2915"/>
<polygon fill="#999999" stroke="#999999" points="472.1877,-363.3468 477.9611,-360.6863 471.7887,-359.1658 472.1877,-363.3468"/>
</g>
<!-- cebe\\openapi -->
<g id="node12" class="node">
<title>cebe\\openapi</title>
<path fill="#9999cc" stroke="#000000" d="M610.5,-195C610.5,-195 527.5,-195 527.5,-195 521.5,-195 515.5,-189 515.5,-183 515.5,-183 515.5,-171 515.5,-171 515.5,-165 521.5,-159 527.5,-159 527.5,-159 610.5,-159 610.5,-159 616.5,-159 622.5,-165 622.5,-171 622.5,-171 622.5,-183 622.5,-183 622.5,-189 616.5,-195 610.5,-195"/>
<text text-anchor="middle" x="569" y="-174.5" font-family="Times,serif" font-size="10.00" fill="#000033">cebe\openapi</text>
</g>
<!-- Apie\\SchemaGenerator&#45;&gt;cebe\\openapi -->
<g id="edge15" class="edge">
<title>Apie\\SchemaGenerator&#45;&gt;cebe\\openapi</title>
<path fill="none" stroke="#999999" d="M314.3235,-359.9833C343.6123,-330.9744 404.5237,-273.114 463,-233 482.2178,-219.8168 504.9033,-207.4526 524.3464,-197.713"/>
<polygon fill="#999999" stroke="#999999" points="525.2977,-199.5854 529.7388,-195.0371 523.4306,-195.8231 525.2977,-199.5854"/>
</g>
</g>
</svg>
